<svg width="136" height="132" viewBox="0 0 136 132" fill="none" xmlns="http://www.w3.org/2000/svg">
<path d="M89.4568 46.6144C90.1543 51.0283 89.4871 55.5499 87.5445 59.5743C85.6018 63.5986 82.4765 66.9336 78.5866 69.1331M89.4568 46.6144C88.9205 43.4529 87.6958 40.4479 85.8694 37.8121C84.043 35.1764 81.6596 32.9743 78.8878 31.3618M89.4568 46.6144L110.878 43.0945M78.5866 69.1331C74.1748 71.5483 69.0714 72.3869 64.1188 71.5104M78.5866 69.1331L104.936 116.757C105.828 118.368 108.175 118.275 108.936 116.598L114.675 103.95C114.984 103.269 115.613 102.787 116.351 102.665L127.531 100.828C129.211 100.552 129.981 98.5772 128.931 97.2369L115.958 80.6726M64.1188 71.5104C60.3421 70.8157 56.8173 69.1317 53.9039 66.63C50.9905 64.1284 48.7928 60.8987 47.535 57.2705C46.2773 53.6423 46.0044 49.7453 46.7443 45.9772C47.4842 42.2091 49.2105 38.7047 51.7468 35.8215M64.1188 71.5104L54.3938 125.062C54.0647 126.874 51.8113 127.537 50.5537 126.191L41.0693 116.045C40.5583 115.498 39.8081 115.243 39.0698 115.364L27.929 117.194C26.2531 117.47 24.8925 115.853 25.4503 114.249L32.3485 94.4111M51.7468 35.8215C55.0474 32.0396 59.5623 29.5257 64.5155 28.7118C69.4687 27.8979 74.5506 28.8349 78.8878 31.3618M51.7468 35.8215L29.4219 21.9248C26.1799 19.9474 22.3393 19.19 18.5894 19.7886C16.5436 20.1172 14.5828 20.8464 12.8195 21.9344C11.0562 23.0225 9.52501 24.4479 8.3138 26.129C7.1026 27.8102 6.2352 29.7138 5.76135 31.7309C5.2875 33.748 5.21652 35.8388 5.55249 37.8834L12.712 81.4548C13.1923 84.4496 14.5277 87.2419 16.5574 89.4958C18.5872 91.7497 21.2249 93.3692 24.1532 94.1596C27.0816 94.9499 30.1759 94.8773 33.064 93.9507C35.9522 93.024 38.5111 91.2827 40.433 88.9362L57.1833 68.9066M78.8878 31.3618L95.6381 11.3323C98.0769 8.42146 101.473 6.47496 105.217 5.84211C109.296 5.1561 113.481 6.10289 116.867 8.47778C120.253 10.8527 122.569 14.4648 123.313 18.5333L130.509 62.329C131.013 65.3201 130.641 68.3929 129.439 71.1778C128.237 73.9627 126.257 76.3411 123.735 78.0269C121.214 79.7127 118.259 80.6342 115.226 80.6804C112.193 80.7267 109.212 79.8958 106.64 78.2876L84.3611 64.6712M25.1931 57.174L46.6143 53.6541" stroke="#F8F8F8" stroke-width="10" stroke-miterlimit="10"/>
</svg>
