<?xml version="1.0" encoding="UTF-8"?>
<svg id="Layer_2" xmlns="http://www.w3.org/2000/svg" width="111.1" height="111.1" version="1.1" viewBox="0 0 111.1 111.1">
  <!-- Generator: Adobe Illustrator 29.5.1, SVG Export Plug-In . SVG Version: 2.1.0 Build 141)  -->
  <defs>
    <style>
      .st0 {
        fill: #f7ca4c;
      }

      .st1 {
        fill: #2d4956;
      }

      .st2 {
        fill: #2a89c5;
      }

      .st3 {
        fill: #f16368;
      }

      .st4 {
        fill: #2888c5;
      }

      .st5 {
        fill: #3b5154;
      }

      .st6 {
        fill: #436064;
      }

      .st7 {
        fill: #f6c94c;
      }

      .st8 {
        fill: #facb49;
      }

      .st9 {
        fill: #5b6975;
      }

      .st10 {
        fill: #88bb40;
      }

      .st11 {
        fill: #f9cb4c;
      }

      .st12 {
        fill: #92c73e;
      }

      .st13 {
        fill: #ebc347;
      }

      .st14 {
        fill: #eec645;
      }

      .st15 {
        fill: #2d4a54;
      }

      .st16 {
        fill: #edc147;
      }

      .st17 {
        fill: #2f4956;
      }

      .st18 {
        fill: #e2bc48;
      }

      .st19 {
        fill: #2b4957;
      }

      .st20 {
        fill: #ffcd45;
      }

      .st21 {
        fill: #284b5b;
      }

      .st22 {
        fill: #3f5b64;
      }

      .st23 {
        fill: #f6ca45;
      }

      .st24 {
        fill: #2a4855;
      }

      .st25 {
        fill: #f5c945;
      }

      .st26 {
        fill: #f1656a;
      }

      .st27 {
        fill: #ee6268;
      }

      .st28 {
        fill: #f7ce64;
      }

      .st29 {
        fill: #294754;
      }

      .st30 {
        fill: #405c64;
      }

      .st31 {
        fill: #39515e;
      }

      .st32 {
        fill: #f4cc62;
      }

      .st33 {
        fill: #f8cb45;
      }

      .st34 {
        fill: #f2c74e;
      }

      .st35 {
        fill: #2988c4;
      }

      .st36 {
        fill: #2d4954;
      }

      .st37 {
        fill: #f3c74f;
      }

      .st38 {
        fill: #425e65;
      }

      .st39 {
        fill: #284754;
      }

      .st40 {
        fill: #efc446;
      }

      .st41 {
        fill: #374f5c;
      }

      .st42 {
        fill: #dab849;
      }

      .st43 {
        fill: #eff4f9;
      }

      .st44 {
        fill: #facc44;
      }

      .st45 {
        fill: #446162;
      }

      .st46 {
        fill: #f8ca4b;
      }

      .st47 {
        fill: #2b4855;
      }

      .st48 {
        fill: #717c87;
      }

      .st49 {
        fill: #566571;
      }

      .st50 {
        fill: #f6c946;
      }

      .st51 {
        fill: #2a4854;
      }

      .st52 {
        fill: #3e5a63;
      }

      .st53 {
        fill: #364f5c;
      }

      .st54 {
        fill: #2e4a57;
      }

      .st55 {
        fill: #2c4954;
      }

      .st56 {
        fill: #3f5b63;
      }

      .st57 {
        fill: #fcfdfe;
      }

      .st58 {
        fill: #2989c5;
      }

      .st59 {
        fill: #facb4a;
      }

      .st60 {
        fill: #96bf3f;
      }

      .st61 {
        fill: #f8ca4d;
      }

      .st62 {
        fill: #304d57;
      }

      .st63 {
        fill: #efc554;
      }

      .st64 {
        fill: #8f969f;
      }

      .st65 {
        fill: #f16569;
      }

      .st66 {
        fill: #707b86;
      }

      .st67 {
        fill: #8ec23f;
      }
    </style>
  </defs>
  <g id="Layer_1-2">
    <g>
      <path class="st17" d="M63.1,0c.6.5.9,1.1.8,1.9,0,.5,0,.9.3,1.3.6.8.3,1.7-.5,2.1-.7.4-1.2.9-1.8,1.5-.8.9-1.7.8-2.3,0-.3-.4-.5-.5-1-.5-1.3-.2-1.7-.7-1-1.8.3-.5.2-.9,0-1.3-.3-1.3.5-2.4,1.8-2.3.9,0,1.7-.2,2.4-.7h1.2Z"/>
      <path class="st39" d="M28.9,55.6c8.5,4.7,16.6,9.7,25.5,13.2.7.3,1.2,0,1.8-.2,3.8-1.6,7.3-3.8,10.9-5.8,4.2-2.3,8.5-4.6,12.9-7-1.3-1-2.5-1.9-3.8-2.8-1-.7-2-1.3-3-1.9-.6-.4-1.1-.9-1.9-.3-.4.3-.8-.1-1.1-.5-.3-.6-.5-1.3,0-1.9.3-.4.8-.7,1.4-.4.4.2.7.4,1,.6,2.5,1.6,5.1,3.2,7.6,4.8,1.1.7,2.2,1.5,3.6.8.3-.2,1-.4,1.2,0,.2.4-.3.8-.6,1-.8.6-.4,1,0,1.5,2.3,2.3,4.7,4.4,7.2,6.4,1.2.9,1.1,1.5-.2,2.3-2,1.3-4,2.6-6.1,3.8-.7.4-.9.8-.8,1.6.5,5.1.6,10.2.5,15.3,0,.6,0,1.1-.7,1.5-8.4,4.7-16.8,9.5-25.2,14.3-1.4.8-2.9,1.2-4.2,2.3-.4.3-.9.2-1.5,0-9-4.7-17.6-10-26.5-15-1.4-.8-1.9-1.7-1.9-3.2,0-4.3.1-8.5-.2-12.8-.1-1.5-.6-2.4-2-3.2-1.9-.9-3.6-2.2-5.4-3.3-.6-.4-.7-.8-.3-1.4,2-2.9,3.7-6,5.9-8.8.8-1,1.7-1.6,2.7-2.3,3.2-2,6.4-3.9,9.8-5.6.3-.2.6-.4.8-.7.4-.8,1.1-.9,2-.9.5,0,.9.2,1.1.6.2.5.1.9-.2,1.3-.4.5-.9.8-1.4,1-3.1,1.6-5.9,3.6-9,5.5h0Z"/>
      <path class="st39" d="M60.9,57.5c0-.5.1-.9.3-1.4,2.4-6.1,6.2-11.2,10.8-15.8.5-.5.4-.9,0-1.4-1.4-2.6-2-5.3-1.8-8.3,0-1.1.4-2.2,1.2-3,.9-.9,1.7-1.8,2.5-2.7,1.8-2.1,4.2-2.5,6.6-2.3,2.9.2,5.6,1.1,7.9,3,4.2,3.5,5.9,8.1,5.3,13.5,0,.8-.4,1.5-.9,2.2-1.6,2-3.4,3.7-5.4,5.2-2.4,1.7-4.8,1.6-7.3.3-2.4-1.3-4.6-3-6.3-5.2-.6-.7-.9-.6-1.5,0-4.8,4.3-8.4,9.6-10.7,15.6-.2.2-.1.5-.4.7-.2,0-.4.1-.3-.2h0Z"/>
      <path class="st29" d="M22.3,24.6c.2-.2.3-.4.5-.5.5-.5,1,.2,1.6,0,0-.5-.6-.5-.6-.9.2-.2.4-.4.6-.6.4-.4.9,0,1.4,0,.1-.4-.4-.6-.3-1,.2-.2.3-.4.5-.5.5-.3.9,0,1.3.1.3,0,.6.2.7-.1.1-.3-.1-.4-.3-.5-.2-.2-.5-.3-.5-.6.1-.1.2-.3.4-.5.4-.3.8,0,1.1,0,.3,0,.7.2.8-.2.1-.3-.2-.5-.4-.7-.1-.1-.3-.3-.3-.5l.5-.5c.4-.2.8,0,1.1,0,.2,0,.5.2.7,0,.2-.3,0-.5-.3-.7-.1-.2-.4-.3-.3-.6l.4-.4c.3-.3.7,0,1,0,.3,0,.6.2.8-.1.2-.3-.1-.5-.3-.7-.1-.1-.3-.3-.2-.5.2-.2.3-.3.5-.5.4-.4.7,0,1.1,0,.3,0,.7.3,1,0,.3-.4-.1-.6-.4-.9-.1-.1-.3-.3-.3-.5,0,0,.1-.1.1-.2.4-.3.7,0,1,0,.3.1.7.3,1,0,.3-.4,0-.6-.3-.9-.1-.1-.3-.3-.2-.5.6-.5,1.2-.2,1.9,0,1.9.5,2.5,1.8,2.6,3.6.1,1.5.7,2.9,1.3,4.3.6,1.4.3,2.5-.9,3.6-5,5-9.9,10.1-14.9,15.2-1.2,1.2-1.9,1.2-3-.2.2-.3.2-.6,0-1-.4-.7,0-.7.6-.7.2,0,.6.2.6,0,0-.5-.5-.3-.8-.4-.7-.2-1.4-.3-2-.8-.4-.8-.6-1.6-.6-2.5,0-.3,0-.6.3-.8,1.1-.7.6-1.2-.2-1.7-.2-.1-.3-.2-.5-.4.5-.6-.4-1-.2-1.5.3-.3.8,0,1.2-.2,0-.5-.7-.5-.7-1l.5-.5c.3-.3.7,0,1,0,.3,0,.6.2.8,0,.2-.4-.1-.5-.3-.8-.1-.1-.2-.2-.2-.4h0Z"/>
      <path class="st39" d="M37.4,100.7c-.5,1.8-1,2.1-3.4,1.8.4.7,1,1.1,1.5,1.6,1.2,1.3,2.6,2.5,3.6,3.9.5.6.6,1.4,0,1.9-.7.6-1.4.3-1.9-.3-2.8-3.2-5.9-6.1-9.3-8.6-.6-.4-.9-1-.6-1.8.3-.8,1-1,1.7-1,.8,0,1.4.3,2.2.7.2-.7-.3-.8-.6-1.1-1.3-1.2-2.6-2.4-3.9-3.7-.6-.6-1-1.2-.4-2,.6-.8,1.4-.7,2.1-.3,1,.6,2,1.2,3,1.8,4.8,3.1,9.6,6.1,14.7,8.6.8.4,1.6.9,2.2,1.6.3.4.8.8.5,1.3-.4.7-1.1.5-1.6.2-1.8-.8-3.7-1.5-5.4-2.4-1.4-.8-2.8-1.6-4.3-2.5h0Z"/>
      <path class="st24" d="M53.5,35.5c1.1.5,2.1,1.2,3.1,1.9,2,1.2,2.2,3.9,1.5,5.5-.7,1.6-1.8,2.8-2.8,4.1-1.2,1.6-1.2,2.2.4,3.5.8.7,1.7,1.2,2.3,2,1.2,1.5,1.5,3.3,1.3,5.2,0,.4-.1,1-.7,1-.5,0-.4-.5-.5-.8-.8-2.9-1.8-5.6-4.5-7.3-1.4-1-1.5-2.2-.5-3.6,1-1.6,2.4-2.8,3.4-4.3,1-1.5.9-2.3-.1-3.8-.9-1.3-2.2-2.2-3.5-3,0-.6.3-.4.7-.2Z"/>
      <path class="st54" d="M48,55.1c-1.1-2.7-1.6-5.6-3-8.1-1.5-2.8-3.2-5.4-6.1-7-1.8-1-3.6-1.3-5.5-.2-.3.2-.5.2-.5-.2,3.3-2.9,7.4-1.9,10.1,1.7,2.9,4,4.6,8.5,5.5,13.3,0,.1.1.2.2.3.1.8.4,1.5.4,2.3,0,.2,0,.4-.2.6-.5-.8-.5-1.8-.8-2.7h0Z"/>
      <path class="st19" d="M48.1,17.7c-.9-.6-2-.4-3.1-.6-.6-.1-1.1-.6-1-1.2.2-.8,0-1.4-.3-2.1-.5-.8,0-1.4.9-1.6.6,0,.9-.3,1.2-.8.9-1.1,2.2-1.1,3,0,.4.5.7.8,1.3,1.1,1.7.7,1.8,1.9.3,3-.4.3-.6.6-.7,1-.2.7-.7,1-1.6,1h0Z"/>
      <path class="st3" d="M67.4,25.7c0,1.2-.5,2.2-1.3,3.1-.5.5-1,1-1.4,1.6-.5.7,0,1.4.4,1.9.3.3.6.7.2,1.2-.4.5-.9.3-1.4,0-1.4-.8-1.9-2.8-.9-4.3.4-.6.8-1,1.3-1.5.7-.7,1-1.6.9-2.6,0-.7-.5-1.8.7-1.9,1,0,1.3,1,1.5,1.9,0,.2,0,.4,0,.6h0Z"/>
      <path class="st1" d="M66.6,20.8c-.7-.1-1.3,0-1.8.7-.3.4-.6.9-1.1.6-.5-.3-.5-.9-.5-1.5,0-.5.3-1,.4-1.5.2-.9,0-1.8-.6-2.6-.2-.2-.4-.5,0-.8.4-.4.6,0,.8.2,1.2,1.2,2.5.4,3.7,0,.3,0,.7-.5,1,0,.2.3,0,.6-.2.9-.4.9-.3,1.8-.2,2.7.2,1.4.2,1.5-1.3,1.3h0Z"/>
      <path class="st26" d="M23.7,43.8c.4-.7.4-1.7,1.3-1.7,1.3,0,1,1.5,1.6,2.4.5-.6.5-1.3.8-1.8.1-.3.4-.6.7-.5.4,0,.4.5.4.8,0,.6-.2,1.2-.4,1.7-.3.7-.6,1.3-1.4,1.5-.9.2-1.1-.5-1.5-1.2-.5.4-.4.9-.5,1.3,0,.4-.2.7-.7.7-.4,0-.6-.3-.8-.6-.4-.8-.3-1.9-1.4-2.4-.4-.2,0-1.1.4-1.4.5-.4.9-.2,1.2.3.1.2.2.5.4.9Z"/>
      <path class="st1" d="M49.3,42.2c-2.9-5.1-6.9-9.2-12-12.4,4-.1,11.4,7.6,12,12.4Z"/>
      <path class="st47" d="M34.9,111.1c-1.1,0-4.2-2.3-4.6-3.4-.2-.5-.2-.9.2-1.3.4-.4.8-.4,1.2-.2,1.6.8,3,2,4.1,3.4.6.7,0,1.5-1,1.5Z"/>
      <path class="st65" d="M53.8,57c.2-.8-.3-1.3-.8-1.8-.7-.7-1.5-1.3-1.9-2.3-.3-.7-.2-1.2.3-1.7.3-.2.6-.5,1-.3.4.2.2.5,0,.8-.2.5.2.8.6,1.1.6.6,1.3,1.1,1.9,1.6.7.7,1,1.5.9,2.5,0,.7-.3,1.5-1.2,1.5-1,0-.8-.9-.8-1.5h0Z"/>
      <path class="st62" d="M64.2,41.7c-1.1,0-2-.9-2-2,0-1.2,1.7-2.5,3.2-2.5,1,0,1.6.7,1.5,1.8,0,1.4-1.3,2.6-2.8,2.6h0Z"/>
      <path class="st31" d="M46.9,30.4c-.5-.5-.6-1.1-.7-1.7-.6-2.9-.5-5.9.2-8.8,0-.2.1-.4.2-.6.2-.4.4-.8.8-.7.6.2.4.7.2,1.1-1.2,3.1-1.1,6.2-.9,9.4,0,.4.4.6.1,1.1h0Z"/>
      <path class="st41" d="M53.3,25.1c-.2-3.5,0-7.1.7-10.5.2-1.1.5-2.2,2-2.9-1.5,4.5-2.6,8.9-2.5,13.5,0,0-.2,0-.2,0h0Z"/>
      <path class="st28" d="M21.2,34.4c.8-.2,1.4.5,2.2.5.6.5.6.8,0,1-.5.2-.6.2-.4.3,1.1.5.6.9-.2,1.2-.7-.4-1.4-.8-2.2-1.2-.3-.2-.9-.2-.7-.7.2-.5.6-.3,1-.2.2,0,.3,0,.7.1-.4-.4-.5-.7-.4-1h0Z"/>
      <path class="st59" d="M35.8,11c0,0,.2.2.3.2.5.3,1,.7.7,1.3-.4.7-1,.4-1.6.2-.3-.1-.6-.2-.9-.3-.3-.4-.9-.8-.5-1.4.6-.9,1.4,0,2,0Z"/>
      <path class="st11" d="M34.1,12.6c.5.4,1.6.6,1.1,1.5-.5.8-1.2.1-1.9,0-.2,0-.4-.1-.6-.2-.3-.4-1-.6-.6-1.2.3-.7.9-.3,1.5-.2.2,0,.4,0,.6.1h0Z"/>
      <path class="st8" d="M28.9,17.9c.5.4,1.6.6,1.2,1.4-.4.8-1.3.3-1.9,0-.2,0-.4-.1-.6-.2-.1-.1-.2-.2-.4-.3-.3-.3-.6-.5-.4-1,.3-.5.7-.4,1.2-.2.3.1.6.2.9.3h0Z"/>
      <path class="st53" d="M29.1,105.9c-.8-.1-1.3-.6-1.2-1.4,0-.6.4-1.1,1.1-1,.8,0,1.3.6,1.4,1.4,0,.7-.5,1-1.2,1.1Z"/>
      <path class="st7" d="M27.2,19.6c.4.5,1.7.4,1.2,1.4-.4.8-1.2.2-1.9,0-.2,0-.4-.1-.6-.2-.2-.2-.4-.3-.6-.5-.2-.2-.3-.4-.2-.7.1-.3.4-.4.7-.3.4,0,.9.2,1.4.4h0Z"/>
      <path class="st61" d="M30.6,16.1c.4.4,1.4.6,1.1,1.4-.4.8-1.2.2-1.8,0-.1,0-.3,0-.5-.1-.1-.1-.3-.2-.5-.4-.3-.2-.6-.5-.4-.9.2-.4.6-.4.9-.3.4,0,.8.2,1.1.3h0Z"/>
      <path class="st32" d="M19.9,27.5c.3.5,2,.6.4,1.5-.8-.4-1.6-.8-2.5-1.2-.3-.1-.7-.2-.6-.6,0-.4.5-.4.9-.4.3,0,.6.3.9,0,.6-.2.9,0,.9.6h0Z"/>
      <path class="st0" d="M22.3,24.6c.4.4,1.4.4,1.1,1.2-.4.8-1.1.3-1.7.1-.2,0-.4,0-.6-.1-.3-.4-1.1-.5-.8-1.1.3-.5.9-.3,1.4-.2.2,0,.4,0,.6,0h0Z"/>
      <path class="st46" d="M32.3,14.4c.1,0,.2.2.4.3.4.3.9.5.6,1.1-.2.5-.8.4-1.3.3-.3,0-.7-.2-1-.3-.3-.4-.9-.6-.6-1.2.3-.6.9-.2,1.4-.2.2,0,.3,0,.5,0h0Z"/>
      <path class="st37" d="M25.5,21.3c.3.4,1.1.7.8,1.1-.3.6-1.1.1-1.6,0-.1,0-.2,0-.3,0-.2-.1-.4-.3-.6-.4-.3-.2-.5-.4-.3-.8.2-.4.5-.4.9-.3.4.1.7.2,1.1.3h0Z"/>
      <path class="st34" d="M19.9,27.5c-.2-.4-.5-.5-.9-.6-.3,0-.4-.2-.4-.4,0-.3.3-.4.5-.4.5,0,1,.2,1.5.3.4.4,1.4.3,1.2,1-.3.8-1.1.2-1.7.2s-.2,0-.2,0h0Z"/>
      <path class="st63" d="M23.8,23c.3.4,1.4.3,1.1,1.1-.3.7-1,.1-1.6,0-.2,0-.4,0-.6,0,0,0-.1-.1-.2-.2-.3-.3-1-.4-.7-.9.2-.4.8-.1,1.2,0,.2,0,.5,0,.7.1h0Z"/>
      <path class="st9" d="M48,55.1c.6.7.4,1.6.9,2.4.2-.9-.4-1.8-.2-2.6.5,1.4.7,3,.5,4-.5-.5-1-1.9-1.2-3.8Z"/>
      <path class="st48" d="M53.3,25.1h.2c.4.8.2,1.7.4,2.5-.5-.8-.6-1.6-.6-2.5h0Z"/>
      <path class="st66" d="M60.9,57.5c.5.3.4-.5.8-.5,0,.3-.1.5-.2.8,0,.3-.2.8-.6.6-.4-.2-.2-.6,0-.9Z"/>
      <path class="st64" d="M33,39.5c0,.3.3.2.5.2-.3.4-.9.5-1.4.9.1-.6.5-.9.9-1.1Z"/>
      <path class="st49" d="M53.5,35.5c-.2,0-.5,0-.7.2-.2-.2-.5-.3-.5-.7.5-.1.9.1,1.2.5Z"/>
      <path class="st27" d="M59.7,1.7c.7.4,1.3.2,1.9,0,.5-.2.9,0,.7.5-.3.8,0,1.2.7,1.5.6.3.5.7,0,.9-.7.2-1.3.5-1.7,1.2-.2.4-.8.9-1.1,0-.2-.5-.6-.4-1-.4-.6,0-1,0-.6-.8.3-.5.2-1,0-1.5-.2-.8.2-1.3,1-1.3h0Z"/>
      <path class="st4" d="M54.3,73.5c.1,1,.2,1.8.3,2.7,0,.3,0,.8.4.8s.6-.4.7-.7c.3-.9.1-1.7.2-2.6,0-.2,0-.4,0-.6.4-.1.5.2.7.4,1.7,2.3,3.4,4.7,5.1,7.1,1,1.4,1.8,1.5,3.3.6,5.2-3.1,10.4-6.3,15.9-9.1.9-.5,1.1-.3,1.1.7,0,4.3-.2,8.7-.2,13,0,.7-.3,1-.8,1.3-5.5,3.1-11,6.1-16.5,9.2-2.4,1.4-4.9,2.7-7.3,4.1-1.1.6-1.3.5-1.2-.7.1-2.4-.3-4.8-.3-7.3,0-.2,0-.3,0-.5,0-.3-.2-.8-.7-.7-.4,0-.4.4-.5.7-.2,2-.3,4-.5,5.9,0,.9-.2,1.8-.2,2.6s-.3,1.1-1.1.6c-4.5-2.5-9-5-13.5-7.5-3.8-2.1-7.6-4.3-11.5-6.4-.5-.3-.8-.6-.8-1.2,0-4,0-8.1-.2-12.1,0-1.3.3-1.5,1.4-.8,5.5,3.3,11.4,6.1,17.1,9.1.2,0,.4.2.5.3,1.4.8,1.4.8,2.3-.5,1.5-2,3-4.1,4.5-6.1.6-.8,1-1.6,1.8-2.3h0Z"/>
      <path class="st4" d="M53.5,71.7c0,.4-.3.5-.5.8-2.4,2.4-4.7,4.9-6.8,7.5-.5.7-.9.3-1.4,0-4.7-2.1-9.1-4.8-13.5-7.5-3.6-2.2-7.2-4.3-10.8-6.4-.5-.3-.8-.5-.4-1.2,1.6-2.5,3.1-5.1,5.2-7.3.9-.9,1.6-.9,2.6-.5,3.3,1.5,6.4,3.6,9.6,5.3,5.1,2.8,10.1,5.6,15.1,8.4.3.2.8.3.9.7h0Z"/>
      <path class="st4" d="M89.2,64.2c0,.5-.6.8-1,1-3.1,2-6.2,3.9-9.3,5.8-4.6,2.8-9.2,5.5-13.7,8.5-.6.4-1.1.5-1.6-.2-2-2.3-3.7-4.9-5.5-7.4-.5-.8-.3-1.2.5-1.7,5.5-3.4,11-6.5,16.8-9.4,1.9-1,3.8-2,5.6-3.2.5-.3.8-.4,1.3,0,2.2,1.8,4.1,4.1,6.6,5.7.2.1.4.3.3.7Z"/>
      <path class="st20" d="M92.6,35.1c0,2.9-2.2,4.6-5.1,4.3-4.2-.5-6.6-3.2-8.6-6.5-.6-.9-1.1-2-1.4-3-1.1-3.6.8-6,4.5-5.8,4.3.2,9.8,5.5,10.5,9.8,0,.4,0,.9.1,1.3h0Z"/>
      <path class="st22" d="M84.5,42.3c0,.6.4.8.8,1,.2.1.6,0,.6.4s-.3.5-.7.6c-.9.3-1.8.4-2.5,1.2-.3.4-2.5-.6-2.5-1.1,0-.4.2-.5.6-.6.4,0,.7.2,1.1.4.3.1.7.5,1,.2.5-.4-.2-.6-.2-.8,0-.2.6-3,.8-3.1.2-.2.5-.2.8,0,.9.3,1.8.7,2.7,1,.6.2.7.6.6,1.1-.2.7-.6.4-1,.3-.6-.1-1.2-.3-1.9-.4h0Z"/>
      <path class="st30" d="M78.1,37.2c-.2-1.2-1.5-1.9-1.5-3.5,1.5,1.5,2.2,3.1,2.4,4.9,0,.7-.2,1.5-1.2,1.4-.7,0-1.4-.2-2,.5-.2.2-.4,0-.6-.2-.3-.4-.7-.9-1-1.3-.2-.2-.2-.5,0-.8.3-.3.6-.2.8,0,.2.2.5.5.6,0,.4-1.2,1.4-1.2,2.4-1.3h0Z"/>
      <path class="st52" d="M77.6,40.5c.2,0,.3.2.3.2,0,1.1,1,1.2,1.5,1.8.4.4.2.6,0,.9-.2.3-.5.6-.9.2-.6-.5-1.1-.9-1.6-1.4-.3-.2-.6-.5-.4-.9.2-.5.8-.4,1.1-.8Z"/>
      <path class="st22" d="M82,41.6c0,.8-.3,1.2-1,.9-.5-.2-1.1-.5-1.5-.9-.2-.2-1.1-.3-.5-.8.3-.4.8-1.1,1.4-.4.5.5,1.4.6,1.6,1.2h0Z"/>
      <path class="st52" d="M73.6,32.1c0-.5,0-.8.5-.7,1.1.1.9,1.1,1.1,1.7.1.4-.3.9-.7.8-1-.2-.6-1.2-.9-1.8h0Z"/>
      <path class="st56" d="M76.5,35.8c0,.6-.2.8-.7.8-.8,0-1-.8-1.1-1.4-.2-.7.6-.6.9-.6.8,0,.7.8,1,1.2h0Z"/>
      <path class="st12" d="M37.5,21l-.2.2c-.5.3-.9,0-1.4-.2-.3,0-.6-.2-.8,0-.2.3.1.5.3.7.2.2.5.3.4.6-.1.2-.3.4-.4.6-.9,0-1.7-.4-2.6-.3-.6-.5-1.2-1-2-.4-.9.6-1.8,1.1-1.7,2.4,0,.5.2.9.3,1.3,0,.8,1.1,1,1.3,1.7l-.4.5c-.9.4-1.6-.5-2.5-.3-.1,0-.2,0-.3-.1-.5-.9-1.3-1.2-2.3-.9-.2,0-.4.1-.7,0,4.2-4.4,8.5-8.7,12.8-13.1.2-.2.4-1.1,1-.4.1.2,0,.5,0,.7-.5.8-.8,1.5.2,2.1.2.1.3.4.1.6-.5,1,.1,1.6.8,2.1.2.6-.3.6-.7.7-.5.3-.9-.1-1.3-.2-.3,0-.6-.2-.8,0-.2.3,0,.5.2.7.2.2.5.4.5.8h0Z"/>
      <path class="st6" d="M24.7,26.9c.2-.1.5-.2.7-.3,1.4-.8,2.1-.4,2.2,1.2.1,1-1.1,1.1-1.3,1.9,0,.7,1,.7,1.1,1.4-.1.3-.2.5,0,.8-.8.4-1.5-.4-2.3-.3.3.7,1.2.5,1.4,1.2-.4,0-.7.2-.8.6-.6,0-1.3,0-1.8-.4-.7-.6-.6-1.3-.2-2,.3-.4.4-.8,0-1.2-.5-.5-.4-1.1,0-1.7.3-.4.7-.7,1-1.1h0Z"/>
      <path class="st38" d="M29.4,26.2c-1.1-1.8,0-4.1,2.1-4.4.8-.1,1.3.3,1.6,1,.2.6.9.9.8,1.7,0,0,0,.1-.1.1-.3.5-.8.1-1.1,0-.3,0-.8-.3-.9.1-.1.4.3.5.5.6.2.2.6.2.6.6-.2.2-.4.3-.5.5-1,.2-1.9-.5-2.9-.4h0Z"/>
      <path class="st45" d="M39.6,19c-1.4-.3-1.6-.7-1.1-2.1,0-.2.2-.4,0-.6-1.3-.7-1-1.5-.1-2.4.1-.1.1-.4.2-.5.6,1.8.9,3.7,1.1,5.5h0Z"/>
      <path class="st44" d="M37.5,21c-.5-.5-1.6-.8-1.1-1.7.5-.9,1.3-.1,2,.1.2,0,.4.1.5.2.3.4.8.8.4,1.3-.5.7-1.2.2-1.8,0h0Z"/>
      <path class="st50" d="M29.4,26.2c1.1-.8,1.9.3,2.9.4.2.4.9.6.4,1.2-.6.6-1.2.1-1.8,0-.6-.4-1.5-.5-1.4-1.6Z"/>
      <path class="st33" d="M35.9,22.5c-.4-.5-1.6-.5-1.1-1.5.5-.8,1.3,0,1.9,0,.2,0,.4.1.5.2.3.3.9.6.5,1.2-.3.5-.9.3-1.4.2-.2,0-.4-.1-.5-.2h0Z"/>
      <path class="st14" d="M24.1,32.8c.5.3,1.3,0,1.7.6.2.3.5.6.3,1-.2.4-.7.3-1.1.3-.8,0-1.3-.3-1.9-.8-.5-.5-.4-.8.2-1,.2,0,.5,0,.7,0h0Z"/>
      <path class="st13" d="M32.8,26.1c-.3-.2-.6-.3-.9-.5-.4-.2-.8-.5-.7-1,.2-.6.7-.5,1.2-.4.4,0,.8.5,1.3.3,0,.1,0,.2.2.3.3.3.8.6.4,1.1-.3.5-.8.3-1.2.2-.1,0-.2,0-.4,0h0Z"/>
      <path class="st25" d="M27.9,27.8c.9-.4,1.6.4,2.5.5.4.3,1.1.5.6,1.1-.5.7-1.1.2-1.7,0-1.5-.1-1.9-.6-1.4-1.6h0Z"/>
      <path class="st23" d="M33.8,24.4c-.4-.5-1-.9-.8-1.7.9-.4,1.7.1,2.4.4.3.3.6.5.4,1-.2.4-.6.4-1,.3-.4,0-.7,0-1,0h0Z"/>
      <path class="st10" d="M24.1,32.8c-.2,0-.5,0-.7,0-.2-.9-.2-1.7-.5-2.5-.3-1,0-1.6.8-2.2-.1.9-.2,1.9,1.1,2-.3.9-1.8,1.5-.7,2.8h0Z"/>
      <path class="st40" d="M27.5,31.1c-.4-.5-1.6-.4-1.4-1.5.9-.7,1.6-.5,2.5.5.2.2.6.4.4.8-.2.3-.5.2-.8.2s-.5,0-.7,0h0Z"/>
      <path class="st18" d="M26.6,32.7c-.6-.3-1.2-.5-1.8-.9-.1,0-.3-.3-.3-.5,0-.3.3-.3.6-.3.8.2,1.6.5,2.4.7.6,1.1-.3.9-.9.9h0Z"/>
      <path class="st60" d="M28.6,30.1c-.8-.4-1.5-1.1-2.5-.5.2-.9,1.2-1.1,1.6-1.9h.2c-.4,1.3.9,1.1,1.4,1.6-.3.2-.6.4-.7.8h0Z"/>
      <path class="st42" d="M23.3,35.9c.5-.3.2-.6,0-1,.6,0,1.2.1,1.1.7,0,.6-.7.5-1.1.2Z"/>
      <path class="st35" d="M49.6,14c0,.7-1,.5-1.1,1.1-.1.5.5,1,0,1.4,0,0-.4,0-.4,0-.7-.6-1.4-.8-2.3-.7-.4,0-1-.2-.5-.8,0-.1.2-.4.1-.4-1.8-1.9,1.2-1.7,1.3-2.7,0-.3.9-.4,1.2.1.4.7.8,1.3,1.6,1.7,0,0,.1.2.2.3h0Z"/>
      <path class="st16" d="M65.8,17.5c.2.1.8-.4.8.5,0,1-.3,1.5-1.4,1.5-1.1,0-.4-.7-.5-1.1-.3-1,.4-1,1.2-.9h0Z"/>
      <path class="st67" d="M63.3,39.7c0-.9.8-1.8,1.5-1.7.6,0,1.2.3,1.2,1.1-.1.9-.7,1.5-1.6,1.6-.7,0-1-.3-1-1Z"/>
      <path class="st57" d="M65.3,82.1c1.8,0,2.7.9,2.8,2.4.1,3.1-3,7.1-6,7.8-1.8.4-3.1-.6-3.1-2.4,0-2.7,1.6-4.8,3.5-6.5.8-.8,1.7-1.5,2.8-1.3h0Z"/>
      <path class="st57" d="M80.5,77.9c0,3.1-2.9,6.9-5.9,7.7-1.8.5-3.2-.7-3.2-2.6,0-2.9,3.1-6.8,5.8-7.5,1.9-.5,3.2.4,3.2,2.4Z"/>
      <path class="st43" d="M70.6,90.4c-.2,0-.6-.2-1-.4-.2-.1-.5-.3-.3-.7.1-.3.4-.6.7-.4,1.5.7,2-.5,2.7-1.4.3-.3.6-1,1-.7.5.3-.1.8-.4,1.2-.4.6-.9,1.2-1.4,1.8-.3.4-.7.6-1.4.6h0Z"/>
      <path class="st21" d="M54.5,81.7c0-.7,0-1.4.2-2.1.1-.3.3-.6.7-.5.3,0,.4.4.4.7,0,1.4-.2,2.9-.2,4.3,0,.2,0,.4-.3.5-.3,0-.4-.2-.5-.4-.3-.8-.2-1.6-.2-2.4Z"/>
      <path class="st51" d="M77.8,28.9c0-.4,0-.7.1-1.1.1-.5.4-.9.9-1,.5-.1.6.4.9.7.5.6,1.1,1.2,1.5,1.8.5.7.5,1.4-.3,2-.8.6-2,.5-2.4-.1-.5-.7-.7-1.4-.7-2.2h0Z"/>
      <path class="st55" d="M82.4,25.3c1.2,0,2.3.4,3.2,1.2.7.5.7,1-.1,1.6-1,.7-1.9.8-2.8-.2-.3-.3-.7-.6-1-.9-.3-.4-1.1-.5-.8-1.1.2-.6.9-.5,1.5-.5h0Z"/>
      <path class="st36" d="M87.1,31.2c0-.1,0-.2,0-.3.2-.6-.2-1.5.7-1.7s1.2.6,1.6,1.2c.7,1,1.1,2.1,1.4,3.3.1.6-.2,1.1-.7.7-1-.7-2-1.5-2.8-2.6-.1-.2-.1-.5-.2-.6Z"/>
      <path class="st55" d="M81.4,33.3c1.7,0,4.1,2.2,4,3.8,0,.7-.5.9-1.1.6-1.5-.8-2.6-2.1-3.6-3.4-.6-.8.2-.8.7-1h0Z"/>
      <path class="st15" d="M87,36.8c0-.7-.2-1.5.8-1.6,1,0,2.8,1.1,2.8,1.8,0,.8-.8,1.6-1.9,1.7-1.2,0-1.6-.3-1.7-1.9h0Z"/>
      <path class="st5" d="M84.7,33c-.4,0-1.2,0-1.1-.7,0-.6.3-1.2,1-1.5.3-.1,1.5,1.4,1.5,1.7,0,.3-.4.5-1.3.5h0Z"/>
      <path class="st58" d="M66.5,85.9c0,2-2.5,4.8-4.6,5.1-.8,0-1.3-.2-1.4-1.1,0-1.7,1.9-4.9,3.4-5.6,1.5-.7,2.6,0,2.6,1.6Z"/>
      <path class="st2" d="M78.9,78.9c0,1.9-1.8,4.2-3.6,4.8-1.5.5-2.4-.2-2.1-1.8.4-2,1.5-3.6,3.3-4.6,1.4-.7,2.5,0,2.4,1.6Z"/>
    </g>
  </g>
</svg>