<?xml version="1.0" encoding="UTF-8"?>
<svg id="Layer_2" xmlns="http://www.w3.org/2000/svg" width="93.4" height="93.5" version="1.1" viewBox="0 0 93.4 93.5">
  <!-- Generator: Adobe Illustrator 29.5.1, SVG Export Plug-In . SVG Version: 2.1.0 Build 141)  -->
  <defs>
    <style>
      .st0 {
        fill: #388cc7;
      }

      .st1 {
        fill: #384f54;
      }

      .st2 {
        fill: #eec247;
      }

      .st3 {
        fill: #e8c147;
      }

      .st4 {
        fill: #f1c546;
      }

      .st5 {
        fill: #ffce49;
      }

      .st6 {
        fill: #397c96;
      }

      .st7 {
        fill: #f16368;
      }

      .st8 {
        fill: #2b89c5;
      }

      .st9 {
        fill: #2888c5;
      }

      .st10 {
        fill: #ef6267;
      }

      .st11 {
        fill: #425f61;
      }

      .st12 {
        fill: #ecc345;
      }

      .st13 {
        fill: #f1bf49;
      }

      .st14 {
        fill: #d05d63;
      }

      .st15 {
        fill: #edc446;
      }

      .st16 {
        fill: #405d66;
      }

      .st17 {
        fill: #2b4854;
      }

      .st18 {
        fill: #2b4954;
      }

      .st19 {
        fill: #f4c347;
      }

      .st20 {
        fill: #435f64;
      }

      .st21 {
        fill: #294855;
      }

      .st22 {
        fill: #2c4955;
      }

      .st23 {
        fill: #5b6654;
      }

      .st24 {
        fill: #ee6167;
      }

      .st25 {
        fill: #ffcd45;
      }

      .st26 {
        fill: #3f5b64;
      }

      .st27 {
        fill: #efbe48;
      }

      .st28 {
        fill: #2e4a54;
      }

      .st29 {
        fill: #e18288;
      }

      .st30 {
        fill: #f16267;
      }

      .st31 {
        fill: #3b8fc9;
      }

      .st32 {
        fill: #f5c945;
      }

      .st33 {
        fill: #8fc33f;
      }

      .st34 {
        fill: #2d4a57;
      }

      .st35 {
        fill: #405c64;
      }

      .st36 {
        fill: #d0745c;
      }

      .st37 {
        fill: #6d9e42;
      }

      .st38 {
        fill: #2987c3;
      }

      .st39 {
        fill: #f1c247;
      }

      .st40 {
        fill: #2c4956;
      }

      .st41 {
        fill: #fbfdfe;
      }

      .st42 {
        fill: #2d8ac6;
      }

      .st43 {
        fill: #92c83e;
      }

      .st44 {
        fill: #2988c4;
      }

      .st45 {
        fill: #f6c447;
      }

      .st46 {
        fill: #415d65;
      }

      .st47 {
        fill: #ed6167;
      }

      .st48 {
        fill: #eabf47;
      }

      .st49 {
        fill: #ffce47;
      }

      .st50 {
        fill: #fafcfd;
      }

      .st51 {
        fill: #e4be4a;
      }

      .st52 {
        fill: #d8b34a;
      }

      .st53 {
        fill: #f5c447;
      }

      .st54 {
        fill: #284754;
      }

      .st55 {
        fill: #ffd050;
      }

      .st56 {
        fill: #fdfdfe;
      }

      .st57 {
        fill: #fccb45;
      }

      .st58 {
        fill: #f9fbfd;
      }

      .st59 {
        fill: #f4c646;
      }

      .st60 {
        fill: #2b4956;
      }

      .st61 {
        fill: #ec6167;
      }

      .st62 {
        fill: #f5ca44;
      }

      .st63 {
        fill: #2e83bb;
      }

      .st64 {
        fill: #2b4855;
      }

      .st65 {
        fill: #435e64;
      }

      .st66 {
        fill: #328cc7;
      }

      .st67 {
        fill: #fefefe;
      }

      .st68 {
        fill: #3e5a63;
      }

      .st69 {
        fill: #f6c348;
      }

      .st70 {
        fill: #f7c14a;
      }

      .st71 {
        fill: #bb5a60;
      }

      .st72 {
        fill: #2c4954;
      }

      .st73 {
        fill: #3e5b63;
      }

      .st74 {
        fill: #fcfdfe;
      }

      .st75 {
        fill: #91c63e;
      }

      .st76 {
        fill: #f1666a;
      }

      .st77 {
        fill: #e8c048;
      }

      .st78 {
        fill: #ebc046;
      }

      .st79 {
        fill: #2e8bc6;
      }
    </style>
  </defs>
  <g id="Layer_1-2">
    <g>
      <path class="st54" d="M52.3,78.7c-1.4,1.2-2.6.7-3.9,0-3.8-2.3-7.6-4.6-11.4-6.9-6.3-3.8-12.5-7.7-18.6-11.8-.8-.5-1.7-1-2.6-1.5-.2,0-.4-.2-.5-.2-4.5.2-8.6-1.2-12.4-3.5-2-1.2-2.9-3.4-3-5.6-.3-6.5,1.1-12.6,5.8-17.5,1.9-2,4-3.5,6.7-4.3.2,0,.5-.2.7-.1,4,.8,8.4.7,11.1,4.5.3.4.6.6,1.2.3,7.2-3.7,14.2-7.9,21.2-11.9,2.4-1.4,4.8-2.8,7.3-4.2.4-.2.9-.6,1.3-.3.9.6,1.6.1,2.3-.4,1.5-1.1,3.1-1.1,4.8,0,4.8,3.2,9.9,5.9,15,8.7,2.3,1.2,3.2,3.2,3.4,5.7,0,.6.2.8.8,1.1,2.6,1.4,5.2,2.9,7.8,4.4,1,.6,1.4,1.5,1.3,2.8-.2,2.1,0,4.3-.1,6.5,0,3.3-.2,6.7,0,10,0,2.1-.9,3.3-2.7,3.9-3.3,1.1-6.1,3.2-9.4,4.6,2.2,3.4,2.5,7.1,1.7,10.9-1.2,5.2-3.6,9.7-8,12.9-2.3,1.7-4.9,2.9-7.9,2.4-3.4-.6-6.6-1.8-9.1-4.2-1.7-1.6-2.6-3.7-2.8-6.2h0Z"/>
      <path class="st60" d="M19.9,11c0,.3-.1.7.2,1,2.1,1.7.3,4.6-1.6,5-.8.1-1.2.4-1.6,1.1-.5,1-2.2,1.7-3.2,1.4-1.1-.4-1.8-1.2-1.7-2.4,0-.5-.3-.5-.6-.7-1.8-.8-2.3-2.3-1.2-3.9.4-.6.8-1.2,1-2,.6-2.4,2-3,4.2-2.1.4.2.6,0,.9,0,2.2-.8,3.7.3,3.6,2.6h0Z"/>
      <path class="st64" d="M89.4,20.8c1.2,0,1.9.5,2.2,1.7,0,.4.3.6.6.8,1.6,1.1,1.7,2.4.2,3.7-.3.2-.5.4-.5.8,0,2-2.6,2.6-4,1.5-.5-.4-.8-.5-1.5-.4-1,.2-2-.2-2.6-1.2-.5-.9-.3-1.8.6-2.4.4-.3.1-.6,0-.9-.3-1,0-2,.9-2.3,1.3-.5,2.7-.8,4.1-1.1h0Z"/>
      <path class="st7" d="M46.8,82.4c.5.8.8,1.3,1.1,1.9.5,1.1,0,2.2-1,2.7-1.8.8-4.5-.4-5.2-2.2-.2-.7-.4-1.4.3-1.9.6-.5,1.1.2,1.5.5.5.3.8.9,1.4,1,.2-.2,0-.3,0-.4-1.3-2.1-.8-3.3,1.7-3.7.9-.1,1.8-.2,2.7,0,.6.2,1.2.4,1.1,1.2,0,.7-.6.9-1.2.9-.7,0-1.5,0-2.4,0h0Z"/>
      <path class="st8" d="M58.4,12.2c-.5.4-.9.7-1.5.2-.5-.4-1.1,0-1.6-.2-1.1-.2-2.1-.5-2.3-1.7-.3-1.1.5-1.7,1.3-2.2.9-.5,1.8-1.1,2.7-1.6.6-.3.8-.7.4-1.3-.2-.3-.6-.7-.2-1,.3-.3.8-.2,1.3,0,.8.3,1.3.9,1.5,1.7.2.9-.1,1.7-.9,2.2-.9.6-1.8,1.1-2.8,1.7.8.3,1.4,0,2-.1.6,0,1.3-.2,1.5.7-.3.7-.8,1.2-1.3,1.7h0Z"/>
      <path class="st22" d="M17.5,62.3c-.4.5,0,1,.3,1.4.2.3.3.6.2.9-.6,1.2-1.9,1.8-3,2.4-.9.5-1.9-.2-2.4-1.2-.1-.3-.4-.4-.8-.5-.8-.2-1.4-.9-1.5-1.7-.1-.8.4-1.2,1.2-1.4.5,0,.3-.5.4-.7.2-1,.9-1.5,1.9-1.2.6.2,1.2.3,1.9.3,1,0,1.8.8,1.9,1.8h0Z"/>
      <path class="st49" d="M82.5,21.9c.1,1,.4,2.1.3,3.1,0,.9-.4,1.6-1.3,1.7-.3,0-.9,0-.7-.5.5-1,0-1.8-.2-2.7-.5-1.8-.3-3.4.8-4.9.9-1.2,2.1-1.7,3.5-1.6.7,0,1.2.4,1.4,1.1.1.6,0,1.1-.5,1.5-.3.2-.6.3-1,.2-.4-.1-.5-.8-1.1-.4-.6.4-1,1-1.2,1.7,0,.2,0,.4,0,.6h0Z"/>
      <path class="st40" d="M28,22.1c0,.4-.3.5-.6.5-1.2,0-2.2.6-3.1,1.4-.8.7-1.2.5-1.5-.5-.2-.9-.9-1.3-1.8-1.5-.4,0-.8-.2-.8-.7s.5-.6.8-.7c1.6-.4,3-1.2,3.8-2.8.3-.6,1.1-.6,1.1,0,.2,1.6.9,2.8,1.9,4,0,0,0,.2.1.3Z"/>
      <path class="st22" d="M84.4,62.1c0-.2,0-.3,0-.5.3-.8.8-1.3,1.7-1.2,1.1.2,2.7-1.4,3.1.9,0,.3,0,.5.4.5.6.1,1,.5,1,1.2,0,.7-.5,1.2-1.1,1.4-.5.2-.8.4-1.1.8-.7,1-1.8,1-2.7,0,0-.1-.2-.3-.3-.3-1.5-.4-1.9-1.2-1-2.5,0,0,0-.3,0-.5h0Z"/>
      <path class="st34" d="M85.8,73.4c-.3,0-.6-.2-.8-.4-.7-.6-1.4-1-2.3-1.1-.7,0-.8-.4-.4-.9.7-.8,1.3-1.7,1.3-2.9s.2-.5.5-.6c.3,0,.5.2.6.4.6,1.2,1.7,1.8,2.9,2.1.3,0,.8.2.8.6,0,.5-.4.6-.7.6-.8.2-1.4.6-1.4,1.5,0,.3-.3.5-.5.5h0Z"/>
      <path class="st76" d="M65.8,7.9c.3,0,.5,0,.8.1.2,0,.5,0,.5.4,0,.3-.3.4-.5.4-.8.2-1.7.3-2.5.7-1.3.5-1.4.9-.9,2.2.3.7,0,1.1-.6,1.4-.8.4-1.6.6-2.4.7-.3,0-.6,0-.7-.3-.2-.4,0-.7.4-.8.9-.3.8-.7.5-1.5-.3-1,.4-1.7,1.2-2.1,1.3-.7,2.8-.9,4.2-1.1h0Z"/>
      <path class="st5" d="M18.6,67.2c-.3,0-.6.2-.8-.1-.2-.3.1-.6.4-.8,1-.8,2-.5,2.5.7.8,2.2,1.2,2.4,3.4,1.4.5-.2,1-.5,1.4.1.3.5,0,1-.4,1.4-1,.8-2.2,1.2-3.5.8-1.2-.4-2-1.3-2.2-2.6,0-.5,0-1.1-.8-.8h0Z"/>
      <path class="st0" d="M80.7,66.5c.1-.7.3-1.5,0-2.3-.2-.5.8-1,1.7-.7.5.2,1,.4,1.1,1,.1.6-.3.7-.8.9-.6.3-.3.9-.4,1.4,0,.5,0,1.3-.7,1.2-.8,0-.9-.8-.9-1.4Z"/>
      <path class="st55" d="M32,26.6c0,.5-.3,1-.9.6-.6-.5-1.4-.6-2.1-.9-.5-.2-1-.4-1.2-.9-.2-.6,0-1.2.6-1,1,.3,2,.8,3,1.2.3.1.5.5.5,1Z"/>
      <path class="st29" d="M58.4,12.2c.2-.7.7-1.3,1.3-1.7,0,1-.6,1.3-1.3,1.7Z"/>
      <path class="st9" d="M42.1,29.3c-.2.2-.2.5-.7.6-3.5.6-6.3,2.8-9,4.9-1,.7-.7,1.7.5,2,.4,0,.7.2,1.1.5,6.7,4.8,13.6,9.2,20.6,13.5,1.3.8,2.4.9,3.7,0,2.3-1.4,4.8-2.6,7.2-3.9.7-.4,1.1-.9,1-1.7,0-1,0-2.1,0-3.1,0-.6,0-1,.8-.5,2.2,1.3,4.5,1.3,6.7,0,3.1-1.8,6.2-3.6,8.7-6.2.3-.4.6-.2.9,0,.9.5,1.7,1,2.6,1.5.6.3.7.7,0,1-1.6.9-3.2,1.8-4.8,2.7-6.4,3.8-12.7,7.7-19.1,11.4-3.6,2.1-7,4.4-10.5,6.7-1.2.8-2.5,1-3.9.1-10-6.1-20.1-12.1-30.1-18.1-.8-.5-.8-1,0-1.5,7.8-4.7,15.8-9,23.8-13.3.2-.1.4-.3.7-.2,0,.6-.1,1.3-.2,2,.1.3.1.6.1.9,0,.4,0,.7-.3,1Z"/>
      <path class="st30" d="M51.4,66.6v-5.2c0-.6.2-1.1.8-1.4,11.1-6.4,21.6-13.6,33.2-19.1.8-.4,1.8-1.3,2.4-.9.6.4.2,1.7.2,2.6,0,4-.1,8-.2,12.1,0,.7-.2,1.1-.8,1.4-3.2,1.8-6.4,3.5-9.6,5.3-.3.2-.5.4-.9.1-.4-.3-.6-.8-.5-1.3.2-1.2.2-2.4.1-3.6,0-2.2-1.5-3.2-3.6-2.4-1,.4-2,1-3,1.4-1.5.5-2.9,1.5-4.6,1.7-2.6.4-4.7,2-6.4,3.9-2,2.1-4.7,3.2-7.2,5.3h0Z"/>
      <path class="st43" d="M34.8,67.5c-2.5-1.2-4.7-2.8-7.1-4.1-3.4-1.9-6.6-4.1-10.1-5.8-.7-.3-.8-.9-.8-1.5-.2-3.3-.2-6.6,0-9.9,0-1.5.1-3,.2-4.5.4-.2.7.1.9.3,9.8,5.9,19.7,11.8,29.4,17.9,1.4.9,2,1.9,1.9,3.4-.2,4-.3,8,.1,12.1,0,.8-.3.8-.8.5-.4-.2-.8-.3-1.2-.6-3-2.2-6.2-3.9-9.3-5.8,0-.2,0-.3.2-.4.4-.1.8-.2,1.2,0,1.7.2,3-.5,4.2-1.6.9-.8,1.3-1.9,1.1-3-.8-3.7-2.8-6.5-6.2-8.3-1.2-.6-2.4-.6-3.5.3-.5.4-1,.8-1.6,1.1-1.5.8-1.8,2-1.6,3.5.3,1.9,1.2,3.4,2.3,4.9.4.5,1,1,1,1.7,0,0-.2,0-.3,0h0Z"/>
      <path class="st46" d="M74.1,35.4c.6-1,.5-1.8.5-2.7,0-.6,0-1.2.2-1.8.1-.6.4-.9,1-.9.9,0,1.8,0,2.5-.5.5-.3.6,0,.5.4-.1,1.4.2,2.8.3,4.3,0,.8-.3,1.4-.9,1.8-1,.7-2,1.3-2.9,2-.4.3-.7.5-.7-.3,0-.2,0-.4-.2-.5-.3,0-.4.2-.5.4-.5,2.8-2.6,2.3-4.4,2.3-.7,0-1.3-.3-1.6-1-.3-.8.4-1,.8-1.4.2-.2.5-.4.8-.5,1.9-1.1,1.9-3.5,0-4.7-2.6-1.5-5.3-2.9-7.9-4.5-1.2-.7-2.5-.9-3.9-.8-.8,0-1.1-.2-1.1-1,0-1.8,0-3.5,0-5.3,0-.3-.1-.6.2-.7.3-.1.4.2.6.3,1.4,1.4,3.1,2.3,4.9,3.2,3.5,1.8,7,3.6,10.5,5.4.8.4,1,.9,1,1.7,0,1.5,0,3,.4,4.7h0Z"/>
      <path class="st25" d="M67.5,67.5c.3.7.7,1.3,1.2,1.8,1,.8,2.2.6,2.7-.6.5-1.1.8-2.2,1.2-3.2.3-.7-.3-.8-.6-1.2,1.2-1,2.7-.8,3.8.1,2.7,2.4,3,5.5,2.5,8.7-.6,4.2-2.6,7.8-5.8,10.8-2.9,2.7-6.1,1.2-7.7-1.6-2.3-4.2-1.2-11,2.2-14.3.1-.1.2-.2.4-.3h0Z"/>
      <path class="st46" d="M75.4,29c-.7,0-1.3-.2-1.9-.6-3-2.2-6.5-3.6-9.8-5.4-1.8-1-3.7-1.9-5.4-3.2-.7-.5-1.2-1.1-1-2,.2-.9.9-1.2,1.8-1.6,2-.7,3.3.5,4.8,1.3,4.9,2.7,9.5,5.9,14.3,8.8.3.2.9.3.8.9-.1.5-.4,1-1.1,1.2-.8.2-1.6.4-2.4.5h0Z"/>
      <path class="st43" d="M56.3,38.8c-.4-.3-.9-.6-1.5-.8-.9-.3-1.8-.5-2.1-1.5,0-.7-.4-1.3-.1-2,1.4-2.3,3.2-2.9,5.6-1.9,1.2.5,2.3,1.4,3.5,2.1.6.5,1.2.9,1.7,1.4.6.9.8,1.9.1,2.8-.5.4-1.2.6-1.6,1.2-.4.4-.9.5-1.4.7-.1,0-.2,0-.3,0-1.4-.5-2.8-1-3.9-2.1h0Z"/>
      <path class="st30" d="M43.3,38.1c0,.2,0,.4,0,.6,0,.1,0,.2-.2.3-.8.5-.3.7.2,1,0,.2,0,.4.1.6,0,.5-.5.6-.9.7-2.6-1.7-5.2-3.4-7.8-5-.9-.6-.7-.9,0-1.4,1.8-1,3.5-2,5.3-3,.7-.4,1.4-.4,2,0,.4,0,.9,0,1.1.5,0,.1,0,.3,0,.4,0,.2,0,.3-.2.4-.9.5-.4.8.2,1.1v.5c0,.2,0,.3-.2.4-.8.5-.4.9.2,1.2,0,.2,0,.3,0,.4,0,.2,0,.3-.2.4-.8.5-.2.8.2,1h0Z"/>
      <path class="st75" d="M50,33.4v.5c-.2.7-1,.9-1.5,1.3-.9.1-1.5.6-1.6,1.6-.1,1.1.5,1.7,1.4,2.1.5.6,1.3-.2,1.9.2,0,.2,0,.4,0,.5,0,.6-.8.5-1,1,.3.4.8,0,1,.3-.3.5,0,.8.5.9-.7.5-1.5.6-2.3.8-.3-.2-.3-.5-.3-.8-.2-1.1-.4-1.2-1.3-.6-.3.2-.5.4-.7,0,0-4.5,0-9,0-13.5,0-.4-.4-1,.5-1,.3.7.5,1.4,1.5,1.3.3,0,.5.1.6.4.2.8.8.7,1.5.7.6.2.2.5.2.9,0,.1-.2.2-.2.2-.4.2-1,.3-1,.9,0,.5.8,0,1.1.4,0,.1.1.2.2.3-.2.5-1.1.4-1.2,1.1.3.4.8,0,1.1.4h0Z"/>
      <path class="st10" d="M52.8,36.5c.5.7,1.5.9,2.1,1.5,0,.8,0,1.6,0,2.4s0,1.5-.5,2.1c-.4.5-.5,1.2,0,1.8-.1.6-.2,1.1.7.7.4-.2.8-.5,1.3,0,0,.5-.6.6-.6,1.1,1.1.4,2,1.2,3.3.8,0,0,.2,0,.3.1,0,.5-.5.8-.3,1.3-2.2,1.4-4.3,1.1-5.9-.8-.6-.7-.2-1.8-.3-2.7-.1-2.6,0-5.2-.1-7.8,0-.2,0-.4.1-.6Z"/>
      <path class="st57" d="M14.1,39.9c.5,1,.5,1.8-.3,2.7-1.6,1.8-1.4,5.5.4,7.2.2.2.3.3.3.6v3.9c-4-2.5-4.4-9.6-1-14.7.3-.2.4.1.5.2Z"/>
      <path class="st44" d="M57,29.3c1.1-.5,2-.5,3,0,2.4,1.5,4.9,2.9,7.3,4.3.6.3,1.4.6,1.1,1.5-.3.8-1.2,1.1-1.8,1.7-.2.1-.4,0-.5-.2-1.8-3-4.8-4.5-7.7-6.2-.4-.2-.8-.5-1.2-.7,0,0,0-.1-.2-.3h0Z"/>
      <path class="st44" d="M55.2,19.8c0,.8-.2,1.4-1,1.9-1.5.8-2.9,1.7-4.2,2.8-.8.7-1.5.9-2.4.2-.5-.4-1.5-.3-1.5-.9,0-.6,1-.7,1.5-1,2.1-1.2,4-2.7,6.3-3.6.9-.4,1.4-.2,1.4.6h0Z"/>
      <path class="st35" d="M5.7,37.9c-.1.7,0,.9.8.6.8-.3,1.5.5,1.9,1.1.6,1,.9.5,1.1-.1.4-.8.8-1.6,1.3-2.2.1-.2.3-.3.5-.2.3.2.2.4,0,.6-1,1.3-1.3,3.1-2.8,4.2-1.4,1-2,1.1-3-.3-.3-.4-.6-.7-.9-1.1-.3-.3-1.1-.3-.9-.9.2-.9.6-1.7,1.2-2.4.1-.2.4-.1.6,0,.4.2.3.6.3,1h0Z"/>
      <path class="st35" d="M58.1,67.6c-.2.6-.2,1.1.4.9,1.2-.5,1.7.4,2.2,1.1.5.6.7.5,1,0,.4-.8.8-1.5,1.3-2.3.1-.2.3-.5.6-.4.3.2.1.5,0,.7-.9,1.3-1.3,3-2.8,4.1-1.4,1-2,1.1-3-.3-.3-.4-.6-.7-.9-1.1-.3-.3-1.1-.3-.9-.9.2-.9.6-1.7,1.2-2.4.1-.2.4-.1.5,0,.4.2.4.6.3.8h0Z"/>
      <path class="st10" d="M61.7,34.9c-1.2-.7-2.3-1.4-3.5-2-1.4-.7-2.8-.9-4,.4-.4.5-1,.8-1.5,1.2-.2-1.9.3-3.9-.5-6,3.7,1.7,6.8,3.8,9.8,6.2,0,.2,0,.3-.3.3Z"/>
      <path class="st73" d="M7.2,50.2c-.6.5-.6,1.1-.5,1.6,0,.3.2.6-.2.7s-.7.1-1-.2c-.8-.9-1.6-1.7-2.8-2-.5,0-.8-2.8-.4-3.2.2-.2.5-.3.8-.2.4,0,.5.4.5.7,0,.6,0,1.2.2,1.8,0,.2.2.5.5.5.3,0,.4-.2.4-.5,0-.8.6-.9,1.2-.9s1.1-.5,1.7-.6c.8-.2,1.4-.2,1.5.9.1,1,.4,2,.6,3,0,.3,0,.6,0,.8,0,.5-.5.7-.9.8-.5.2-.6-.3-.7-.6-.3-.8-.6-1.7-.9-2.7h0Z"/>
      <path class="st26" d="M59.8,79.1c-.3.9-.9,1.9-.9,3.1,0,.5-.7.4-.9,0-.8-.9-1.6-1.8-2.9-2.1-.5,0-.7-2.9-.4-3.2.2-.2.5-.2.8-.2.3,0,.4.3.5.6,0,.6,0,1.1.2,1.6.1.3.1.7.5.7s.4-.3.5-.6c0-.3,2.2-1.2,2.4-1.1.3.2.2.6.3,1h0Z"/>
      <path class="st24" d="M63.5,39c.1-1,.2-2-.4-2.9,0-.2,0-.3.2-.2,1.4,1.2,2,2.6,1.8,4.4-.2,1.3-.2,2.7-.3,4,0,.5,0,.9-.5,1.1-.3.1-.6.5-1,.2-.3-.2-.2-.6-.1-.9.1-1.9.2-3.8.3-5.7h0Z"/>
      <path class="st38" d="M56.3,38.8c1.4.5,2.5,1.5,4,1.9,0,.2,0,.4-.1.6-.6,1.3-.5,1.6.8,2.1.2.1.5.2.7.5,0,.5,0,.9-.8.5-1.4-.7-2.7-1.4-4.1-2.1-.4-.2-.4-.5-.4-.9,0-.9,0-1.7,0-2.6h0Z"/>
      <path class="st26" d="M4.4,42.7c-.2.7-.4,1.4-.4,2.1,0,.6-.3.9-.9.8-.5,0-.8-.3-.8-.8,0-1,.2-2,.5-2.9,0-.3.3-.6.7-.5.6.2,1.4.3,1.6,1,.2.7.6,1.2,1.4,1.3.1,0,.2,0,.3.2.3.3-.2,3.1-.6,3.4-.7.5-1.2.2-1.2-.7,0-.9,0-1.8,0-2.8,0-.5,0-1-.6-1.2h0Z"/>
      <path class="st26" d="M56.8,72.6c-.3.7-.4,1.4-.4,2.1,0,.6-.2.9-.9.9-.6,0-.8-.4-.8-.9,0-.7.2-1.4.3-2.1,0-.5,0-1.2.8-1.2.7,0,1.4.3,1.7.9.3.7.6,1.4,1.5,1.5,0,0,.2,0,.2.1.3.4-.2,3.2-.6,3.4-.7.4-1.2.2-1.2-.7,0-.9,0-1.8,0-2.8,0-.5,0-.9-.6-1.2h0Z"/>
      <path class="st20" d="M46,41.3c.2,0,.3.2.5,0,.3-.5.7-.7,1.3-.5.6.2.6.7.6,1.3,0,.3,0,.5,0,.8.6.4,1.2-.1,1.8.2,0,.5.5.4.7.7-.7.5-1.7.6-2.4,1.2-.8-.4-1.5-.9-2.2-1.3-.8-.5-.3-1.5-.4-2.3h0Z"/>
      <path class="st61" d="M50.4,25.9c1.5-.9,2.9-1.7,4.3-2.5.4,1.5-.5,2.6-.5,4,0,.6-.4.2-.7.1-1-.5-2-1-3.1-1.6Z"/>
      <path class="st65" d="M48.3,39.2c-1.6-.5-2.2-2.1-1.3-3.5.4-.6,1-.6,1.6-.5.2,0,.3,0,.5,0,.6.4.6,1-.1,1.8.4.4.9,0,1.3.2,0,.2,0,.4.3.6-.5.8-1.6.8-2.2,1.4Z"/>
      <path class="st59" d="M14.1,39.9c-.2,0-.4-.2-.5-.2,1.5-2.7,5.4-5.4,8.5-5.5-.8.5-1.4.9-2,1.3-1.8,1.2-3.6,2.3-5.4,3.5-.4.2-.6.5-.5,1h0Z"/>
      <path class="st45" d="M59,46.8c-.8.2-1.8,1.3-2.4-.3,0,0-.1,0-.2,0-.5.2-1.1.3-1.2-.3-.2-.6.6-.8,1-1.2,0,0,0-.1.2-.1.7-.2,1.5-1.2,1.8.4,0,0,.2,0,.3,0,.4,0,.8-.2,1,.2.3.6-.3.9-.6,1.3h0Z"/>
      <path class="st16" d="M61.7,43.8c-.1,0-.2,0-.3,0-2.2-.5-2.5-1.4-1-3.1h0c.5-.1,1-.2,1.3.3,0,1,0,1.9,0,2.9h0Z"/>
      <path class="st68" d="M10.9,35.1c-.7,0-1.1-.8-.6-1.4.3-.4.7-.7,1-1s.6-.6.9-.5c.5.1.3.7.4,1,.2.5-1.2,1.9-1.7,1.9h0Z"/>
      <path class="st68" d="M64.5,62c.4.5.6,1,.4,1.6,0,.2-.2.3-.4.4-.5.3-.7,1.3-1.6.8-.4-.2-.7-.6-.4-1,.5-.8,1.1-1.4,2-1.9h0Z"/>
      <path class="st68" d="M9.4,43.2c-.2.8-.3,1.7-.3,2.5,0,.8-.7.8-1.1.7-.5,0-.3-.5-.2-.8.2-.9.2-1.8.6-2.6.1-.3.3-.6.7-.6.4,0,.1.5.3.8h0Z"/>
      <path class="st73" d="M60.3,66.7c0-.5.4-1.4,1.2-1.5.5,0,1.1.7,1,1.2,0,.7-.7,1.4-1.5,1.5-.6.1-.8-.3-.8-1.2Z"/>
      <path class="st73" d="M7.9,36.8c.2-.5.4-1.4,1.2-1.5.4,0,1.1.7,1,1.2-.1.7-.7,1.4-1.5,1.5-.7,0-.7-.5-.7-1.2Z"/>
      <path class="st68" d="M59,66c-.6-.2-1.1-.5-.8-1.1.3-.6.7-1.1,1.2-1.5.3-.3.6-.3,1,0,.4.3.3.6,0,.9-.4.6-.9,1.2-1.3,1.8h0Z"/>
      <path class="st68" d="M6.4,36c0,0-.2-.1-.3-.2-.7-.6,0-1.1.2-1.5.4-.5.7-1.3,1.5-.9.1,0,.3.2.3.3.2.4-1.3,2.4-1.8,2.3h0Z"/>
      <path class="st68" d="M16.2,30.2c0,.1-.1.2-.3.4-.6.5-1.2,1-1.8,1.5-.2.2-.5.2-.8,0-.2-.3-.3-.7-.1-.9.7-.6,1.4-1.2,2.5-1.3.2,0,.4,0,.5.3h0Z"/>
      <path class="st68" d="M68.5,60.2c-.1.1-.2.3-.4.4-.4.4-.9.7-1.3,1.1-.4.3-.8.8-1.2.2-.4-.5,0-1,.5-1.2.5-.3,1-.6,1.6-.8.3-.1.6,0,.8.4Z"/>
      <path class="st39" d="M58.9,48.3c-1.1-.7.1-.9.3-1.3.3-.2.7-.4,1-.6.3-.2.6-.3.8,0,.2.3.1.6,0,.9-.5.7-1.1,1.3-2.1,1.1h0Z"/>
      <path class="st19" d="M56.4,44.9c0,0-.1,0-.2.1-.5-.1-.8.2-1.2.3-.4.1-.9.6-1.3,0-.3-.5.4-.7.6-1,.4-.2.7-.3,1.1-.5.4-.2.8-.5,1.2,0,.3.4-.2.7-.2,1.1h0Z"/>
      <path class="st3" d="M50.2,37.2c-.6.2-1.4.8-1.7,0-.4-.8.8-.9,1.2-1.4,0-.5-.7-.2-.9-.6.4-.4.8-.4,1.2,0,0,.2-.1.4.1.5.3,0,.8-.2.9.4,0,.5-.5.6-.8.9h0Z"/>
      <path class="st62" d="M50,31.6c-.5,0-1.3.5-1.6-.2-.2-.7.6-.9,1.2-1.2.2,0,.4,0,.6-.1.4,0,.9,0,.9.5,0,.7-.5.9-1,1Z"/>
      <path class="st11" d="M50,29.3c-.1.2-.3.4-.6.4-.3,0-.7,0-.8-.2-.2-1.4-2.9-.5-2.3-2.6,1.1.9,2.6,1.3,3.6,2.5h0Z"/>
      <path class="st2" d="M42.1,28.2c0-.3,0-.5.1-.8.4-.2.8-.4,1.3-.5.4-.1.9-.3,1.2.2.2.5-.1.8-.5,1.1-.7.7-1.4.8-2.1,0Z"/>
      <path class="st77" d="M48.3,39.2c.3-1.1,1.4-1,2.2-1.4.3,0,.7,0,.6.5,0,.5-.5.8-.9.9-.6,0-1.3.9-1.9,0h0Z"/>
      <path class="st69" d="M43.3,36.3c-.5,0-1.1.2-1.1-.5,0-.8.8-.7,1.2-1.1.5,0,1.2-.5,1.5.2.2.7-.6.9-1.1,1.1-.1,0-.3.2-.4.2h0Z"/>
      <path class="st4" d="M44.7,28.7c.3,1.4-.9,1.2-1.6,1.5-.5.2-1,.1-1-.6.7-1,1.4-1.3,2.6-.9Z"/>
      <path class="st62" d="M50,33.4c-.2,0-.4,0-.6.1-.4.2-.7.1-.9-.3-.2-.5.2-.6.5-.8.3-.3.8-.4,1.2-.5.3,0,.8-.1.8.4,0,.7-.6.8-1,1.1h0Z"/>
      <path class="st13" d="M43.3,38.1c-.4,0-1,.3-1.1-.2-.1-.7.7-.8,1.1-1.1.2,0,.3,0,.4-.1.4-.1.8-.2,1,.2.2.5-.3.7-.7.9-.3.1-.5.3-.8.4h0Z"/>
      <path class="st12" d="M50.2,41.1c-.5,0-1.3.7-1.5,0-.2-.7.6-.8,1.1-1,.1,0,.3-.2.4-.2.4-.1.9-.2,1,.3.2.7-.5.8-.9,1Z"/>
      <path class="st53" d="M43.3,34.2c-.4-.1-1,.5-1.2-.2-.2-.8.8-.8,1.2-1.2.2,0,.3,0,.5,0,.3,0,.8-.2.9.2.1.4-.2.6-.5.8-.3.2-.5.3-.8.5h0Z"/>
      <path class="st48" d="M43.3,32.4c-.4,0-.9,0-1.1-.5.3-.6.9-.9,1.5-1.1.4-.2.8-.2,1,.2.2.4-.2.6-.4.9-.3.2-.6.4-.9.5h0Z"/>
      <path class="st15" d="M50,35.4c-.4,0-.8,0-1.2,0,0,0-.2-.1-.2-.2.2-.7,1-.9,1.5-1.2.4,0,.8,0,.8.5,0,.6-.5.7-.9,1Z"/>
      <path class="st70" d="M43.3,40c-.4-.1-1,.5-1.1-.2-.2-.8.7-.8,1.1-1.1h1.2c0,.8-.8.9-1.2,1.3Z"/>
      <path class="st32" d="M50.2,43c-.4,0-.8.2-1.1.3s-.7,0-.7-.5c.6-.7,1.4-.8,2.2-.8.5.6-.4.6-.5,1h0Z"/>
      <path class="st71" d="M51.4,28.3c-1.4-.7-2.8-1.4-4.1-2.3,0-.1.1-.2.2-.3,1.4.8,2.8,1.5,4.1,2.3,0,.1-.1.2-.2.3Z"/>
      <path class="st51" d="M48.6,44.9c.5-1,1.4-1.2,2.4-1.2.1.6-.4.7-.8,1-.1.1-.3.2-.4.2-.4.1-.8.2-1.2,0h0Z"/>
      <path class="st14" d="M46.1,25.2c-.7,0-1,.4-1.5.6-.2,0-.5.2-.6-.1-.1-.2-.3-.5-.2-.8.1-.3.4-.3.6-.2.5.2,1.1,0,1.7.5h0Z"/>
      <path class="st27" d="M42.5,41.3c.3-.2.6-.5.9-.7.3,0,.5-.2.8-.2.1,0,.3,0,.4.2,0,0,0,.3,0,.4-.6.5-1.2,1.1-2,.3Z"/>
      <path class="st23" d="M44.7,28.7c-1-.2-1.8.3-2.6.9,0,0,0-.2,0-.3,0-.4,0-.7,0-1.1.7.5,1.4,0,2.1,0,.2.2.3.4.5.5h0Z"/>
      <path class="st37" d="M34.8,67.5c.1,0,.3,0,.4,0,1.3,0,2.2.9,3.1,1.6,0,0-.2.2-.3.3-1.1-.5-2.2-1.1-3.2-1.9h0Z"/>
      <path class="st52" d="M49.7,44.9c0-.2.2-.2.4-.2,0,.3-.4.6.2.7.3,0,.7,0,.6.5,0,0,0,.2-.1.2-.4.1-.6-.2-.8-.3-.3-.2-.2-.5-.3-.8h0Z"/>
      <path class="st36" d="M63.4,35.8c0,0-.1.2-.2.2-.5-.4-1-.8-1.5-1.1,0,0,.2-.2.3-.3.6.3,1,.7,1.4,1.2h0Z"/>
      <path class="st6" d="M61.7,40.9c-.4,0-.9-.2-1.3-.3.5-.3,1-.5,1.5-.5,0,.3,0,.5-.2.7h0Z"/>
      <path class="st9" d="M14.8,9.8c.6.4,1.5.2,2.3.3.7,0,1.1.6.8,1.2-.2.6,0,.8.5,1.1.7.5.9,1.2.6,2-.2.8-.8,1.2-1.6,1.1-.6-.1-.8.4-1.2.7-1.2,1.1-2.1.9-2.4-.6-.1-.6-.4-.4-.8-.5-1.3-.2-1.7-1-1-2.1.4-.6.7-1.1.7-1.8,0-.9.8-1.3,1.9-1.3Z"/>
      <path class="st24" d="M89.9,22.8c0,1.1.3,1.7,1.2,2,.6.2.4.6,0,.8-.9.3-1.4.8-1.1,1.8,0,.2,0,.5-.3.6-.3,0-.7,0-.9-.2-.5-.6-1-.9-1.8-.7-.3,0-.6,0-.7-.4-.1-.3,0-.5.3-.7.8-.5.7-1.1,0-1.7-.2-.2-.4-.3-.3-.6.2-.3.4-.2.7-.1,1,.4,1.8-.2,2.8-.8h0Z"/>
      <path class="st33" d="M13.4,61.7c.7.4,1.4.7,2.2.6.3,0,.5.1.4.4-.5.8.3,1.1.6,1.8-.8.1-1.6.2-1.8,1.2,0,.3-.4.2-.6,0-.2-.2-.5-.4-.5-.6.2-.9-1.9-.6-1-1.5.7-.6.6-1.2.8-1.9h0Z"/>
      <path class="st78" d="M24.6,20.1c.5.3.7.9.8,1.3,0,.6-.7.7-1.1.8-.6.1-1-.6-.9-1,0-.5.8-.6,1.3-1Z"/>
      <path class="st47" d="M85.2,63.8c.6-.6.9-1.1.5-1.8.8,0,1.6,0,2.2-.6.3.5-.2,1.3.7,1.6.4.1.2.7-.1.6-.9-.2-.5,2.2-1.7.8-.4-.5-.9-.6-1.6-.7h0Z"/>
      <path class="st63" d="M84.8,69.8c.3.2.9.3,1,.8,0,.4-.2.8-.7.8-.4,0-1-.1-.9-.6,0-.3.2-.8.6-1Z"/>
      <path class="st74" d="M41.9,50.9c-.9.5-1.7.2-2.5,0-1.2-.4-2.3-1.2-3.4-1.9-.4-.3-.7-.6,0-1,1.5-.8,2.9-1.6,4.4-2.4.4-.2.8-.2,1.2,0,1,.6,1.9,1.1,2.8,1.7.4.3.8.7.7,1.3-.2.7-.8.8-1.3.8-.6,0-1.1,0-1.1.8,0,.4-.2.7-.7.7h0Z"/>
      <path class="st74" d="M28.8,41.3c-1.2-.6-1.4.2-1.6,1.1-.1.5-.3.8-.9.6-.5-.1-.9-.4-.8-1,0-.3.2-.6.3-.9,0-.4.5-.8-.1-1.2-.5-.3-1-.8-1.7-.3-.6.4-1.2.9-2.1.7-.3,0-.5-.2-.6-.5-.1-.4.2-.5.4-.6,1.4-.8,2.8-1.5,4.2-2.3.5-.2,1-.3,1.4,0,1.1.7,2.2,1.2,3.2,2.1.4.3.8.7.6,1.3-.2.6-.7.8-1.3.9-.3,0-.5,0-.9.1h0Z"/>
      <path class="st50" d="M41.9,50.9c.2-.2.5-.5.7-.7,0,.7.5.3.8.2,1.6-.4,3.1.1,4.4,1,.5.3,1,.8.8,1.6-.1.7-.7.9-1.3,1.1-1.9.5-3.5-.3-4.9-1.4-.6-.5-.2-1.2-.5-1.8h0Z"/>
      <path class="st41" d="M29.8,41.6c1.5.1,2.8.5,3.8,1.5.9.9.6,1.9-.5,2.3-1.6.5-4.2-.2-5.2-1.5-.6-.8-.4-1.7.6-2,.5-.2,1-.2,1.4-.3h0Z"/>
      <path class="st58" d="M46.2,54.9c.7-.5,1.5-.3,2.2-.2.6,0,1.1,0,.8-.8-.1-.4-.2-.8.3-1,.5-.2,1.1,0,1.2.5.2,1.6,1.3,1.4,2.4,1.5.4,0,1,0,1,.6,0,.5-.7.3-1.1.3-.2,0-.5,0-.7-.1-.7,0-1.3-.2-1,.9,0,.3.2.9-.4,1-.5,0-1.1-.2-1.1-.7,0-1.2-.9-1.2-1.8-1.3-.6,0-1.3,0-1.7-.7h0Z"/>
      <path class="st58" d="M33.2,46.9c-.5,0-.8,0-1-.2-.2-.1-.4-.2-.3-.4,0-.1.2-.2.4-.3,3-.8,5.9-1.5,8.9-2.2.1,0,.2,0,.4,0,.4,0,.8,0,.9.5,0,.5-.4.5-.7.5-2.2.5-4.3,1.1-6.4,1.6-.7.2-1.4.3-1.9.5h0Z"/>
      <path class="st21" d="M38.3,69.1c-1.1-.4-2-1.2-3.1-1.7-1.6-1.8-3-3.7-3.5-6.1-.5-2.1,0-3.1,1.7-4.2.4-.3.9-.5,1.3-.9,1.5-1.4,3.1-1.2,4.6-.3,3,1.8,4.9,4.5,5.8,7.9.4,1.7-.3,3-1.7,4.1-1.5,1.3-3.2,1.3-5,1.1h0Z"/>
      <path class="st21" d="M30.4,54.5c0,3.3-3,6.4-5.7,5.8-4.3-.9-7.7-5.2-7.3-9.8,0-.9.5-1.6,1.4-2.1.6-.4,1.2-.7,1.7-1.1,1.4-1.2,2.8-1,4.2-.3,1.5.8,3,1.8,4.2,3.1s1.7,2.8,1.6,4.4h0Z"/>
      <path class="st72" d="M75.9,76.5c0,.2,0,.5-.2.8-.7,1.6-1.7,3-2.9,4.2-.3.3-.6.6-1.1.3-.4-.2-.4-.6-.3-1.1.2-.8.4-1.5.5-2.3,0-1.8,1.3-2.4,2.7-2.9.8-.2,1.3.1,1.3,1.1h0Z"/>
      <path class="st28" d="M77.1,71c0,.1,0,.5,0,.9-.2.9-.8,1.2-1.7.7-1.3-.7-1.8-1.8-1.5-3.2.2-.7.3-1.5.4-2.2.2-1,.7-1.1,1.4-.4.8.7,1.4,2.5,1.4,4.3Z"/>
      <path class="st17" d="M64.4,76.6c.2-1.9.8-3.6,1.4-5.4.2-.7,1-.6,1.4,0,.7,1.1.8,2.2.4,3.4-.3.9-.8,1.7-1.4,2.5-.3.4-.5,1-1.2.8-.7-.2-.8-.8-.7-1.5h0Z"/>
      <path class="st18" d="M69.6,81.8c0,1.3-.4,1.9-1.4,1.9-1.2,0-2.6-1.4-2.6-2.6s1.8-2.3,2.6-2.3c.9,0,1.4,1,1.4,3Z"/>
      <path class="st1" d="M70.8,72.8c.5.1,1.1-.2,1.2.7,0,.7-.9,2.3-1.3,2.3s-1.4-1.4-1.4-2.1c0-1,.9-.8,1.5-.9Z"/>
      <path class="st35" d="M9.3,52.1c0,.2,0,.5-.3.6-.4.1-.6-.2-.7-.5-.2-.5-.4-1-.4-1.6,0-.4-.3-.8-.7-.8-.4,0-.6.4-.7.7-.1.4.4,1.2-.5,1.2-.5,0-.9-.5-1.1-1-.2-.6.2-1.2.6-1.5.7-.4,1.5-.7,2.3-.9.5-.2.8,0,.9.5.2,1,.4,2.1.6,3.2h0Z"/>
      <path class="st26" d="M5.2,45.5c0-.6,0-1.4.6-1.4.6,0,.7.7.7,1.3,0,.5,0,1.3-.6,1.3-.8,0-.5-.8-.6-1.3h0Z"/>
      <path class="st26" d="M57.6,75.4c0-.6,0-1.4.5-1.3.7,0,.7.8.7,1.4,0,.5,0,1.2-.6,1.2-.9,0-.5-.9-.6-1.3Z"/>
      <path class="st79" d="M39.7,50c-.3-.1-.7-.3-1.1-.5-.3-.2-.9-.3-.8-.7.1-.5.8-.8,1.2-.8.8,0,1.5.5,1.8,1.2.3.7-.5.7-1.1.8Z"/>
      <path class="st31" d="M42.3,48.5c-.4-.2-.9-.3-1.3-.6-.3-.2-.8-.3-.7-.7.1-.3.7-.6,1-.5.7,0,1.4.5,1.7,1.1.3.7-.5.5-.8.7h0Z"/>
      <path class="st66" d="M25.7,38.8c1.2-.9,2.5-.7,3.2.4.1.2.3.3.1.5-.2.3-.5.4-.9.3-1-.2-1.7-.7-2.5-1.3h0Z"/>
      <path class="st79" d="M45.2,53.1c-.5,0-1.1-.3-1.5-.8-.2-.2,0-.5.1-.6.6-.4,1.2-.3,1.9,0,.5.2,1.1.5,1,1,0,.6-.8.5-1.5.6Z"/>
      <path class="st42" d="M31,44.4c-.8,0-1.3-.4-1.7-.9-.1-.2,0-.4.2-.5.6-.5,1.2-.4,1.8-.2.5.2,1.2.4,1,1.1-.1.6-.8.5-1.3.5Z"/>
      <path class="st56" d="M39.9,64.8c0,1.5-1.4,2.4-2.7,1.6-1.9-1.2-2.9-3.1-3.5-5.2-.2-.6,0-1.2.7-1.7.6-.4,1.1-.1,1.7.2,2.1,1.1,3.8,3.4,3.8,5.1h0Z"/>
      <path class="st67" d="M25.7,56c0,1.7-.8,2.3-2.2,2-2.2-.5-4.3-4-3.7-6.2.3-1.2.9-1.5,2.1-1,2.3,1.1,3.5,3,3.8,5.2h0Z"/>
    </g>
  </g>
</svg>