<svg width="169" height="34" viewBox="0 0 169 34" fill="none" xmlns="http://www.w3.org/2000/svg">
<path d="M52.6367 9.65887H60.0067C61.7205 9.65887 63.1099 11.0482 63.1099 12.762V30.6052C63.1099 32.319 61.7205 33.7083 60.0067 33.7083H52.6367V9.65887Z" fill="white"/>
<path d="M11.2324 9.6731H3.86243C2.1486 9.6731 0.759271 11.0624 0.759271 12.7763V30.6194C0.759271 32.3332 2.1486 33.7226 3.86243 33.7226H11.2324V9.6731Z" fill="white"/>
<rect x="12.6484" y="5.76624" width="38.5726" height="24.4175" rx="2.83102" fill="#F8F8F8"/>
<circle cx="24.9104" cy="18.1352" r="4.11831" stroke="#2588C7" stroke-width="1.90028"/>
<circle cx="38.8264" cy="18.1352" r="4.11831" stroke="#2588C7" stroke-width="1.90028"/>
<path d="M114.181 1.79254C114.356 1.12392 114.961 0.657654 115.652 0.657654H116.932C117.928 0.657654 118.655 1.59964 118.403 2.56322L110.529 32.6103C110.354 33.2789 109.75 33.7452 109.059 33.7452H107.778C106.782 33.7452 106.055 32.8032 106.308 31.8396L114.181 1.79254Z" fill="white"/>
<path d="M90.1629 31.3844C90.187 31.6252 90.1629 31.8539 90.0907 32.0706C90.0426 32.2151 89.9703 32.3354 89.874 32.4318C89.8018 32.5281 89.7055 32.6244 89.5851 32.7207C89.3684 32.8652 89.1035 32.9976 88.7905 33.118C88.5979 33.1661 88.4053 33.2023 88.2126 33.2263C88.0441 33.2745 87.8635 33.2745 87.6709 33.2263C87.2856 33.2023 86.9486 33.0578 86.6596 32.7929C86.2503 32.4558 85.9132 32.0826 85.6484 31.6733C85.528 31.4807 85.3955 31.264 85.2511 31.0232C85.1066 30.7824 84.9742 30.5296 84.8538 30.2648L80.8448 22.6441C80.6522 22.6441 80.4596 22.6562 80.267 22.6802C80.0743 22.6802 79.8817 22.6923 79.6891 22.7164C79.1835 22.7645 78.7019 22.7765 78.2444 22.7525C77.811 22.7284 77.3535 22.7284 76.872 22.7525H76.1858V29.2896C76.1858 29.4822 76.1737 29.6628 76.1496 29.8314C76.1496 29.9999 76.1496 30.1805 76.1496 30.3731C76.1496 30.4935 76.1376 30.65 76.1135 30.8426C76.1135 31.0352 76.1015 31.2158 76.0774 31.3844C76.0293 31.6492 75.9209 31.9261 75.7524 32.2151C75.5838 32.4799 75.3551 32.7087 75.0661 32.9013C74.5605 33.2143 73.9465 33.2986 73.2242 33.1541C72.9112 33.0819 72.6102 32.9615 72.3213 32.7929C72.225 32.7207 72.1407 32.6364 72.0685 32.5401C71.9962 32.4197 71.936 32.2993 71.8879 32.1789C71.8397 32.0586 71.7916 31.9382 71.7434 31.8178C71.7193 31.6733 71.6832 31.5409 71.6351 31.4205C71.5628 31.1797 71.5267 30.951 71.5267 30.7343V10.22C71.5267 10.0755 71.5267 9.93102 71.5267 9.78655C71.5508 9.61801 71.5749 9.47354 71.5989 9.35315C71.623 9.0883 71.7073 8.82344 71.8518 8.55858C71.924 8.26965 72.0444 8.06499 72.2129 7.9446C72.3574 7.80013 72.5741 7.67974 72.863 7.58343C73.176 7.46304 73.6215 7.41489 74.1993 7.43897C75.2828 7.46304 76.3543 7.47508 77.4137 7.47508C78.4732 7.47508 79.5326 7.49916 80.592 7.54731C81.2903 7.59547 82.0246 7.67974 82.7951 7.80013C83.5897 7.89644 84.3241 8.07703 84.9983 8.34188C85.4317 8.51043 85.8289 8.67897 86.1901 8.84752C86.6476 9.11238 87.0088 9.36519 87.2736 9.60597C88.1163 10.3765 88.7544 11.3035 89.1878 12.387C89.6212 13.4705 89.8379 14.566 89.8379 15.6736C89.8379 16.9738 89.5249 18.1656 88.8989 19.2491C88.2969 20.3326 87.3218 21.1393 85.9734 21.669C85.9252 21.7171 85.853 21.7532 85.7567 21.7773C85.6845 21.7773 85.6243 21.7894 85.5761 21.8134L88.8989 28.495L89.2239 29.0729C89.2721 29.1692 89.3323 29.2776 89.4045 29.398C89.4767 29.5183 89.5369 29.6387 89.5851 29.7591C89.6573 29.8795 89.7175 30.0119 89.7657 30.1564C89.8379 30.3009 89.9101 30.4333 89.9824 30.5537C90.0546 30.8908 90.1148 31.1677 90.1629 31.3844ZM81.1338 18.5268C81.5672 18.5268 81.9765 18.4546 82.3617 18.3101C82.7711 18.1416 83.1322 17.9249 83.4452 17.66C83.7823 17.3952 84.0592 17.0942 84.2759 16.7571C84.4926 16.3959 84.613 16.0107 84.6371 15.6014C84.7334 14.3975 84.4204 13.5066 83.698 12.9287C82.9757 12.3268 82.0246 12.0017 80.8448 11.9536C80.1466 11.9054 79.3761 11.8813 78.5334 11.8813C77.7147 11.8813 76.9322 11.8813 76.1858 11.8813C76.2098 12.8685 76.2098 13.8798 76.1858 14.9151C76.1858 15.9264 76.1858 17.1303 76.1858 18.5268H81.1338Z" fill="white"/>
<path d="M93.8791 16.6487C94.6737 16.2635 95.5044 15.9866 96.3712 15.8181C97.238 15.6495 98.0927 15.6134 98.9355 15.7097C99.8023 15.806 100.633 16.0348 101.428 16.3959C102.246 16.7571 102.993 17.2627 103.667 17.9128C104.221 18.4666 104.702 19.1408 105.111 19.9354C105.521 20.7059 105.822 21.4643 106.014 22.2107C106.424 23.535 106.484 24.8713 106.195 26.2197C105.906 27.568 105.412 28.8201 104.714 29.9758C104.377 30.5055 103.956 30.9871 103.45 31.4205C102.969 31.8298 102.451 32.1669 101.897 32.4318C101.175 32.7688 100.392 32.9976 99.5495 33.118C98.7067 33.2624 97.8881 33.2986 97.0935 33.2263C95.6488 33.1541 94.3727 32.7929 93.2651 32.1428C92.1816 31.4927 91.3028 30.662 90.6286 29.6508C89.9785 28.6395 89.5451 27.4958 89.3284 26.2197C89.1358 24.9195 89.2201 23.5952 89.5812 22.2468C89.9665 20.8022 90.5203 19.6344 91.2426 18.7435C91.989 17.8286 92.8679 17.1303 93.8791 16.6487ZM94.9626 21.4884C94.6015 21.8255 94.3246 22.2468 94.1319 22.7525C93.9393 23.2581 93.8189 23.7878 93.7708 24.3416C93.7226 24.8713 93.7587 25.4131 93.8791 25.9669C94.0236 26.4966 94.2403 26.9781 94.5292 27.4115C94.77 27.7727 95.2034 28.0737 95.8294 28.3144C96.4555 28.5552 97.1056 28.6997 97.7797 28.7479C98.5502 28.796 99.2244 28.5913 99.8023 28.1339C100.38 27.6523 100.814 27.0624 101.102 26.3641C101.415 25.6659 101.56 24.9074 101.536 24.0888C101.512 23.2701 101.295 22.5237 100.886 21.8495C100.597 21.368 100.188 21.0189 99.6578 20.8022C99.1522 20.5614 98.6104 20.441 98.0325 20.441C97.4788 20.4169 96.925 20.5012 96.3712 20.6938C95.8174 20.8624 95.3479 21.1272 94.9626 21.4884Z" fill="white"/>
<path d="M132.124 19.5704C132.822 20.0279 133.412 20.5697 133.894 21.1957C134.399 21.7976 134.797 22.5441 135.085 23.4349C135.398 24.4221 135.555 25.4214 135.555 26.4326C135.579 27.4198 135.398 28.3468 135.013 29.2136C134.652 30.0563 134.062 30.8028 133.244 31.4529C132.449 32.0789 131.402 32.5243 130.101 32.7892C129.403 32.9577 128.584 33.0901 127.645 33.1865C126.706 33.2828 125.864 33.3309 125.117 33.3309C124.178 33.355 123.203 33.355 122.192 33.3309C121.205 33.3309 120.241 33.2346 119.302 33.042C118.893 32.9216 118.592 32.7169 118.4 32.428C118.231 32.115 118.111 31.7659 118.038 31.3806C117.942 31.1639 117.894 30.9472 117.894 30.7305V10.2162C117.894 9.54202 118.026 9.02435 118.291 8.66318C118.58 8.27793 118.953 8.00104 119.411 7.8325C119.868 7.63987 120.386 7.53152 120.964 7.50744C121.542 7.45929 122.144 7.43521 122.77 7.43521C123.251 7.43521 123.733 7.43521 124.214 7.43521C124.72 7.41113 125.226 7.41113 125.731 7.43521C126.526 7.45929 127.344 7.53152 128.187 7.65191C129.054 7.74822 129.873 7.94084 130.643 8.22978C131.004 8.35017 131.39 8.51871 131.799 8.73541C132.208 8.92804 132.533 9.16881 132.774 9.45775C133.544 10.156 134.11 10.9747 134.471 11.9137C134.857 12.8286 135.025 13.7677 134.977 14.7308C134.929 15.6698 134.664 16.5727 134.183 17.4396C133.725 18.3064 133.039 19.0166 132.124 19.5704ZM125.803 29.1414C126.55 29.0932 127.308 29.009 128.079 28.8886C128.849 28.7682 129.379 28.5394 129.668 28.2023C129.981 27.8171 130.198 27.3717 130.318 26.866C130.463 26.3363 130.499 25.8066 130.426 25.2769C130.378 24.7231 130.222 24.2054 129.957 23.7239C129.716 23.2182 129.391 22.8209 128.982 22.532C128.428 22.0986 127.79 21.8217 127.068 21.7013C126.345 21.5569 125.635 21.4846 124.937 21.4846C124.6 21.4846 124.287 21.4967 123.998 21.5207C123.733 21.5207 123.492 21.5569 123.275 21.6291C123.083 21.6773 122.938 21.7856 122.842 21.9541C122.746 22.1227 122.697 22.3755 122.697 22.7126C122.746 23.3386 122.746 23.9646 122.697 24.5907C122.649 25.2167 122.625 25.8186 122.625 26.3965C122.625 26.7336 122.613 27.1068 122.589 27.5161C122.589 27.9014 122.721 28.2264 122.986 28.4913C123.251 28.7561 123.636 28.9367 124.142 29.033C124.648 29.1293 125.202 29.1655 125.803 29.1414ZM126.526 11.8053C125.779 11.7813 125.153 11.7692 124.648 11.7692C124.166 11.7451 123.781 11.7813 123.492 11.8776C123.227 11.9498 123.035 12.1304 122.914 12.4193C122.818 12.6842 122.782 13.0935 122.806 13.6473C122.806 14.1048 122.794 14.5623 122.77 15.0197C122.77 15.4531 122.77 15.8865 122.77 16.3199C122.77 16.8015 122.926 17.1627 123.239 17.4034C123.552 17.6201 123.937 17.7526 124.395 17.8007C124.876 17.8489 125.37 17.8489 125.876 17.8007C126.405 17.7526 126.863 17.6924 127.248 17.6201C128.115 17.4757 128.777 17.1867 129.235 16.7533C129.716 16.2959 129.993 15.6337 130.065 14.7669C130.162 13.6834 129.873 12.937 129.198 12.5277C128.548 12.0943 127.657 11.8535 126.526 11.8053Z" fill="white"/>
<path d="M140.795 16.6487C141.59 16.2635 142.42 15.9866 143.287 15.8181C144.154 15.6495 145.009 15.6134 145.851 15.7097C146.718 15.806 147.549 16.0348 148.344 16.3959C149.162 16.7571 149.909 17.2627 150.583 17.9128C151.137 18.4666 151.618 19.1408 152.027 19.9354C152.437 20.7059 152.738 21.4643 152.93 22.2107C153.34 23.535 153.4 24.8713 153.111 26.2197C152.822 27.568 152.328 28.8201 151.63 29.9758C151.293 30.5055 150.872 30.9871 150.366 31.4205C149.885 31.8298 149.367 32.1669 148.813 32.4318C148.091 32.7688 147.308 32.9976 146.465 33.118C145.623 33.2624 144.804 33.2986 144.01 33.2263C142.565 33.1541 141.289 32.7929 140.181 32.1428C139.098 31.4927 138.219 30.662 137.545 29.6508C136.895 28.6395 136.461 27.4958 136.244 26.2197C136.052 24.9195 136.136 23.5952 136.497 22.2468C136.882 20.8022 137.436 19.6344 138.159 18.7435C138.905 17.8286 139.784 17.1303 140.795 16.6487ZM141.879 21.4884C141.517 21.8255 141.241 22.2468 141.048 22.7525C140.855 23.2581 140.735 23.7878 140.687 24.3416C140.639 24.8713 140.675 25.4131 140.795 25.9669C140.94 26.4966 141.156 26.9781 141.445 27.4115C141.686 27.7727 142.119 28.0737 142.745 28.3144C143.371 28.5552 144.022 28.6997 144.696 28.7479C145.466 28.796 146.14 28.5913 146.718 28.1339C147.296 27.6523 147.73 27.0624 148.018 26.3641C148.332 25.6659 148.476 24.9074 148.452 24.0888C148.428 23.2701 148.211 22.5237 147.802 21.8495C147.513 21.368 147.104 21.0189 146.574 20.8022C146.068 20.5614 145.526 20.441 144.949 20.441C144.395 20.4169 143.841 20.5012 143.287 20.6938C142.733 20.8624 142.264 21.1272 141.879 21.4884Z" fill="white"/>
<path d="M164.813 26.1513C165.078 26.4884 165.439 26.9218 165.897 27.4515C166.378 27.9571 166.824 28.4988 167.233 29.0767C167.667 29.6305 168.016 30.1843 168.281 30.7381C168.545 31.2919 168.618 31.7734 168.497 32.1828C168.305 32.8088 167.943 33.1699 167.414 33.2663C166.884 33.3626 166.33 33.2663 165.752 32.9773C165.343 32.7847 164.874 32.4476 164.344 31.9661C163.814 31.4845 163.296 30.9789 162.791 30.4492C162.309 29.9194 161.876 29.4258 161.491 28.9684C161.105 28.4868 160.841 28.1497 160.696 27.9571C160.696 27.933 160.684 27.921 160.66 27.921C160.66 27.921 160.66 27.9089 160.66 27.8849C160.491 28.0775 160.323 28.2942 160.154 28.535C159.986 28.7517 159.805 28.9684 159.613 29.1851C159.372 29.474 159.095 29.8231 158.782 30.2325C158.493 30.6177 158.168 31.0029 157.807 31.3882C157.47 31.7734 157.108 32.1346 156.723 32.4717C156.362 32.7847 156.001 33.0134 155.64 33.1579C155.158 33.3505 154.689 33.3144 154.231 33.0496C153.798 32.8088 153.521 32.4717 153.4 32.0383C153.256 31.5327 153.292 31.0029 153.509 30.4492C153.726 29.8954 154.014 29.3657 154.376 28.86C154.737 28.3303 155.122 27.8247 155.531 27.3431C155.965 26.8616 156.314 26.4402 156.579 26.079C156.844 25.7419 157.072 25.453 157.265 25.2122C157.482 24.9474 157.686 24.6946 157.879 24.4538C157.542 24.0926 157.181 23.6953 156.795 23.2619C156.41 22.8044 155.868 22.2145 155.17 21.4922C154.929 21.2273 154.665 20.9384 154.376 20.6254C154.087 20.2883 153.822 19.9392 153.581 19.578C153.34 19.2168 153.148 18.8436 153.003 18.4584C152.859 18.0731 152.823 17.6759 152.895 17.2665C152.967 16.9054 153.124 16.6164 153.364 16.3997C153.605 16.159 153.894 16.0025 154.231 15.9302C154.568 15.8339 154.917 15.8219 155.279 15.8941C155.64 15.9663 155.977 16.1108 156.29 16.3275C156.916 16.785 157.506 17.3508 158.06 18.025C158.613 18.6992 159.155 19.3372 159.685 19.9392C159.853 20.1559 160.01 20.3605 160.154 20.5532C160.323 20.7217 160.479 20.8903 160.624 21.0588C160.744 20.8662 160.889 20.6736 161.057 20.4809C161.25 20.2883 161.442 20.0596 161.635 19.7947C162.117 19.2168 162.598 18.6149 163.08 17.9889C163.585 17.3629 164.139 16.8211 164.741 16.3636C165.054 16.1228 165.379 15.9784 165.716 15.9302C166.077 15.858 166.415 15.87 166.728 15.9663C167.041 16.0386 167.317 16.183 167.558 16.3997C167.799 16.6164 167.956 16.8813 168.028 17.1943C168.124 17.5796 168.112 17.9648 167.992 18.35C167.895 18.7353 167.727 19.1085 167.486 19.4697C167.269 19.8308 167.017 20.18 166.728 20.517C166.463 20.8301 166.21 21.119 165.969 21.3838C165.415 21.9858 164.934 22.5275 164.524 23.0091C164.115 23.4907 163.73 23.9481 163.369 24.3815C163.585 24.6223 163.802 24.8872 164.019 25.1761C164.26 25.441 164.524 25.766 164.813 26.1513Z" fill="white"/>
</svg>
