<svg width="444" height="89" viewBox="0 0 444 89" fill="none" xmlns="http://www.w3.org/2000/svg">
<path d="M138.497 24.6841H157.889C162.399 24.6841 166.054 28.3397 166.054 32.8491V79.7977C166.054 84.3071 162.399 87.9627 157.889 87.9627H138.497V24.6841Z" fill="#FF6166"/>
<path d="M29.5568 24.7214H10.1649C5.65553 24.7214 1.99994 28.377 1.99994 32.8864V79.8351C1.99994 84.3445 5.65553 88.0001 10.1649 88.0001H29.5568V24.7214Z" fill="#FF6166"/>
<rect x="33.2812" y="14.4418" width="101.492" height="64.2471" rx="7.44894" fill="#FF6166"/>
<circle cx="65.5426" cy="46.9869" r="10.836" fill="#FF6166" stroke="white" stroke-width="5"/>
<circle cx="102.158" cy="46.9869" r="10.836" fill="#FF6166" stroke="white" stroke-width="5"/>
<path d="M300.433 3.9861C300.894 2.22685 302.483 1 304.302 1H307.671C310.292 1 312.205 3.47854 311.54 6.0139L290.824 85.0733C290.363 86.8326 288.774 88.0594 286.955 88.0594H283.586C280.965 88.0594 279.052 85.5809 279.717 83.0455L300.433 3.9861Z" fill="#FF6166"/>
<path d="M237.239 83.0186C237.303 83.6522 237.239 84.254 237.049 84.8242C236.923 85.2043 236.733 85.5211 236.479 85.7745C236.289 86.0279 236.036 86.2813 235.719 86.5347C235.149 86.9149 234.452 87.2633 233.628 87.5801C233.122 87.7068 232.615 87.8018 232.108 87.8652C231.664 87.9919 231.189 87.9919 230.682 87.8652C229.669 87.8018 228.782 87.4217 228.022 86.7248C226.945 85.8379 226.058 84.8559 225.361 83.7789C225.044 83.272 224.696 82.7019 224.315 82.0683C223.935 81.4348 223.587 80.7696 223.27 80.0727L212.722 60.0214C212.215 60.0214 211.708 60.0531 211.201 60.1164C210.694 60.1164 210.188 60.1481 209.681 60.2114C208.35 60.3382 207.083 60.3698 205.88 60.3065C204.739 60.2431 203.536 60.2431 202.268 60.3065H200.463V77.5069C200.463 78.0137 200.431 78.4889 200.368 78.9323C200.368 79.3758 200.368 79.851 200.368 80.3578C200.368 80.6746 200.336 81.0864 200.273 81.5932C200.273 82.1 200.241 82.5752 200.178 83.0186C200.051 83.7155 199.766 84.4441 199.323 85.2043C198.879 85.9012 198.277 86.5031 197.517 87.0099C196.187 87.8335 194.571 88.0552 192.67 87.6751C191.847 87.485 191.055 87.1683 190.295 86.7248C190.041 86.5347 189.82 86.313 189.629 86.0596C189.439 85.7428 189.281 85.4261 189.154 85.1093C189.028 84.7925 188.901 84.4758 188.774 84.159C188.711 83.7789 188.616 83.4304 188.489 83.1137C188.299 82.4801 188.204 81.8783 188.204 81.3081V27.3311C188.204 26.951 188.204 26.5708 188.204 26.1907C188.267 25.7472 188.331 25.3671 188.394 25.0504C188.457 24.3535 188.679 23.6566 189.059 22.9597C189.249 22.1995 189.566 21.661 190.01 21.3442C190.39 20.9641 190.96 20.6473 191.72 20.3939C192.544 20.0771 193.716 19.9504 195.236 20.0138C198.087 20.0771 200.906 20.1088 203.694 20.1088C206.481 20.1088 209.269 20.1722 212.057 20.2989C213.894 20.4256 215.826 20.6473 217.853 20.9641C219.944 21.2175 221.876 21.6926 223.65 22.3895C224.791 22.833 225.836 23.2765 226.786 23.7199C227.99 24.4168 228.94 25.082 229.637 25.7156C231.854 27.7429 233.533 30.182 234.674 33.0329C235.814 35.8838 236.384 38.7664 236.384 41.6806C236.384 45.1017 235.561 48.2377 233.913 51.0886C232.33 53.9395 229.764 56.0618 226.216 57.4556C226.089 57.5823 225.899 57.6773 225.646 57.7407C225.456 57.7407 225.297 57.7723 225.171 57.8357L233.913 75.4162L234.769 76.9367C234.895 77.1901 235.054 77.4752 235.244 77.792C235.434 78.1088 235.592 78.4255 235.719 78.7423C235.909 79.0591 236.067 79.4075 236.194 79.7876C236.384 80.1677 236.574 80.5162 236.764 80.8329C236.954 81.7199 237.113 82.4485 237.239 83.0186ZM213.482 49.188C214.622 49.188 215.699 48.9979 216.713 48.6178C217.79 48.1743 218.74 47.6041 219.564 46.9073C220.451 46.2104 221.179 45.4184 221.75 44.5315C222.32 43.5812 222.637 42.5676 222.7 41.4905C222.953 38.3229 222.13 35.9788 220.229 34.4583C218.329 32.8745 215.826 32.0192 212.722 31.8925C210.885 31.7658 208.857 31.7025 206.64 31.7025C204.486 31.7025 202.427 31.7025 200.463 31.7025C200.526 34.2999 200.526 36.9608 200.463 39.685C200.463 42.3458 200.463 45.5135 200.463 49.188H213.482Z" fill="#405C64"/>
<path d="M247.019 44.2464C249.109 43.2328 251.295 42.5042 253.576 42.0607C255.857 41.6173 258.106 41.5222 260.323 41.7756C262.604 42.029 264.789 42.6309 266.88 43.5812C269.034 44.5315 270.998 45.8619 272.772 47.5725C274.229 49.0296 275.496 50.8035 276.573 52.8941C277.65 54.9214 278.442 56.9171 278.949 58.881C280.026 62.3655 280.184 65.8816 279.424 69.4294C278.664 72.9771 277.365 76.2715 275.528 79.3125C274.641 80.7062 273.532 81.9733 272.202 83.1137C270.935 84.1907 269.573 85.0776 268.115 85.7745C266.215 86.6614 264.156 87.2633 261.939 87.5801C259.721 87.9602 257.567 88.0552 255.476 87.8652C251.675 87.6751 248.318 86.7248 245.403 85.0143C242.552 83.3037 240.24 81.118 238.466 78.4572C236.756 75.7964 235.615 72.7871 235.045 69.4294C234.538 66.0083 234.76 62.5238 235.71 58.9761C236.724 55.1749 238.181 52.1022 240.082 49.7582C242.046 47.3507 244.358 45.5135 247.019 44.2464ZM249.87 56.9804C248.919 57.8674 248.191 58.9761 247.684 60.3065C247.177 61.6369 246.86 63.0307 246.734 64.4878C246.607 65.8816 246.702 67.307 247.019 68.7641C247.399 70.1579 247.969 71.425 248.729 72.5653C249.363 73.5156 250.503 74.3076 252.15 74.9411C253.798 75.5746 255.508 75.9547 257.282 76.0814C259.309 76.2082 261.083 75.6697 262.604 74.4659C264.124 73.1989 265.265 71.6467 266.025 69.8095C266.848 67.9722 267.229 65.9766 267.165 63.8226C267.102 61.6686 266.532 59.7046 265.455 57.9307C264.694 56.6637 263.617 55.745 262.224 55.1749C260.893 54.5413 259.468 54.2246 257.947 54.2246C256.49 54.1612 255.033 54.3829 253.576 54.8898C252.119 55.3332 250.883 56.0301 249.87 56.9804Z" fill="#405C64"/>
<path d="M347.646 51.9339C349.483 53.1377 351.035 54.5631 352.302 56.2103C353.633 57.7941 354.678 59.7581 355.438 62.1022C356.262 64.6996 356.674 67.3288 356.674 69.9896C356.737 72.5871 356.262 75.0262 355.248 77.3069C354.298 79.5243 352.746 81.4883 350.592 83.1988C348.501 84.846 345.745 86.018 342.324 86.7149C340.487 87.1584 338.333 87.5068 335.862 87.7602C333.391 88.0137 331.174 88.1404 329.21 88.1404C326.739 88.2037 324.173 88.2037 321.513 88.1404C318.915 88.1404 316.381 87.8869 313.91 87.3801C312.833 87.0634 312.041 86.5249 311.534 85.7646C311.091 84.941 310.774 84.0224 310.584 83.0087C310.331 82.4386 310.204 81.8684 310.204 81.2982V27.3212C310.204 25.5473 310.552 24.1852 311.249 23.2349C312.01 22.2213 312.992 21.4927 314.195 21.0492C315.399 20.5424 316.761 20.2573 318.282 20.1939C319.802 20.0672 321.386 20.0039 323.033 20.0039C324.3 20.0039 325.567 20.0039 326.834 20.0039C328.165 19.9405 329.495 19.9405 330.826 20.0039C332.916 20.0672 335.07 20.2573 337.288 20.5741C339.568 20.8275 341.722 21.3343 343.75 22.0945C344.7 22.4113 345.714 22.8548 346.791 23.425C347.868 23.9318 348.723 24.5653 349.356 25.3256C351.384 27.1628 352.872 29.3168 353.823 31.7876C354.836 34.195 355.28 36.6658 355.153 39.1999C355.026 41.6707 354.33 44.0465 353.063 46.3272C351.859 48.6079 350.053 50.4768 347.646 51.9339ZM331.016 77.1169C332.98 76.9902 334.975 76.7684 337.002 76.4517C339.03 76.1349 340.424 75.5331 341.184 74.6461C342.007 73.6325 342.578 72.4604 342.894 71.13C343.274 69.7362 343.369 68.3425 343.179 66.9487C343.053 65.4916 342.641 64.1295 341.944 62.8624C341.311 61.532 340.455 60.4866 339.378 59.7264C337.921 58.586 336.242 57.8575 334.342 57.5407C332.441 57.1606 330.572 56.9705 328.735 56.9705C327.848 56.9705 327.024 57.0022 326.264 57.0656C325.567 57.0656 324.934 57.1606 324.363 57.3507C323.857 57.4774 323.477 57.7625 323.223 58.2059C322.97 58.6494 322.843 59.3146 322.843 60.2016C322.97 61.8487 322.97 63.4959 322.843 65.1431C322.716 66.7903 322.653 68.3741 322.653 69.8946C322.653 70.7816 322.621 71.7635 322.558 72.8405C322.558 73.8542 322.906 74.7095 323.603 75.4063C324.3 76.1032 325.314 76.5784 326.644 76.8318C327.975 77.0852 329.432 77.1802 331.016 77.1169ZM332.916 31.5025C330.952 31.4392 329.305 31.4075 327.975 31.4075C326.708 31.3441 325.694 31.4392 324.934 31.6926C324.237 31.8826 323.73 32.3578 323.413 33.118C323.16 33.8149 323.065 34.8919 323.128 36.349C323.128 37.5528 323.096 38.7565 323.033 39.9602C323.033 41.1005 323.033 42.2409 323.033 43.3813C323.033 44.6483 323.445 45.5986 324.268 46.2322C325.092 46.8023 326.106 47.1508 327.309 47.2775C328.576 47.4042 329.875 47.4042 331.206 47.2775C332.599 47.1508 333.803 46.9924 334.817 46.8023C337.098 46.4222 338.84 45.662 340.043 44.5216C341.31 43.3179 342.039 41.5757 342.229 39.295C342.483 36.4441 341.722 34.4801 339.948 33.4031C338.238 32.2628 335.894 31.6292 332.916 31.5025Z" fill="#405C64"/>
<path d="M370.463 44.2464C372.554 43.2328 374.739 42.5042 377.02 42.0607C379.301 41.6173 381.55 41.5222 383.767 41.7756C386.048 42.029 388.233 42.6309 390.324 43.5812C392.478 44.5315 394.442 45.8619 396.216 47.5725C397.673 49.0296 398.94 50.8035 400.017 52.8941C401.094 54.9214 401.886 56.9171 402.393 58.881C403.47 62.3655 403.628 65.8816 402.868 69.4294C402.108 72.9771 400.809 76.2715 398.972 79.3125C398.085 80.7062 396.976 81.9733 395.646 83.1137C394.379 84.1907 393.017 85.0776 391.56 85.7745C389.659 86.6614 387.6 87.2633 385.383 87.5801C383.165 87.9602 381.011 88.0552 378.921 87.8652C375.119 87.6751 371.762 86.7248 368.847 85.0143C365.996 83.3037 363.684 81.118 361.91 78.4572C360.2 75.7964 359.059 72.7871 358.489 69.4294C357.982 66.0083 358.204 62.5238 359.154 58.9761C360.168 55.1749 361.625 52.1022 363.526 49.7582C365.49 47.3507 367.802 45.5135 370.463 44.2464ZM373.314 56.9804C372.363 57.8674 371.635 58.9761 371.128 60.3065C370.621 61.6369 370.305 63.0307 370.178 64.4878C370.051 65.8816 370.146 67.307 370.463 68.7641C370.843 70.1579 371.413 71.425 372.173 72.5653C372.807 73.5156 373.947 74.3076 375.595 74.9411C377.242 75.5746 378.952 75.9547 380.726 76.0814C382.753 76.2082 384.527 75.6697 386.048 74.4659C387.568 73.1989 388.709 71.6467 389.469 69.8095C390.292 67.9722 390.673 65.9766 390.609 63.8226C390.546 61.6686 389.976 59.7046 388.899 57.9307C388.138 56.6637 387.061 55.745 385.668 55.1749C384.337 54.5413 382.912 54.2246 381.391 54.2246C379.934 54.1612 378.477 54.3829 377.02 54.8898C375.563 55.3332 374.327 56.0301 373.314 56.9804Z" fill="#405C64"/>
<path d="M433.659 69.2493C434.356 70.1363 435.306 71.2766 436.51 72.6704C437.777 74.0008 438.949 75.4263 440.026 76.9467C441.166 78.4039 442.085 79.861 442.782 81.3181C443.479 82.7752 443.669 84.0423 443.352 85.1193C442.845 86.7665 441.895 87.7168 440.501 87.9702C439.107 88.2236 437.65 87.9702 436.13 87.21C435.053 86.7031 433.817 85.8162 432.424 84.5491C431.03 83.2821 429.668 81.9516 428.337 80.5579C427.07 79.1641 425.93 77.8654 424.916 76.6616C423.903 75.3946 423.206 74.5076 422.826 74.0008C422.826 73.9374 422.794 73.9058 422.73 73.9058C422.73 73.9058 422.73 73.8741 422.73 73.8107C422.287 74.3176 421.844 74.8877 421.4 75.5213C420.957 76.0915 420.481 76.6616 419.975 77.2318C419.341 77.9921 418.613 78.9107 417.789 79.9877C417.029 81.0013 416.173 82.015 415.223 83.0286C414.336 84.0423 413.386 84.9926 412.372 85.8795C411.422 86.7031 410.472 87.305 409.521 87.6851C408.254 88.1919 407.019 88.0969 405.815 87.4C404.675 86.7665 403.946 85.8795 403.629 84.7392C403.249 83.4088 403.344 82.015 403.915 80.5579C404.485 79.1007 405.245 77.707 406.195 76.3766C407.146 74.9828 408.159 73.6524 409.236 72.3853C410.377 71.1182 411.295 70.0095 411.992 69.0592C412.689 68.1723 413.291 67.4121 413.798 66.7785C414.368 66.0816 414.906 65.4164 415.413 64.7829C414.526 63.8326 413.576 62.7873 412.562 61.6469C411.549 60.4432 410.123 58.891 408.286 56.9904C407.652 56.2936 406.956 55.5333 406.195 54.7097C405.435 53.8228 404.738 52.9042 404.105 51.9539C403.471 51.0036 402.964 50.0216 402.584 49.0079C402.204 47.9943 402.109 46.9489 402.299 45.8719C402.489 44.9216 402.901 44.1614 403.534 43.5912C404.168 42.9577 404.928 42.5459 405.815 42.3558C406.702 42.1024 407.621 42.0707 408.571 42.2608C409.521 42.4509 410.408 42.831 411.232 43.4012C412.879 44.6049 414.431 46.0937 415.888 47.8676C417.345 49.6415 418.771 51.3203 420.165 52.9042C420.608 53.4743 421.02 54.0128 421.4 54.5197C421.844 54.9631 422.255 55.4066 422.635 55.8501C422.952 55.3433 423.332 54.8364 423.776 54.3296C424.283 53.8228 424.789 53.2209 425.296 52.524C426.563 51.0036 427.83 49.4197 429.098 47.7725C430.428 46.1253 431.885 44.6999 433.469 43.4962C434.292 42.8627 435.148 42.4825 436.035 42.3558C436.985 42.1658 437.872 42.1974 438.696 42.4509C439.519 42.6409 440.248 43.021 440.881 43.5912C441.515 44.1614 441.927 44.8583 442.117 45.6819C442.37 46.6955 442.338 47.7092 442.022 48.7228C441.768 49.7365 441.325 50.7185 440.691 51.6688C440.121 52.6191 439.456 53.5377 438.696 54.4246C437.999 55.2482 437.333 56.0085 436.7 56.7054C435.243 58.2892 433.976 59.7146 432.899 60.9817C431.822 62.2488 430.808 63.4525 429.858 64.5928C430.428 65.2264 430.998 65.9233 431.568 66.6835C432.202 67.3804 432.899 68.2357 433.659 69.2493Z" fill="#405C64"/>
</svg>
