<svg width="444" height="89" viewBox="0 0 444 89" fill="none" xmlns="http://www.w3.org/2000/svg">
<path d="M138.498 24.6841H157.889C162.399 24.6841 166.054 28.3397 166.054 32.8491V79.7977C166.054 84.3071 162.399 87.9627 157.889 87.9627H138.498V24.6841Z" fill="#FF6166"/>
<path d="M29.5568 24.7214H10.1649C5.65553 24.7214 1.99994 28.377 1.99994 32.8864V79.8351C1.99994 84.3445 5.65553 88.0001 10.1649 88.0001H29.5568V24.7214Z" fill="#FF6166"/>
<rect x="33.2812" y="14.4418" width="101.492" height="64.2471" rx="7.44894" fill="#FF6166"/>
<circle cx="65.5426" cy="46.9869" r="10.836" fill="#FF6166" stroke="white" stroke-width="5"/>
<circle cx="102.158" cy="46.9869" r="10.836" fill="#FF6166" stroke="white" stroke-width="5"/>
<path d="M300.433 3.9861C300.894 2.22685 302.483 1 304.302 1H307.671C310.292 1 312.205 3.47854 311.54 6.0139L290.824 85.0733C290.363 86.8326 288.774 88.0594 286.955 88.0594H283.586C280.965 88.0594 279.052 85.5809 279.717 83.0455L300.433 3.9861Z" fill="#FF6166"/>
<path d="M237.239 83.0187C237.303 83.6522 237.239 84.2541 237.049 84.8243C236.923 85.2044 236.733 85.5211 236.479 85.7746C236.289 86.028 236.036 86.2814 235.719 86.5348C235.149 86.9149 234.452 87.2634 233.628 87.5801C233.122 87.7068 232.615 87.8019 232.108 87.8652C231.664 87.9919 231.189 87.9919 230.682 87.8652C229.669 87.8019 228.782 87.4217 228.022 86.7249C226.945 85.8379 226.058 84.8559 225.361 83.7789C225.044 83.2721 224.696 82.7019 224.315 82.0684C223.935 81.4349 223.587 80.7696 223.27 80.0728L212.722 60.0214C212.215 60.0214 211.708 60.0531 211.201 60.1165C210.694 60.1165 210.188 60.1481 209.681 60.2115C208.35 60.3382 207.083 60.3699 205.88 60.3065C204.739 60.2432 203.536 60.2432 202.268 60.3065H200.463V77.5069C200.463 78.0138 200.431 78.4889 200.368 78.9324C200.368 79.3759 200.368 79.851 200.368 80.3578C200.368 80.6746 200.336 81.0864 200.273 81.5932C200.273 82.1001 200.241 82.5752 200.178 83.0187C200.051 83.7156 199.766 84.4441 199.323 85.2044C198.879 85.9013 198.277 86.5031 197.517 87.0099C196.187 87.8335 194.571 88.0553 192.67 87.6752C191.847 87.4851 191.055 87.1683 190.295 86.7249C190.041 86.5348 189.82 86.3131 189.629 86.0596C189.439 85.7429 189.281 85.4261 189.154 85.1093C189.028 84.7926 188.901 84.4758 188.774 84.159C188.711 83.7789 188.616 83.4305 188.489 83.1137C188.299 82.4802 188.204 81.8783 188.204 81.3081V27.3311C188.204 26.951 188.204 26.5709 188.204 26.1908C188.267 25.7473 188.331 25.3672 188.394 25.0504C188.457 24.3535 188.679 23.6566 189.059 22.9598C189.249 22.1995 189.566 21.661 190.01 21.3442C190.39 20.9641 190.96 20.6474 191.72 20.3939C192.544 20.0772 193.716 19.9505 195.236 20.0138C198.087 20.0772 200.906 20.1089 203.694 20.1089C206.481 20.1089 209.269 20.1722 212.057 20.2989C213.894 20.4256 215.826 20.6474 217.853 20.9641C219.944 21.2175 221.876 21.6927 223.65 22.3896C224.791 22.833 225.836 23.2765 226.786 23.72C227.99 24.4169 228.94 25.0821 229.637 25.7156C231.854 27.7429 233.533 30.182 234.674 33.0329C235.814 35.8838 236.384 38.7664 236.384 41.6807C236.384 45.1017 235.561 48.2377 233.913 51.0886C232.33 53.9395 229.764 56.0619 226.216 57.4556C226.089 57.5823 225.899 57.6774 225.646 57.7407C225.456 57.7407 225.297 57.7724 225.171 57.8357L233.913 75.4163L234.769 76.9368C234.895 77.1902 235.054 77.4753 235.244 77.792C235.434 78.1088 235.592 78.4256 235.719 78.7423C235.909 79.0591 236.067 79.4075 236.194 79.7877C236.384 80.1678 236.574 80.5162 236.764 80.833C236.954 81.7199 237.113 82.4485 237.239 83.0187ZM213.482 49.188C214.622 49.188 215.699 48.998 216.713 48.6178C217.79 48.1744 218.74 47.6042 219.564 46.9073C220.451 46.2104 221.179 45.4185 221.75 44.5316C222.32 43.5813 222.637 42.5676 222.7 41.4906C222.953 38.3229 222.13 35.9789 220.229 34.4584C218.329 32.8745 215.826 32.0193 212.722 31.8926C210.885 31.7659 208.857 31.7025 206.64 31.7025C204.486 31.7025 202.427 31.7025 200.463 31.7025C200.526 34.3 200.526 36.9608 200.463 39.685C200.463 42.3459 200.463 45.5135 200.463 49.188H213.482Z" fill="#F8F8F8"/>
<path d="M247.019 44.2465C249.109 43.2329 251.295 42.5043 253.576 42.0608C255.857 41.6174 258.106 41.5223 260.323 41.7757C262.604 42.0291 264.789 42.631 266.88 43.5813C269.034 44.5316 270.998 45.862 272.772 47.5726C274.229 49.0297 275.496 50.8036 276.573 52.8942C277.65 54.9215 278.442 56.9172 278.949 58.8811C280.026 62.3656 280.184 65.8817 279.424 69.4294C278.664 72.9772 277.365 76.2716 275.528 79.3126C274.641 80.7063 273.532 81.9734 272.202 83.1138C270.935 84.1908 269.573 85.0777 268.115 85.7746C266.215 86.6615 264.156 87.2634 261.939 87.5802C259.721 87.9603 257.567 88.0553 255.476 87.8653C251.675 87.6752 248.318 86.7249 245.403 85.0144C242.552 83.3038 240.24 81.1181 238.466 78.4573C236.756 75.7965 235.615 72.7872 235.045 69.4294C234.538 66.0084 234.76 62.5239 235.71 58.9762C236.724 55.175 238.181 52.1023 240.082 49.7582C242.046 47.3508 244.358 45.5136 247.019 44.2465ZM249.87 56.9805C248.919 57.8675 248.191 58.9762 247.684 60.3066C247.177 61.637 246.86 63.0308 246.734 64.4879C246.607 65.8817 246.702 67.3071 247.019 68.7642C247.399 70.158 247.969 71.4251 248.729 72.5654C249.363 73.5157 250.503 74.3077 252.15 74.9412C253.798 75.5747 255.508 75.9548 257.282 76.0815C259.309 76.2083 261.083 75.6698 262.604 74.466C264.124 73.199 265.265 71.6468 266.025 69.8096C266.848 67.9723 267.229 65.9767 267.165 63.8227C267.102 61.6687 266.532 59.7047 265.455 57.9308C264.694 56.6638 263.617 55.7451 262.224 55.175C260.893 54.5414 259.468 54.2247 257.947 54.2247C256.49 54.1613 255.033 54.383 253.576 54.8899C252.119 55.3333 250.883 56.0302 249.87 56.9805Z" fill="#F8F8F8"/>
<path d="M347.646 51.934C349.483 53.1377 351.035 54.5632 352.302 56.2103C353.633 57.7942 354.678 59.7581 355.438 62.1022C356.262 64.6997 356.674 67.3288 356.674 69.9897C356.737 72.5872 356.262 75.0263 355.248 77.307C354.298 79.5244 352.746 81.4883 350.592 83.1989C348.501 84.846 345.745 86.0181 342.324 86.715C340.487 87.1584 338.333 87.5069 335.862 87.7603C333.391 88.0137 331.174 88.1404 329.21 88.1404C326.739 88.2038 324.173 88.2038 321.513 88.1404C318.915 88.1404 316.381 87.887 313.91 87.3802C312.833 87.0634 312.041 86.5249 311.534 85.7647C311.091 84.9411 310.774 84.0224 310.584 83.0088C310.331 82.4386 310.204 81.8684 310.204 81.2983V27.3212C310.204 25.5473 310.552 24.1853 311.249 23.235C312.01 22.2213 312.992 21.4927 314.195 21.0493C315.399 20.5424 316.761 20.2573 318.282 20.194C319.802 20.0673 321.386 20.0039 323.033 20.0039C324.3 20.0039 325.567 20.0039 326.834 20.0039C328.165 19.9406 329.495 19.9406 330.826 20.0039C332.916 20.0673 335.07 20.2573 337.288 20.5741C339.568 20.8275 341.722 21.3344 343.75 22.0946C344.7 22.4114 345.714 22.8548 346.791 23.425C347.868 23.9318 348.723 24.5654 349.356 25.3256C351.384 27.1629 352.872 29.3169 353.823 31.7876C354.836 34.1951 355.28 36.6659 355.153 39.2C355.026 41.6708 354.33 44.0465 353.063 46.3272C351.859 48.6079 350.053 50.4769 347.646 51.934ZM331.016 77.1169C332.98 76.9902 334.975 76.7685 337.002 76.4517C339.03 76.135 340.424 75.5331 341.184 74.6462C342.007 73.6325 342.578 72.4605 342.894 71.13C343.274 69.7363 343.369 68.3425 343.179 66.9487C343.053 65.4916 342.641 64.1295 341.944 62.8624C341.311 61.532 340.455 60.4867 339.378 59.7265C337.921 58.5861 336.242 57.8575 334.342 57.5408C332.441 57.1606 330.572 56.9706 328.735 56.9706C327.848 56.9706 327.024 57.0023 326.264 57.0656C325.567 57.0656 324.934 57.1606 324.363 57.3507C323.857 57.4774 323.477 57.7625 323.223 58.206C322.97 58.6494 322.843 59.3147 322.843 60.2016C322.97 61.8488 322.97 63.496 322.843 65.1432C322.716 66.7903 322.653 68.3742 322.653 69.8947C322.653 70.7816 322.621 71.7636 322.558 72.8406C322.558 73.8542 322.906 74.7095 323.603 75.4064C324.3 76.1033 325.314 76.5784 326.644 76.8318C327.975 77.0853 329.432 77.1803 331.016 77.1169ZM332.916 31.5026C330.952 31.4392 329.305 31.4075 327.975 31.4075C326.708 31.3442 325.694 31.4392 324.934 31.6926C324.237 31.8827 323.73 32.3578 323.413 33.1181C323.16 33.815 323.065 34.892 323.128 36.3491C323.128 37.5528 323.096 38.7565 323.033 39.9602C323.033 41.1006 323.033 42.2409 323.033 43.3813C323.033 44.6484 323.445 45.5987 324.268 46.2322C325.092 46.8024 326.106 47.1508 327.309 47.2775C328.576 47.4042 329.875 47.4042 331.206 47.2775C332.599 47.1508 333.803 46.9924 334.817 46.8024C337.098 46.4223 338.84 45.662 340.043 44.5217C341.31 43.3179 342.039 41.5757 342.229 39.295C342.483 36.4441 341.722 34.4802 339.948 33.4032C338.238 32.2628 335.894 31.6293 332.916 31.5026Z" fill="#F8F8F8"/>
<path d="M370.463 44.2465C372.554 43.2329 374.739 42.5043 377.02 42.0608C379.301 41.6174 381.55 41.5223 383.767 41.7757C386.048 42.0291 388.233 42.631 390.324 43.5813C392.478 44.5316 394.442 45.862 396.216 47.5726C397.673 49.0297 398.94 50.8036 400.017 52.8942C401.094 54.9215 401.886 56.9172 402.393 58.8811C403.47 62.3656 403.628 65.8817 402.868 69.4294C402.108 72.9772 400.809 76.2716 398.972 79.3126C398.085 80.7063 396.976 81.9734 395.646 83.1138C394.379 84.1908 393.017 85.0777 391.56 85.7746C389.659 86.6615 387.6 87.2634 385.383 87.5802C383.165 87.9603 381.011 88.0553 378.921 87.8653C375.119 87.6752 371.762 86.7249 368.847 85.0144C365.996 83.3038 363.684 81.1181 361.91 78.4573C360.2 75.7965 359.059 72.7872 358.489 69.4294C357.982 66.0084 358.204 62.5239 359.154 58.9762C360.168 55.175 361.625 52.1023 363.526 49.7582C365.49 47.3508 367.802 45.5136 370.463 44.2465ZM373.314 56.9805C372.363 57.8675 371.635 58.9762 371.128 60.3066C370.621 61.637 370.305 63.0308 370.178 64.4879C370.051 65.8817 370.146 67.3071 370.463 68.7642C370.843 70.158 371.413 71.4251 372.173 72.5654C372.807 73.5157 373.947 74.3077 375.595 74.9412C377.242 75.5747 378.952 75.9548 380.726 76.0815C382.753 76.2083 384.527 75.6698 386.048 74.466C387.568 73.199 388.709 71.6468 389.469 69.8096C390.292 67.9723 390.673 65.9767 390.609 63.8227C390.546 61.6687 389.976 59.7047 388.899 57.9308C388.138 56.6638 387.061 55.7451 385.668 55.175C384.337 54.5414 382.912 54.2247 381.391 54.2247C379.934 54.1613 378.477 54.383 377.02 54.8899C375.563 55.3333 374.327 56.0302 373.314 56.9805Z" fill="#F8F8F8"/>
<path d="M433.659 69.2493C434.356 70.1363 435.306 71.2766 436.51 72.6704C437.777 74.0008 438.949 75.4263 440.026 76.9468C441.166 78.4039 442.085 79.861 442.782 81.3181C443.479 82.7753 443.669 84.0423 443.352 85.1193C442.845 86.7665 441.895 87.7168 440.501 87.9702C439.107 88.2236 437.65 87.9702 436.13 87.21C435.053 86.7032 433.817 85.8162 432.424 84.5492C431.03 83.2821 429.668 81.9517 428.337 80.5579C427.07 79.1641 425.93 77.8654 424.916 76.6617C423.903 75.3946 423.206 74.5077 422.826 74.0008C422.826 73.9375 422.794 73.9058 422.73 73.9058C422.73 73.9058 422.73 73.8741 422.73 73.8108C422.287 74.3176 421.844 74.8878 421.4 75.5213C420.957 76.0915 420.481 76.6617 419.975 77.2318C419.341 77.9921 418.613 78.9107 417.789 79.9877C417.029 81.0014 416.173 82.015 415.223 83.0287C414.336 84.0423 413.386 84.9926 412.372 85.8796C411.422 86.7032 410.472 87.305 409.521 87.6851C408.254 88.192 407.019 88.0969 405.815 87.4001C404.675 86.7665 403.946 85.8796 403.629 84.7392C403.249 83.4088 403.344 82.015 403.915 80.5579C404.485 79.1008 405.245 77.707 406.195 76.3766C407.146 74.9828 408.159 73.6524 409.236 72.3853C410.377 71.1183 411.295 70.0096 411.992 69.0593C412.689 68.1723 413.291 67.4121 413.798 66.7786C414.368 66.0817 414.906 65.4165 415.413 64.7829C414.526 63.8326 413.576 62.7873 412.562 61.6469C411.549 60.4432 410.123 58.8911 408.286 56.9905C407.652 56.2936 406.956 55.5333 406.195 54.7097C405.435 53.8228 404.738 52.9042 404.105 51.9539C403.471 51.0036 402.964 50.0216 402.584 49.008C402.204 47.9943 402.109 46.949 402.299 45.872C402.489 44.9217 402.901 44.1614 403.534 43.5912C404.168 42.9577 404.928 42.5459 405.815 42.3559C406.702 42.1024 407.621 42.0708 408.571 42.2608C409.521 42.4509 410.408 42.831 411.232 43.4012C412.879 44.6049 414.431 46.0937 415.888 47.8676C417.345 49.6415 418.771 51.3203 420.165 52.9042C420.608 53.4744 421.02 54.0129 421.4 54.5197C421.844 54.9632 422.255 55.4066 422.635 55.8501C422.952 55.3433 423.332 54.8365 423.776 54.3296C424.283 53.8228 424.789 53.2209 425.296 52.5241C426.563 51.0036 427.83 49.4197 429.098 47.7726C430.428 46.1254 431.885 44.6999 433.469 43.4962C434.292 42.8627 435.148 42.4826 436.035 42.3559C436.985 42.1658 437.872 42.1975 438.696 42.4509C439.519 42.6409 440.248 43.0211 440.881 43.5912C441.515 44.1614 441.927 44.8583 442.117 45.6819C442.37 46.6956 442.338 47.7092 442.022 48.7229C441.768 49.7365 441.325 50.7185 440.691 51.6688C440.121 52.6191 439.456 53.5377 438.696 54.4247C437.999 55.2483 437.333 56.0085 436.7 56.7054C435.243 58.2892 433.976 59.7147 432.899 60.9817C431.822 62.2488 430.808 63.4525 429.858 64.5929C430.428 65.2264 430.998 65.9233 431.568 66.6835C432.202 67.3804 432.899 68.2357 433.659 69.2493Z" fill="#F8F8F8"/>
</svg>
