<svg width="249" height="249" viewBox="0 0 249 249" fill="none" xmlns="http://www.w3.org/2000/svg">
<path d="M51.6222 13.6109C53.3404 7.19851 59.9315 3.39309 66.3439 5.11129L239.924 51.6219C246.336 53.3401 250.142 59.9313 248.424 66.3437L201.913 239.924C200.195 246.336 193.604 250.142 187.191 248.423L13.6112 201.913C7.19876 200.195 3.39334 193.603 5.11154 187.191L51.6222 13.6109Z" fill="#26363B"/>
<path d="M47.6224 9.61093C49.3406 3.19851 55.9318 -0.606907 62.3442 1.11129L235.924 47.6219C242.337 49.3401 246.142 55.9313 244.424 62.3437L197.913 235.924C196.195 242.336 189.604 246.142 183.191 244.423L9.61142 197.913C3.199 196.195 -0.606418 189.603 1.11178 183.191L47.6224 9.61093Z" fill="#90CC31"/>
</svg>
