<?xml version="1.0" encoding="UTF-8"?>
<svg id="Layer_2" xmlns="http://www.w3.org/2000/svg" width="168.4" height="168.4" version="1.1" viewBox="0 0 168.4 168.4">
  <!-- Generator: Adobe Illustrator 29.5.1, SVG Export Plug-In . SVG Version: 2.1.0 Build 141)  -->
  <defs>
    <style>
      .st0 {
        fill: #faca45;
      }

      .st1 {
        fill: #2d4956;
      }

      .st2 {
        fill: #f0c446;
      }

      .st3 {
        fill: #368ec8;
      }

      .st4 {
        fill: #edc247;
      }

      .st5 {
        fill: #ffce49;
      }

      .st6 {
        fill: #f16368;
      }

      .st7 {
        fill: #2888c5;
      }

      .st8 {
        fill: #fcfcfc;
      }

      .st9 {
        fill: #ef6267;
      }

      .st10 {
        fill: #cea54c;
      }

      .st11 {
        fill: #2988c5;
      }

      .st12 {
        fill: #eb6167;
      }

      .st13 {
        fill: #f8fafd;
      }

      .st14 {
        fill: #f5f8fa;
      }

      .st15 {
        fill: #2e4f54;
      }

      .st16 {
        fill: #649342;
      }

      .st17 {
        fill: #2f4a54;
      }

      .st18 {
        fill: #294855;
      }

      .st19 {
        fill: #2c4955;
      }

      .st20 {
        fill: #efc646;
      }

      .st21 {
        fill: #ee6167;
      }

      .st22 {
        fill: #348bc7;
      }

      .st23 {
        fill: #ffcd45;
      }

      .st24 {
        fill: #446064;
      }

      .st25 {
        fill: #3f5b64;
      }

      .st26 {
        fill: #2e4a54;
      }

      .st27 {
        fill: #f0c646;
      }

      .st28 {
        fill: #f16267;
      }

      .st29 {
        fill: #d6b749;
      }

      .st30 {
        fill: #f0bf49;
      }

      .st31 {
        fill: #2987c3;
      }

      .st32 {
        fill: #f8c945;
      }

      .st33 {
        fill: #2c4956;
      }

      .st34 {
        fill: #3c90c9;
      }

      .st35 {
        fill: #ebc146;
      }

      .st36 {
        fill: #3f5d67;
      }

      .st37 {
        fill: #f5cb44;
      }

      .st38 {
        fill: #f6c846;
      }

      .st39 {
        fill: #f3cb43;
      }

      .st40 {
        fill: #92c83e;
      }

      .st41 {
        fill: #2987c4;
      }

      .st42 {
        fill: #2a87c1;
      }

      .st43 {
        fill: #c2a650;
      }

      .st44 {
        fill: #93c83f;
      }

      .st45 {
        fill: #2d4954;
      }

      .st46 {
        fill: #2985bf;
      }

      .st47 {
        fill: #cb5c63;
      }

      .st48 {
        fill: #415d65;
      }

      .st49 {
        fill: #ed6167;
      }

      .st50 {
        fill: #f9ca45;
      }

      .st51 {
        fill: #2b4955;
      }

      .st52 {
        fill: #fafcfd;
      }

      .st53 {
        fill: #f5c746;
      }

      .st54 {
        fill: #fefeff;
      }

      .st55 {
        fill: #f9fbfd;
      }

      .st56 {
        fill: #2b4956;
      }

      .st57 {
        fill: #9bb93f;
      }

      .st58 {
        fill: #378ec8;
      }

      .st59 {
        fill: #f06267;
      }

      .st60 {
        fill: #2b4855;
      }

      .st61 {
        fill: #92c63e;
      }

      .st62 {
        fill: #ed6267;
      }

      .st63 {
        fill: #348dc8;
      }

      .st64 {
        fill: #f6c248;
      }

      .st65 {
        fill: #f9ca46;
      }

      .st66 {
        fill: #f3f7fb;
      }

      .st67 {
        fill: #3e5a63;
      }

      .st68 {
        fill: #c7ae4b;
      }

      .st69 {
        fill: #3f5b63;
      }

      .st70 {
        fill: #fcfdfe;
      }

      .st71 {
        fill: #2989c5;
      }

      .st72 {
        fill: #395054;
      }

      .st73 {
        fill: #edc346;
      }

      .st74 {
        fill: #f8cc44;
      }

      .st75 {
        fill: #fdfefe;
      }

      .st76 {
        fill: #a8595f;
      }

      .st77 {
        fill: #fcfdfd;
      }

      .st78 {
        fill: #f6c746;
      }

      .st79 {
        fill: #ebba4b;
      }

      .st80 {
        fill: #ebc046;
      }

      .st81 {
        fill: #455f64;
      }

      .st82 {
        fill: #ebb84b;
      }

      .st83 {
        fill: #f16569;
      }

      .st84 {
        fill: #e9b94a;
      }

      .st85 {
        fill: #8fc43f;
      }
    </style>
  </defs>
  <g id="Layer_1-2">
    <g>
      <path class="st18" d="M68.8,113.4c-1.8-.3-3.5-.6-5.2-1.4-3.2-1.4-3.9-2.8-3-6.2h-8.4c1,1.4,1.9,2.8,2.8,4.1.9,1.4,1.4,2.8,1.4,4.5,0,1.1-.5,2-1.5,2.6-3.6,2.1-7.5,3.1-11.5,3.7-7.8,1.2-15-.8-22-4.1-1.7-.8-2.1-3.2-.9-4.7,1.7-2,3.5-4,5.3-6-.2-.4-.6-.2-.9-.2-3.3,0-6.5,0-9.8,0-2.2,0-3.5-1.4-3.6-3.7,0-2.5,0-4.9,0-7.4,0-10.6-.1-21.2-.2-31.8,0-.4,0-.8,0-1.2.5-3.7,1.7-4.3,4.6-4.2,6.4.2,12.8,0,19.2,0s14.7,0,22,0c3.3,0,6.5,0,9.8.1,1.2,0,2.4.4,3.4.9.9.4,1.4,1.1,1.3,2.2-.3,12.9-.2,25.8-.2,38.6,0,.6,0,1.1,0,1.7,0,1.2-.5,2.1-1.5,2.9-1.7,1.3-3.4,2-5.6,2.1-.5,0-1.3-.4-1.5.5-.2.9-.2,2,.8,2.6,1,.6,2.1,1.1,3.3,1.3,3,.5,5.9.6,8.9,0,2.8-.7,4.2-2.7,3.8-5.6-.2-1.7-.8-3.2-1.4-4.7-1.2-2.9-1.9-6-2.5-9.1-.8-4.7,1-8.2,4.9-10.8,2.5-1.6,5.1-2.9,7.8-4.2,9.5-4.4,18.8-9.1,27.6-14.8,1.4-.9,2.8-1.6,4.5-1.9,3.2-.6,5.5,1.3,5.6,4.6,0,.3,0,.6,0,.8-.2.8.2,1.2,1,1.4.9.2,1.8.8,2.6,1,.8.2,2,.8,3,0,1.3-1.1,2.8-1.2,4.3-.1,1.3.9,2.7,1.7,4.3,2.7-.7-1.8-1.2-3.2-1.8-4.6-.5-1.5-.1-2,1.4-1.9,1.6.1,3.1.2,4.6.3.6,0,.6-.1.7-.6.3-1.5.9-2.9,1.8-4.2.8-1.3,1.5-1.4,2.7-.4.7.7,1.5,1.3,2.1,2.1.5.6.9.7,1.5,0,1.1-1,2.2-1.9,3.6-2.6,1.7-.8,2.6-.3,3.1,1.5.3,1.2.8,2,2.3,2.2,1.1.1,2.2.6,2.9,1.7.1.2.4.3.4.5,0,.4-.4.3-.7.3-1.7.2-3.3.4-4.9.9-1.4.5-2.7,1.2-3.5,2.5-.9,1.4-.9,2.8.2,4.1.9,1.2,2.2,2,3.4,2.8,1.5,1,3,2.1,4.3,3.4,2.8,2.8,3.6,6,2.3,9.8-1.5,4.4-3.9,8.1-7.3,11.2-.2.2-.5.4-.5.8.1,1.8-1.1,2.4-2.5,2.9-2.4.9-4.6,2.3-6.9,3.5-.3.1-.4.2-.2.6,2.3,4.8,1.4,9.4-.8,13.8-1.6,3.1-4,5.6-7.3,6.9-1.7.7-3.5.6-5.3.1-1.6-.4-3.1-1.1-4.5-2-2.3-1.4-3.4-3.6-3.9-6.2-.6.5-1.2.6-1.9.5-.5-.1-.8.2-1.2.4-1.4,1.1-2.8,2.2-4.3,3.2-1.2.8-1.4.5-2.1-.7-1-1.8,0-3.5,0-5.2,0-.6.4-.9.9-1.2.8,0,1.1.6.9,1.1-.3,1.3.4,2.2,1,3.2.6-.3,1.1-.8,1.6-1.2.6-.4.4-.7,0-1.1-1.1-.8-2.4-1.3-3.3-2.3-5-3-9.9-5.9-14.8-9.1-.6-.4-.9-.3-1.2.3-.6.9-1.2,1.8-1.9,2.8-.9,1.3-1.6,1.3-2.5,0-.2-.2-.3-.3-.6-.2-1.2,0-1.5-.3-1.4-1.4.2-1.5.5-3,.7-4.5.1-.8.3-1.2-1-1.2-3.4-.2-6.7-1.1-9.6-3-1.6-1-2.3-2.8-2.4-4.6-.2-5.2.9-10.1,4.5-14.1,1.3-1.5,2.9-2.6,4.7-3.5,1-.5,1.9-.6,3-.3,1.5.4,3,.7,4.5,1.1,1.3.3,2.2,1.3,3.2,2.2.5-1.4,1-2.7,1.5-4,.6-1.8,1-2,2.7-1.4,1.1.4,2.4,1.2,3.4,1,1.1-.2.8-1.9,1.3-2.9.4-.6.5-1.3.8-2,.4-.9,1-1.2,1.9-.8,1.2.5,2.4.8,3.6,1.2.5.2.8.2.9-.4.5-1.9,1.3-3.7,2-5.5.4-1,.4-2.2-.3-3.1-.7-.9-1.7-.6-2.7-.4-.8.2-1.5.5-2.2.9-10.1,6.6-21,11.8-31.8,17-1.8.9-3.6,1.8-5.3,3.1-2.6,2-3.5,4.6-2.9,7.8.6,3.6,1.7,7,3.1,10.4.9,2.1,1.1,4.3.6,6.6-.6,2.6-2.2,4.3-4.7,5.1-2.3.7-4.6.9-7,.8-.5,0-1,0-1.6,0h0s0,0,0,0Z"/>
      <path class="st56" d="M10.4,53.1c0,.4,0,.7.2,1.1,1.6,1.9.8,4.4-1.7,5-.7.2-1.2.4-1.5,1.1-.6,1-2.2,1.8-3.2,1.5-1.2-.4-1.8-1.1-1.8-2.4,0-.4-.1-.5-.5-.7-1.9-.6-2.5-2.3-1.4-3.9.6-.8.9-1.8,1.2-2.7.6-1.9,2.2-2.5,3.9-1.6.4.2.7.1,1,0,2.2-.8,3.7.3,3.7,2.6h0Z"/>
      <path class="st60" d="M60.8,49.9c-1.2-1.1-3.2-.6-4.8-1.5-1-.6-1.2-1.8-.4-2.8.4-.4.5-.7.3-1.3-.4-1.2.3-2.3,1.6-2.5.9-.1,1.8-.4,2.6-.7,1.4-.5,2.7.2,3,1.6,0,.4.4.6.7.8,1.5,1,1.6,2.4.2,3.6-.3.2-.5.4-.5.8-.2,1.4-1,2-2.7,2h0Z"/>
      <path class="st71" d="M123,53.9c.2-1.3-.3-2.6-.6-3.9-.3-1.5,0-1.9,1.4-2.6,1-.4,2.1-.8,3.2-.9,1.6-.2,2.5.7,2.1,2.3-.2,1.1-.9,2-1.5,3-.8,1.1-1.6,2.3-2.4,3.4-.2.2-.4.5-.7.7-.3.3-.8.5-1.2.3-.5-.2-.4-.7-.4-1.1v-1.1h0Z"/>
      <path class="st44" d="M73.8,68.3c0-.6.1-1.1.7-1.3.7-.2,1.1,0,1.6.6,1.4,1.8,2.5,3.7,4.1,5.2.5.5,1.1.9,1.6,1.5.4.5.8,1.1.3,1.7-.6.7-1.2.4-1.8,0-1.7-1.4-3.4-2.6-5.3-3.7-.4-.2-.6-.5-.7-.9-.2-1-.3-2-.5-3.1Z"/>
      <path class="st33" d="M133.1,55.4c.3,0,.6,0,.9-.2,1-.9,2.2-.7,2.9.5.4.7.9,1.3,1.5,1.8.9.9.8,1.8-.1,2.7-.3.2-.6.4-.5.8.2.8-.1,1.5-.9,1.9-.8.4-1.6.2-2.2-.3-.6-.5-1.2-.6-1.9-.7-1.2,0-2.7-1.6-1.8-3,.3-.4.1-.7,0-1.1-.3-1.5.5-2.4,2-2.3h0Z"/>
      <path class="st6" d="M87.1,117.2c-.6,0-1.2-.3-1.7-1.1-.6-.9-1.2-1.8-1.8-2.7-.3-.5-.4-1,0-1.5.4-.5.8-.8,1.4-.6,2.2.4,3.9,1.6,5.4,3.1.6.6.4,1.2-.1,1.8-.8.8-1.8,1-3.2,1.1h0Z"/>
      <path class="st1" d="M17.5,111.4c0,.5-.4.6-.7.7-1.1.3-1.8.7-2,2-.1.8-.9.6-1.3.2-1-.8-2-1.4-3.3-1.5-.6,0-.8-.5-.4-.9.9-1.2,1.7-2.4,1.9-3.9.1-.7.9-.7,1.2,0,.8,1.6,2.1,2.3,3.7,2.7.4.1.8.3.9.7h0Z"/>
      <path class="st1" d="M20.6,52.7c0,.4-.3.6-.6.6-1.3,0-2.2.6-3.2,1.4-.7.6-1.3.4-1.4-.4-.2-1-.8-1.4-1.6-1.6-.4-.1-1-.2-1-.7s.6-.7,1-.8c1.5-.4,2.8-1.1,3.5-2.6.1-.3.4-.5.8-.5.3,0,.6.2.6.5,0,1.6.9,2.8,1.9,3.9,0,0,0,.2.1.3h0Z"/>
      <path class="st19" d="M68.8,113.4c.5.4,1,.4,1.6.4,1.1,0,1.7.6,1.7,1.8,0,.3,0,.4.2.7.6,1.1.4,1.7-.7,2.1-.4.1-.6.3-.8.6-.5.6-1.1.9-1.8.4-.9-.7-1.8-1.3-2.6-2.1-.7-.7-.5-1.4.4-1.9.4-.2.5-.3.6-.8.1-.8.7-1.2,1.5-1.2h0s0,0,0,0Z"/>
      <path class="st51" d="M92.5,63.7c.5,0,1,.2,1,.5,0,1.3,1.8,1.3,1.7,2.6,0,.2-.1.4-.2.5-1.1.8-1.9,2-3.3,2.4-.2,0-.4.1-.4,0-.7-.9-1.9-1.1-2.6-2.1-.2-.2-.2-.5,0-.8.3-.5.5-.9.4-1.5,0-.6.5-1.1,1.1-1.3.8-.2,1.7-.1,2.5-.4Z"/>
      <path class="st6" d="M119.7,57.6c-1.2,0-2-.7-1.9-1.8.2-1.7.6-2.9,1.8-2.9,1,0,2.4,1.7,2.4,2.9,0,1.1-.9,1.8-2.3,1.8h0Z"/>
      <path class="st5" d="M82.8,72.9c.2-1.2.2-2.4.7-3.6.2-.5.5-1,1.1-.8.6.1.9.6.8,1.2,0,1.4-.5,2.7-1,4-.2.4-.6.7-1.1.5-.6-.2-.7-.7-.6-1.3h0Z"/>
      <path class="st65" d="M120.1,115.6c1.6.8,3,1.8,4.7,2.8-1.1.9-2.1,1.6-3.3,2.5,0-.8,0-1.5-.8-1.9-.4-.2,0-.9,0-1.3,0-.7.2-1.4-.7-1.8,0,0,0-.2.1-.3h0Z"/>
      <path class="st83" d="M79.9,117c.2-1.1.3-2.2,1.4-2.9.3-.2.7-.4,1.1,0,.3.2.3.6.2,1-.2.8-.3,1.6-.5,2.3-.2.7-.3,1.4-1.2,1.3-.9-.1-.8-1-1-1.7h0Z"/>
      <path class="st22" d="M62,113c0,.8-1.4,2.3-2.3,2.5-.5,0-1,0-1.2-.6-.2-.4-.1-.9.2-1.2.7-.6,1.5-1.1,2.2-1.6.7-.4,1,0,1,.8h0Z"/>
      <path class="st7" d="M68.1,80.7c-.2,6.1,0,12.1-.4,18.2,0,1.6-.7,2.5-2.2,3-2.7,1-5.4,1.2-8.2,1.1-3.2-.1-6.5.1-9.7.2-5.1.2-10.1.3-15.2.5-1.5,0-3.1,0-4.7.1-3.8.3-7.5-.5-11.1-1.4-1.1-.3-1.5-1.4-1.7-2.5-.6-3.3-.7-6.5-.8-9.9,0-3.2-.2-6.4-.2-9.6,0-4.6.4-9.1.7-13.7,0-.5,0-1,0-1.4-.2-2.8,1.9-5,4.8-5.1,7.9-.4,15.9-.3,23.8-.2,4.5,0,9.1.2,13.6.3,3,0,6,.5,9,.9,1.4.2,2.1,1.3,2.1,3.2v16.4h0Z"/>
      <path class="st48" d="M39.8,105.7c2.6,0,5.3,0,7.9,0,.9,0,1.5.3,1.8,1.2.5,1.4,1.6,2.6,2.5,3.8.3.3.5.7.8,1.1,1.2,1.9,1,2.8-1.1,3.6-2.9,1.2-5.8,2-9,2.3-3.8.4-7.6,0-11.4-.6-2-.3-4-1.2-5.8-2.1-1.2-.6-1.4-1.4-.5-2.3,1.9-2.1,3.8-4.3,5.5-6.6.4-.5.9-.5,1.4-.5,2.7,0,5.4,0,8,0h0Z"/>
      <path class="st40" d="M160.3,62.7c-1.6.7-2.9,1.5-4,2.8-2,2.4-1.9,5.3.2,7.6,1.2,1.3,2.7,2.3,4.1,3.2,1.5,1,2.9,2.1,4.1,3.5,1.5,1.8,2,3.8,1.4,6.1-1,4-3.2,7.3-6.1,10.7v-2c0-3.3-.1-6.6.1-9.9,0-.9-.6-1.5-1.3-1.9-2-1.2-4-2.3-6.1-3.4-.6-.3-.8-.5-.9-1.2-.1-2-1-3.6-2.9-4.5-1.1-.5-2.1-1.3-3.2-1.7-1.8-.7-2-3.3-1-4.6.6-.8,1.3-1.4,2.1-1.9,4.1-2.3,8.6-3.1,13.2-2.9h0Z"/>
      <path class="st28" d="M128,108.7c-.3-1.6-.2-2.9-.2-4.2s.4-.9.9-1.2c7.8-4.6,15.4-9.4,23.3-13.7,1.9-1,3.9-1.8,5.8-2.8.4.4.2.7.2,1.1,0,3.3,0,6.5,0,9.8,0,1.4-.4,2.5-1.9,3.2-2.2,1-4.3,2.3-6.4,3.5-.3.2-.6.6-1.1.3-.5-.3-.4-.8-.4-1.3,0-1,.1-2,0-3-.1-1.5-1.2-2.2-2.6-1.7-1.1.4-2.1.8-3.1,1.3-2,1.3-4.5,1-6.4,2.5-1,.8-2,1.5-2.9,2.3-1.5,1.6-3.6,2.4-5.4,3.8h0Z"/>
      <path class="st11" d="M126.6,101c-.5,1.9-.5,1.9-2.2.9-8-4.8-16-9.6-24-14.4-1.1-.7-1.1-.7,0-1.3,6.3-3.8,12.7-7.3,19.2-10.7.2-.1.5-.2.9-.4,0,.6,0,1.1,0,1.6,0,.5.5,1.1.2,1.7-.1.2-.2.3-.5.4-3.2.4-5.6,2.3-8,4.2-.5.4-.5,1.1.2,1.3,1.9.7,3.4,2,5,3.2,4.3,3,8.8,5.7,13.2,8.4,1.4.9,1.4.8,2.9.3,0,0,0,.2,0,.2-.4,1.6-1.4,2.1-3,1.5-2.2-.8-2.5-.7-3.1,1.5-.4-.2-.2-.8-.8-1.1-.2,1-.8,1.4-1.9,1.3,1,.2,2.1.2,1.9,1.6h0Z"/>
      <path class="st40" d="M114.4,109.6c-.4.3-.6-.2-.8-.3-4.5-2.6-8.9-5.4-13.4-7.8-.7-.4-.8-.9-.8-1.6-.2-3.9,0-7.7.2-11.8,1.2.7,2.3,1.3,3.4,2,7.2,4.4,14.5,8.7,21.6,13.2.7.5,1.4,1,1.4,1.9,0,3.8-.3,7.5.3,11.6-3.3-2-6.2-3.8-9.2-5.6,0-.3.2-.4.4-.5,1.3,0,2.6-.2,3.7-1.1,1-.8,1.4-1.7,1.2-2.9-.5-2.7-2.2-4.7-4.4-6.3-1.1-.8-2.4-1-3.6,0,0,0-.2.1-.3.2-2.7,1.3-2.4,3-1.6,5,.4,1,1,1.8,1.6,2.6.2.3.7.6.4,1.2h0Z"/>
      <path class="st48" d="M132.1,70.7c4,3,8.5,4.8,12.8,7,1,.5,1.4,1,1.3,2.1,0,1.1-.2,2.2.2,3.3.6-.3.5-.8.5-1.2,0-.5,0-1,0-1.4,0-.9.2-1.7,1.5-1.6.7,0,1.6-.7,2-.3.4.4.1,1.3.2,2.1,0,.3.1.5.2.8.2,1.1,0,2.1-1.2,2.7-.6.3-1.1.7-1.7,1.1-.6.5-1,.3-1.1-.6-.2.3-.4.4-.5.5-.7,1.7-2.5,2.4-4.2,1.7-.9-.4-1-1.2-.2-1.8.4-.3.8-.5,1.2-.8,1.1-1,1-2.7-.3-3.4-2.3-1.4-4.7-2.7-7.1-4-.9-.5-1.9-.9-3-.5-.5.2-.6,0-.7-.5-.1-1.7,0-3.4,0-5.2h0Z"/>
      <path class="st23" d="M141.1,109.7c.2.3.3.5.4.7.4.6.9,1.2,1.7,1.1.9,0,1.2-.8,1.4-1.6.2-.6.4-1.2.6-1.7.3-.6.2-1-.4-1.4,2.2-1.4,3.8.2,4.6,2.2,1.7,4.2.3,7.9-2,11.4-.5.8-1.2,1.6-1.9,2.3-2.4,2.5-5.2,1.3-6.6-1.2-2-3.6-.9-9,2.1-12h0Z"/>
      <path class="st18" d="M114.4,109.6c-.9-1.4-1.9-2.6-2.5-4.2-.8-2.2-.5-3.1,1.3-4.6,2.9-2.3,4.4-1.3,6.5.7,1.1,1.1,1.9,2.4,2.6,3.8,1.4,3-1,5.7-3.9,5.6h-.8c-.8,0-1.4-.3-2-.7-.4-.2-.7-.5-1.1-.7h0Z"/>
      <path class="st48" d="M147.5,77.8c-.8.3-1.4-.5-2.2-1-2.9-1.6-5.9-3.2-8.9-4.7-1.1-.6-2.2-1.2-3.1-2-1-1-.9-2,.3-2.5,1.1-.5,2.3-.5,3.4.2,3.9,2.5,7.8,4.8,11.6,7.2.7.5,2,.7,1.5,1.9-.4,1-1.5.7-2.7.8h0Z"/>
      <path class="st40" d="M131.9,86c-.4-.2-.8-.4-1.2-.6-.8-.1-1.4-.5-1.7-1.2,0-.6-.4-1.2,0-1.8,1.2-2.1,2.7-2.5,4.8-1.4,1.2.6,2.2,1.4,3.3,2.1,1.2.8,1.4,1.8.8,3.1-.6.3-1.1.7-1.7,1-.2.4-.7.5-1.1.5-1.2-.4-2.3-.8-3.1-1.8h0Z"/>
      <path class="st59" d="M121.2,86.9c0,.2,0,.3,0,.5,0,.5-.3.6-.7.6-2.1-1.4-4.2-2.8-6.4-4.1-.7-.5-.7-.8,0-1.2,1.5-.8,2.9-1.6,4.4-2.4.6-.3,1.1-.3,1.7,0,.3,0,.7,0,.9.4,0,.1,0,.2,0,.3,0,.4-.8.9,0,1.2v.4c0,.4-1,.8,0,1.3,0,0,0,.2,0,.3-.2.4-.7.8,0,1.2,0,.1,0,.3,0,.4,0,.3-.7.8,0,1.1h0Z"/>
      <path class="st62" d="M137.8,86.2c.3-1.7-.2-2.8-1.8-3.6-1-.5-1.9-1.2-2.9-1.6s-2-.6-2.8.4c-.4.4-.9.7-1.3,1-.3-1.5.2-2.9-.3-4.4,0-.2,0-.4.3-.3,3.1,1.6,5.9,3.5,8.6,5.7,1.2,1,1.8,2.3,1.6,3.9-.1,1-.1,2.1-.2,3.1,0,.5-.1.8-.6,1-.5.2-.8.2-.8-.5,0-1.6.1-3.2.2-4.8h0Z"/>
      <path class="st61" d="M126.7,81.5c0,.2,0,.3,0,.5-.2.5-.8.7-1.2,1.1-.7.2-1.3.4-1.4,1.3,0,.9.4,1.4,1.2,1.7.4.3,1-.1,1.4.2,0,.1,0,.3,0,.4-.4.7-1.1,1-1.7,1.3-.2,0,0,0-.1,0-.5-.2-1.2.5-1.5,0-.3-.5,0-1.2-.1-1.8,0-2.3,0-4.6,0-6.8v-3.2c.1,0,.3-.2.4-.3-.3,1.9,1.6,1.3,2.1,2.3,0,.1.4.2.5.1.7-.5.7.3.9.5-.2.5-.9.3-1.2.7,0,.4.6.2.8.6,0,0,0,.1,0,.2-.1.4-.6.5-.8.8.1.4.6,0,.8.4h0Z"/>
      <path class="st9" d="M129,84.2c.6.4,1.1.8,1.7,1.2-.1,1.4.2,2.8-.7,4.1-.2.3-.1.8.2,1.1,0,.2,0,.6,0,.5.8,0,1.1.7,1.6,1.1.7.7,1.5.3,2.3.4h0c0,.4-.2.8-.1,1.2-2.1,1.1-3.2.9-4.8-.6-.3-.3-.3-.5-.3-.9,0-2.7,0-5.5,0-8.2h0Z"/>
      <path class="st50" d="M97.1,86.2c.4,1.2.5,2.2-.4,3.3-1.1,1.5-.8,4.2.5,5.5.4.4.3.9.3,1.3,0,.8,0,1.6,0,2.4-3.7-2-3.5-8.9-.5-12.5Z"/>
      <path class="st25" d="M91.3,95.3c-.3,1.5-.9,1.8-2,1-.2-.2-.4-.4-.7-.5-1.5-.2-1.2-1.5-1.3-2.5,0-.3,0-.6.4-.7.4,0,.6.2.7.5,0,.2,0,.5,0,.8,0,.4,0,.8.4.9.5.1.4-.4.6-.5.9-.5,1.9-.8,2.9-.9.3,0,.6.3.6.7,0,.9.3,1.8.5,2.7,0,.4,0,.8-.4,1.1-.4.4-.7.4-.9-.1s-.6-1.4-.9-2.4h0Z"/>
      <path class="st31" d="M132.5,78.2c.9-.5,1.6-.6,2.3-.1,2.2,1.3,4.3,2.5,6.5,3.8.4.2.9.6.6,1.1-.3.6-1,1-1.6,1.3,0,0-.2,0-.3-.2-1.6-2.7-4.4-4-6.9-5.5-.2,0-.3-.2-.6-.4h0Z"/>
      <path class="st25" d="M94.8,84.6c-.7,1.4-1.1,2.9-2.5,3.9-1.1.7-1.6.8-2.2-.3-.2-.3-.4-.5-.6-.7-1-.9-1.1-1.7-.2-2.7.2-.2.3-.5.7-.4.3,0,.3.4.3.6,0,.6,0,.9.8.7.6-.1,1,.5,1.3.9.5.6.7.3,1-.2.4-.7.7-1.5,1.5-1.8Z"/>
      <path class="st69" d="M138,109.1c-.5,1.9-1.6,3.3-3,4.3-.3.2-.8.3-1,.1-.9-.6-1.3-1.7-2.3-2.3-.2-.1.8-2.2,1.1-2.2.5,0,.7.3.6.7-.2.7,0,.8.6.6.6-.1,1.1.3,1.4.8.6.8.8.4,1.1-.2.4-.6.4-1.5,1.5-1.8h0Z"/>
      <path class="st41" d="M125.3,73.1c0-.6.2-.9.7-1.2,1.1-.8,2.4-1.4,3.6-2.1.4-.2.9-.6,1.1,0,.3.5.4,1.3-.2,1.7-1.4,1-2.9,1.9-4.3,2.9-.4.3-.6,0-.6-.3,0-.3-.1-.7-.2-1Z"/>
      <path class="st0" d="M120.3,72.9c-1.9,1.1-3.7,2.2-5.7,3.3.4-1.5.9-2.8,1.6-4,.2-.4.4-.5.8-.4,1,.4,2,.7,3.3,1.1h0Z"/>
      <path class="st0" d="M150.5,88.5c.4-1.4.9-2.5,1.4-3.7.3-.5.7-.8,1.4-.5.9.4,1.8.6,2.9,1-2,1.1-3.8,2.1-5.7,3.2h0Z"/>
      <path class="st69" d="M134.6,118.4c.4,1.2-.6,2.2-.5,3.3,0,.4-.5.3-.7,0-.7-.7-1.4-1.4-2.4-1.6-.5,0-.8-2.4-.4-2.7.1-.2.3-.2.5-.2.3,0,.4.3.5.6,0,.4,0,.9.2,1.3.2.3.3.6.7.3.6-.5,1.3-.8,2.2-1.1h0Z"/>
      <path class="st69" d="M132.8,115.8h0c-.1-.7.3-1.6-.3-1.7-.7,0-.3.9-.4,1.3-.1.4-.3.8-.9.8-.6,0-.6-.5-.5-.8,0-.7.2-1.4.3-2.1,0-.3.2-.6.5-.6.5,0,1,.3,1.3.7.3.6.6,1,1.2,1.2.3,0,.5.3.4.6-.2.5-.1,1-.1,1.5,0,.6-.2.9-.8.9s-.6-.5-.6-.9v-.9h0Z"/>
      <path class="st0" d="M103.7,82c-1.8,1.2-3.4,2.3-5.2,3.5.2-1.7.8-3,1.6-4.3.2-.3.4-.4.8-.2.8.3,1.7.6,2.8,1h0Z"/>
      <path class="st32" d="M147.5,90.4c-1.9,1.1-3.6,2-5.4,3.1.4-1.4.9-2.7,1.5-3.8.1-.3.3-.6.7-.4,1,.4,2,.7,3.2,1.1h0Z"/>
      <path class="st50" d="M112.3,77.4c-1.8,1.1-3.5,1.9-5.4,2.8.4-1.3.8-2.4,1.4-3.5.2-.4.4-.5.8-.4,1,.4,2,.7,3.2,1.1Z"/>
      <path class="st24" d="M123.2,79.4c.3,2.7.1,5.3.2,8v.7c.7-.7,1.3-1,1.9-.1,0,0,0,0,.1.1.2.3.1.6.2.9.2.5.8,0,1.1.4v.4c-.1.7-.8.8-1.2,1.2-1.8-.7-2.6-1.8-2.5-3.9.2-2.6,0-5.2,0-7.8Z"/>
      <path class="st32" d="M139.5,95.2c-1.8,1.1-3.4,2-5.1,3,.2-1.3.7-2.3,1.2-3.3.2-.4.6-.7,1.2-.5.8.3,1.6.5,2.7.9Z"/>
      <path class="st46" d="M138.7,93.1c.1-.4.5-.3.8-.5.6-.3.9-.7.9-1.4,0-.6,0-1.3,0-1.9,0-.4-.2-1,.2-1.2.5-.2,1,.3,1.5.6.4.3.1.7,0,1.1-.3.9-.8,1.8-1,2.8-.2,1-.6,1.2-1.5.8-.3-.1-.6,0-.8-.3h0Z"/>
      <path class="st42" d="M131.9,86c1,.5,2.1,1.1,3.1,1.6-.2.9-.3,1.8.9,2.2.4.2.6.6,0,.9-.9-.5-1.8-1.1-2.8-1.5-1-.4-1.4-1-1.2-2.1,0-.4,0-.8,0-1.2h0Z"/>
      <path class="st64" d="M134.1,92.6c-1.1.4-2.1,0-3.1-1.1,0,0-.3,0-.4,0-.3,0-.6.3-.9,0-.2-.4.3-.6.5-.9.4-.2.8-.4,1.2-.5.7-.2.8,0,.6.8.5,0,1.3-.8,1.5.5,0,0,.1,0,.2,0,1.8-.2.7.7.5,1.3h0Z"/>
      <path class="st53" d="M151.9,61.7c-1.5.5-2.7.9-4.2,1.4.6-1.4,1.1-2.6,1.8-3.7.8.8,1.6,1.5,2.4,2.3Z"/>
      <path class="st50" d="M100,103.2c1.1.4,1.9,1.2,2.8,1.8.4.2.2.4,0,.7-.4.5-.9,1-1.4,1.6-.3-.6-.5-1.2-1.2-1.2-.4,0-.3-.4-.3-.6,0-.7.1-1.4.2-2.2Z"/>
      <path class="st12" d="M127,75.3c1.3-.7,2.4-1.4,3.5-2,.4,1.3-.5,2.3-.3,3.5-1.1-.3-2-.9-3.2-1.5h0Z"/>
      <path class="st38" d="M144.9,64.9c-1.1,1-1.8,1.9-2.3,3,0,0-.1,0-.1-.1-.5-1-1.5-2.4-1-3,.6-.7,2.1,0,3.5.1h0Z"/>
      <path class="st81" d="M125.3,86.3c-1.3-.5-1.8-1.7-1.1-2.9.3-.6.8-.5,1.4-.4.4,0,.9-.2,1.3,0,0,.1.2.3.3.4,0,.6-.8.4-1.1.9.2.3.7,0,.8.3,0,.1,0,.3,0,.4-.3.6-.9.8-1.5,1.1h0Z"/>
      <path class="st78" d="M131.7,99.9c-1.4.9-2.6,1.7-4.1,2.8.3-1.4.8-2.4,1.3-3.3.1-.3.4-.4.7-.3.6.3,1.3.5,2.1.8Z"/>
      <path class="st67" d="M89.8,89.6c1.2.5,1.7,1.4,1.3,2.7-.1.5-.6.7-1,.7s-.6-.3-.7-.7c0-.9,0-1.8.3-2.7h0Z"/>
      <path class="st25" d="M87.4,90.8c.1-.6.3-1.2.4-1.7,0-.4,0-.9.5-.9.5,0,.8.4,1.3.6.2,0,.1.3,0,.4-.9.4-.6,1.3-.8,2-.1.5-.4.6-.8.6-.5,0-.7-.4-.5-.8h0Z"/>
      <path class="st14" d="M126.6,101c-.2-1-1-1.3-1.9-1.2-.4,0-.9,0-.9-.5,0-.4.5-.2.8-.2.7,0,1.8.4,1.4-1.1,0-.2.3-.3.6-.3.3,0,.6.2.7.5s0,.7,0,1.1c-.3.6-.5,1.2-.8,1.8h0Z"/>
      <path class="st35" d="M156.1,60.7c.9-.5,1.7-1,2.6-1.5.2-.1.6-.3.7,0,.2.5.4,1,.4,1.5,0,.3-.4.2-.7.2-1,0-2,0-2.9,0,0,0,0-.1-.1-.2h0Z"/>
      <path class="st36" d="M135.9,90.7c.4-.3.4-.5-.1-.8-1.6-.7-1.7-1-.8-2.4.4-.1.8-.2,1.1-.3.5,1.1.2,2.3.2,3.5,0,.2-.2.1-.4,0Z"/>
      <path class="st46" d="M149,89.2c-.8-.5-1.6-.7-2.5-1,1.1-.7,2.1-1.4,3.3-2.1-.3,1.2-.5,2.1-.8,3.1Z"/>
      <path class="st2" d="M128.3,68.1c-.4.5-.9.7-1.3.9-.4.2-.9.9-1.3.5-.4-.4,0-1.1,0-1.7,0-.3.3-.3.6-.2.6.2,1.2.4,1.9.6h0Z"/>
      <path class="st43" d="M120.2,78.2c.5-.5-.6-1.1,0-1.7.3-.1.6-.3.9-.4.4-.1.8-.3,1.1,0,.4.5,0,.7-.3,1-.5.5.3.2.3.5-.6.4-1.2.8-2,.5Z"/>
      <path class="st30" d="M121.2,83.9c-.4,0-.9.1-1-.4,0-.6.7-.6,1-.9.4,0,1-.4,1.1.1.2.8-.8.8-1.2,1.2h0Z"/>
      <path class="st74" d="M126.8,80.1c-.5,0-1.2.3-1.3-.3,0-.7.7-.8,1.3-.9.2,0,.3,0,.5,0,.9.8,0,.9-.5,1.3h0Z"/>
      <path class="st27" d="M125.3,86.3c.2-.8,1-.7,1.5-1.1.3,0,.7,0,.8.3,0,.5-.4.7-.8.9-.5,0-1,.5-1.5,0Z"/>
      <path class="st68" d="M125.6,91.1c-.1-.9.9-.7,1.2-1.2.6,0,1.1.1.3.8-.4.3-.6.6.1.8.3,0,.4.3.2.5-.2.2-.5,0-.6-.2-.3-.4-.6-.8-1.2-.7Z"/>
      <path class="st79" d="M121.2,82.3c-.3,0-.9.3-1-.3,0-.5.6-.7.9-1,.4,0,1-.4,1.1.1.2.8-.8.7-1.1,1.1Z"/>
      <path class="st37" d="M126.7,81.5c-.2,0-.4,0-.6.1-.3.1-.6,0-.7-.2-.1-.3.1-.5.4-.7.3-.2.6-.3,1-.5.3,0,.7,0,.7.3,0,.5-.5.6-.8.9Z"/>
      <path class="st30" d="M121.2,85.4c-.3,0-.8.2-.9-.3,0-.6.6-.6.9-.9.4,0,1.1-.5,1.2.2.1.7-.8.6-1.2,1.1Z"/>
      <path class="st29" d="M126.8,84.7c-.5,0-1.2.7-1.4,0-.2-.6.6-.8,1.1-1,.2,0,.4,0,.6-.2,1.1.7,0,.9-.3,1.2Z"/>
      <path class="st73" d="M120.2,78.2c.7,0,1.3-.6,2-.5.4.5,0,.8-.3.9-.6.2-1.2.8-1.9,0,0-.1.1-.3.2-.4h0Z"/>
      <path class="st4" d="M121.1,80.7c-.3,0-.7,0-.9-.4,0-.1.1-.3.2-.4.4-.3.9-.7,1.5-.6.2,0,.4.2.3.4-.2.6-.7.7-1.1.9Z"/>
      <path class="st39" d="M125.4,88c0-.9,1-.8,1.5-1.2.3,0,.7,0,.8.3,0,.5-.4.6-.7.8-.4.5-.9.6-1.5.2h0Z"/>
      <path class="st20" d="M126.8,83.1c-.4.3-.9.6-1.3,0,.1-.7.8-.7,1.3-1,.3,0,.6,0,.6.4,0,.4-.3.6-.6.7Z"/>
      <path class="st82" d="M121.2,86.9c-.3-.1-.9.4-1-.2-.1-.6.6-.6.9-.9.3,0,.7-.1,1,.2,0,.6-.6.6-.9.9Z"/>
      <path class="st57" d="M125.3,88c.5,0,1,0,1.5-.2-.5.6.7.5.4,1.1-.7,0-1.3.3-1.9.3v-1.2h0Z"/>
      <path class="st20" d="M125.4,89.2c.6-.4,1.2-.8,1.9-.3-.2.2-.3.4-.5.6-.5-.1-1.1.8-1.4-.2Z"/>
      <path class="st76" d="M129,77.7l-.3.3c-.7-.9-2-.9-2.7-1.9,1.1.3,2.1.9,3,1.5h0Z"/>
      <path class="st10" d="M134.1,93.8c-.9-.5,0-.8.1-1.2.5,0,.8-.5,1.5-.5-.9.3-.9,1.3-1.6,1.7h0Z"/>
      <path class="st47" d="M123.2,74.6c-.5.4-.8.9-1.4.6-.3-.1-.4-.5-.2-.7.4-.4.9-.2,1.6,0Z"/>
      <path class="st84" d="M120.5,88c.2-.2.5-.4.7-.6.3,0,.7-.4.9,0,.1.2,0,.3-.2.4-.5.3-.9.8-1.5.2Z"/>
      <path class="st16" d="M115.4,110.3c.7.2,1.3.5,2,.7-.2,0-.3.2-.5.3-.6-.2-1.1-.5-1.5-1Z"/>
      <path class="st7" d="M8.6,53.2c-.5.7,0,1,.5,1.5.6.5.7,1.2.4,2-.2.6-.7,1.1-1.5,1-.6-.1-.9.3-1.3.6-1.2,1.1-2.1.9-2.4-.6-.1-.5-.4-.4-.8-.5-1.3-.2-1.7-1-1-2.1.4-.6.7-1.2.8-1.9,0-.4.4-.8.8-1,1.3-.5,2.6.3,3.9.2.3,0,.5.5.5.9h0Z"/>
      <path class="st21" d="M61.6,42.9c-.2,1.2.3,1.8,1.2,2.1.5.2.5.5,0,.7-.9.3-1.3.8-1.2,1.9,0,.8-.7.7-1.1.3-.6-.6-1.1-1-2-.8-.3,0-.5,0-.7-.4,0-.3,0-.5.2-.6.9-.5.7-1.1.1-1.7-.2-.2-.4-.3-.2-.6,0,0,.3-.2.4-.2,1.1.5,2.1,0,3.1-.7h0Z"/>
      <path class="st23" d="M134.8,56.1c.4,0,.8,0,1,.3.4.8,1,1.3,1.4,2,.2.3.1.7,0,.8-1.2.2-.6,2.1-1.8,2-.9,0-1.7-.5-2.7-.5s-.5-.4-.6-.7c-.1-1,.5-1.9.4-2.9,0-.3,1.5-.7,2.2-1h0Z"/>
      <path class="st80" d="M13.4,112.4c-.3-.4-1.2-.2-1.1-.8,0-.4.3-1.2.8-1.2.5,0,1.2.3,1.3,1,0,.3-.3.9-.9,1h0Z"/>
      <path class="st80" d="M17.2,50.7c.6.2.8.8.8,1.2.1.7-.7.7-1.1.8-.6.2-1-.6-1-.9,0-.6.8-.6,1.2-1h0Z"/>
      <path class="st49" d="M71.4,117.1c-.7.2-1.3,0-1.5.7-.3.8-.7.6-1,0s0-.6-.4-.7c-.7-.3-1-.5-.1-1,.5-.3,0-.8.3-1.3.6.3,1.3.6,2.2.4-.3.8-.2,1.3.5,1.9Z"/>
      <path class="st85" d="M89.8,67.4c.2-.5.9-.8.5-1.5-.2-.4.2-.4.4-.4.7,0,1.2-.1,1.8-.6.2.6-.1,1.4.7,1.6.3,0,.2.6,0,.6-.9,0-.7,1.9-1.7,1.1-.5-.4-.9-.9-1.6-.9h0Z"/>
      <path class="st54" d="M24.3,82.2c0-1.2.5-2.1,1.2-2.9,1.9-2,4.1-3.6,6.4-5.1.5-.3,1.1-.5,1.6,0,.6.7.1,1.2-.3,1.7-1.4,1.5-3.1,2.7-4.6,4-2.2,2-2.3,2.8-.2,5,1.2,1.2,2.3,2.5,3.9,3.3.6.3.9.8.7,1.5-.2.7-.8.9-1.4.8-.5,0-1-.2-1.4-.5-1.9-1.5-3.7-3.1-5-5.1-.5-.8-.9-1.7-.9-2.7h0Z"/>
      <path class="st75" d="M59.4,82.6c0,.8-.2,1.5-.6,2.2-1.3,2.4-3.3,4.2-5.5,5.8-.6.4-1.3.8-2,0-.9-1-.9-1.4.3-2.1,1.9-1.2,3.5-2.8,4.8-4.6.6-.9.6-1.8-.3-2.5-1.2-1-2.4-2.1-3.6-3.2-.7-.6-1.4-1.2-2-1.9-.4-.4-.8-1-.3-1.6.5-.6,1.2-.4,1.7,0,2.3,1.5,4.5,3.1,6.3,5.1.8.8,1.3,1.7,1.3,2.9h0Z"/>
      <path class="st70" d="M33.3,94.5c0-.9.5-1.8.8-2.6,3.1-6.8,7.2-13,11.2-19.3.1-.2.2-.3.4-.5.3-.4.7-.6,1.1-.3.4.3.2.7,0,1.1-1.2,2.6-2.7,5-4.2,7.5-2.7,4.5-5.4,8.9-7.3,13.8,0,.3-.2.5-.4.7-.3.4-.6.8-1.2.6-.5-.2-.5-.6-.5-1.1h0Z"/>
      <path class="st55" d="M120.2,96c-2.3.4-3.7-.8-5.3-1.8-.5-.3-.1-.5.2-.7,1.2-.6,2.3-1.3,3.4-1.9.4-.2.8-.2,1.1,0,.8.5,1.6,1,2.4,1.5.3.2.6.6.4,1-.1.5-.5.6-.9.6-.2,0-.3,0-.5,0-.5,0-.5.3-.5.6,0,.5.4.2.6.2,1.4-.3,2.6.1,3.7,1,.3.3.7.6.6,1.1,0,.5-.5.8-1,.9-1.3.4-3.3-.2-4.2-1.2-.3-.4-.4-.8-.2-1.4h0Z"/>
      <path class="st52" d="M109.1,88c-.8-.4-1,.2-1.1.8-.1.5-.3.8-.9.6-.5-.2-.6-.5-.5-1,0-.5.7-1,0-1.5-.7-.6-1.3-.2-1.9.2-.3.2-.6.3-.9.3-.3,0-.6-.2-.7-.4-.2-.3.2-.5.4-.6,1.1-.6,2.2-1.2,3.2-1.8.5-.3,1-.3,1.5,0,.6.4,1.2.7,1.8,1.1.5.4,1.3.7,1,1.5-.3.9-1.1.7-1.9.8h0Z"/>
      <path class="st13" d="M110.2,88.3c1.1.1,2.1.4,2.9,1.1.9.7.7,1.7-.4,2-1.5.5-2.7,0-3.9-.9-.4-.3-.8-.6-.6-1.2.2-.6.6-.8,1.2-.9.3,0,.6-.1.9-.2h0Z"/>
      <path class="st66" d="M112.9,92.6c-.6,0-1,0-1.1-.4-.1-.5.5-.4.8-.5,2.2-.6,4.3-1.1,6.5-1.7.3,0,.6,0,.8,0,.2,0,.5.2.5.5,0,.2-.2.3-.4.3-2.4.6-4.8,1.2-7,1.8h0Z"/>
      <path class="st18" d="M110.5,99.3c.4,2.1-1.2,3.1-2.7,4-1.3.8-2.6.5-3.9-.3-2.6-1.5-3.9-3.8-4.2-6.7,0-1.1.3-1.9,1.3-2.5.5-.3,1-.6,1.5-1,.7-.5,1.5-.7,2.3-.4,2.2.8,4.1,2.1,5.3,4.2.4.8.5,1.7.4,2.7h0Z"/>
      <path class="st15" d="M110.2,106.5c-1,0-2.1-1.1-2-2,0-.3.1-.5.4-.6.3-.2.6,0,.9.2.3.3.5.6.9.6.6,0,1.3.1,1.2,1-.1.7-.8.8-1.3.8h0Z"/>
      <path class="st45" d="M149,112.2c0,.8,0,1.7-1,1.8-.9,0-2-1.2-1.8-2,.1-.9.3-1.7.5-2.6,0-.3,0-.7.5-.7.4,0,.6.2.8.4.8.9,1,2.1,1.1,3.2h0Z"/>
      <path class="st17" d="M144.3,120.7c.2-1,.4-2,.6-2.9.3-1.2,1.4-1.4,2.3-1.6.6-.1.9.4.7,1-.5,1.6-1.5,2.9-2.8,4.1-.2.2-.4.2-.7.1-.3-.2-.3-.4-.3-.7h0Z"/>
      <path class="st26" d="M138.5,117c.2-1.4.6-2.8,1.1-4.1.1-.3.2-.6.6-.6.4,0,.6.3.7.6.5.9.7,1.8.2,2.8-.3.7-.6,1.3-1,1.9-.2.4-.4.9-1,.8-.6-.2-.6-.8-.6-1.3h0Z"/>
      <path class="st26" d="M142.8,121.1c0,1-.1,1.8-1.2,1.9-1,0-2.2-1.1-2.2-2.2s1.5-2,2.2-1.9c1.3.2.9,1.5,1.1,2.2h0Z"/>
      <path class="st72" d="M143.9,114c.4,0,1.1,0,.9.6s-.2,1.7-1,1.8c-.7,0-1.1-.9-1.1-1.6,0-.8.7-.6,1.2-.7h0Z"/>
      <path class="st77" d="M118.4,107.3c0,1.4-1.2,2.2-2.2,1.5-1.6-1-2.5-2.6-2.9-4.4-.2-1.2.8-1.8,1.8-1.2,1.7.9,3,2.2,3.3,4.1Z"/>
      <path class="st3" d="M119.1,94.5c0,.5-.3.6-.6.6-.7,0-1.3-.4-1.8-.8-.2-.1-.2-.3,0-.5.4-.2.8-.6,1.3-.3.4.2.8.4,1,.9Z"/>
      <path class="st63" d="M122.9,97.8c-.7,0-1.3-.2-1.4-.9,0-.5.6-.5,1-.5.6,0,1.3.2,1.4.8,0,.6-.7.5-1,.6h0Z"/>
      <path class="st34" d="M120.3,94c-.2-.1-.6-.2-1-.4-.2-.1-.7-.2-.6-.6.1-.3.6-.5.9-.3.4.1.7.4,1,.6.2.1.3.3.3.5,0,.2-.3.3-.7.3Z"/>
      <path class="st58" d="M106.7,86c1-.7,2-.5,2.6.3,0,.1.2.3.1.4-.1.3-.4.4-.7.3-.8-.1-1.4-.5-2-1Z"/>
      <path class="st63" d="M110.6,89.2c.6.1,1.4.2,1.5.9,0,.5-.6.5-1,.5-.6,0-1.3-.2-1.4-.8-.1-.6.5-.5.9-.6h0Z"/>
      <path class="st8" d="M101.7,97.4c0-1.6.8-2.1,2.2-1.3,1.6.9,2.5,2.3,2.8,4.1.2,1.4-.7,2.1-2.1,1.5-1.5-.6-2.9-2.7-2.9-4.3Z"/>
    </g>
  </g>
</svg>