<?xml version="1.0" encoding="UTF-8"?>
<svg id="Layer_2" xmlns="http://www.w3.org/2000/svg" width="111" height="111" version="1.1" viewBox="0 0 111 111">
  <!-- Generator: Adobe Illustrator 29.5.1, SVG Export Plug-In . SVG Version: 2.1.0 Build 141)  -->
  <defs>
    <style>
      .st0 {
        fill: #faca45;
      }

      .st1 {
        fill: #384f54;
      }

      .st2 {
        fill: #eec247;
      }

      .st3 {
        fill: #e8c147;
      }

      .st4 {
        fill: #f1c546;
      }

      .st5 {
        fill: #397c96;
      }

      .st6 {
        fill: #405b64;
      }

      .st7 {
        fill: #f16368;
      }

      .st8 {
        fill: #91c63f;
      }

      .st9 {
        fill: #2888c5;
      }

      .st10 {
        fill: #ef6267;
      }

      .st11 {
        fill: #ecc345;
      }

      .st12 {
        fill: #f1bf49;
      }

      .st13 {
        fill: #2988c5;
      }

      .st14 {
        fill: #d05d63;
      }

      .st15 {
        fill: #edc446;
      }

      .st16 {
        fill: #405d66;
      }

      .st17 {
        fill: #fdcc45;
      }

      .st18 {
        fill: #2b4954;
      }

      .st19 {
        fill: #2b4b54;
      }

      .st20 {
        fill: #f4c347;
      }

      .st21 {
        fill: #435f64;
      }

      .st22 {
        fill: #294855;
      }

      .st23 {
        fill: #5b6654;
      }

      .st24 {
        fill: #ee6167;
      }

      .st25 {
        fill: #ffcd45;
      }

      .st26 {
        fill: #3f5b64;
      }

      .st27 {
        fill: #436062;
      }

      .st28 {
        fill: #efbe48;
      }

      .st29 {
        fill: #2e4a54;
      }

      .st30 {
        fill: #f16267;
      }

      .st31 {
        fill: #3b8fc9;
      }

      .st32 {
        fill: #f5c945;
      }

      .st33 {
        fill: #a3934b;
      }

      .st34 {
        fill: #405c64;
      }

      .st35 {
        fill: #d0745c;
      }

      .st36 {
        fill: #6d9e42;
      }

      .st37 {
        fill: #2987c3;
      }

      .st38 {
        fill: #f8c945;
      }

      .st39 {
        fill: #f2676b;
      }

      .st40 {
        fill: #fbcb45;
      }

      .st41 {
        fill: #93c840;
      }

      .st42 {
        fill: #fbfdfe;
      }

      .st43 {
        fill: #f4f7f9;
      }

      .st44 {
        fill: #2d8ac6;
      }

      .st45 {
        fill: #92c83e;
      }

      .st46 {
        fill: #2988c4;
      }

      .st47 {
        fill: #f6c447;
      }

      .st48 {
        fill: #2985bf;
      }

      .st49 {
        fill: #92c83f;
      }

      .st50 {
        fill: #415d65;
      }

      .st51 {
        fill: #eabf47;
      }

      .st52 {
        fill: #f9ca45;
      }

      .st53 {
        fill: #ffce45;
      }

      .st54 {
        fill: #fafcfd;
      }

      .st55 {
        fill: #2e8ac6;
      }

      .st56 {
        fill: #e4be4a;
      }

      .st57 {
        fill: #d8b34a;
      }

      .st58 {
        fill: #f5c447;
      }

      .st59 {
        fill: #2986c2;
      }

      .st60 {
        fill: #fdfdfe;
      }

      .st61 {
        fill: #fccb45;
      }

      .st62 {
        fill: #f9fbfd;
      }

      .st63 {
        fill: #f4c646;
      }

      .st64 {
        fill: #ec6167;
      }

      .st65 {
        fill: #f5ca44;
      }

      .st66 {
        fill: #435e64;
      }

      .st67 {
        fill: #328cc7;
      }

      .st68 {
        fill: #fefefe;
      }

      .st69 {
        fill: #3e5a63;
      }

      .st70 {
        fill: #f6c348;
      }

      .st71 {
        fill: #f7c14a;
      }

      .st72 {
        fill: #bb5a60;
      }

      .st73 {
        fill: #2c4954;
      }

      .st74 {
        fill: #3e5b63;
      }

      .st75 {
        fill: #fcfdfe;
      }

      .st76 {
        fill: #2989c5;
      }

      .st77 {
        fill: #f0ba4a;
      }

      .st78 {
        fill: #e8c048;
      }

      .st79 {
        fill: #8ec23f;
      }

      .st80 {
        fill: #2e8bc6;
      }
    </style>
  </defs>
  <g id="Layer_1-2">
    <g>
      <path class="st22" d="M42.1,84.4c-3.6-2.2-7.3-4.4-10.9-6.7-2.3-1.4-4.7-2.9-7-4.4-.7-.4-1.1-.5-1.5.3-.7,1.2-1.5,2.3-2.4,3.5-1.1,1.6-2.1,1.5-3,0-.2-.3-.3-.3-.6-.2-1.3.2-1.9-.4-1.8-1.7.3-2,.6-4,.9-6,.1-.7.1-1.2-.9-.9-.4.1-.9,0-1.4,0-3.4-.5-6.7-1.4-9.8-3-2.5-1.3-3.6-3.6-3.8-6.2-.3-6.5,1.1-12.6,5.8-17.5,1.9-2,4-3.5,6.7-4.3.3-.1.7-.2,1.1-.1,3.7.9,7.9.8,10.7,4.4.4-1.9,1.3-3.5,1.8-5.2.5-1.9,1.2-2.2,3.1-1.5,1.3.5,2.7.8,4.1,1.3.6.2.7,0,.8-.5.3-1.8,1.2-3.4,1.8-5.2.4-1.5,1.2-1.8,2.7-1.2,1.5.6,3.1.9,4.5,1.5.5.2.7,0,.7-.4.3-1.9,1.3-3.6,1.8-5.4.5-1.7,1.3-2,2.9-1.4.9.4,1.8.7,2.7.9.5.1,1.1.1,1.3.4,1.1,1.2,2.6.5,3.8,1.1.4.2.6-.1.8-.3,2.2-1.6,3.5-1.7,5.8-.2,1.6,1,3.2,2,5.1,3.1-.8-2.1-1.5-3.9-2.2-5.8-.6-1.8-.1-2.4,1.7-2.2,1.9.2,3.9,0,5.8.4.6.1.6-.2.7-.7.4-2,1.2-3.8,2.3-5.5.8-1.3,1.7-1.4,2.8-.3,1,1,2.1,1.9,3,2.9.6.6.9.5,1.5,0,1.4-1.2,2.8-2.4,4.5-3.2,2.1-1,3.2-.5,3.8,1.8.4,1.3.9,2.5,2.6,2.6,1.6.1,2.9,1,3.9,2.2.2.2.3.4.2.6-.2.3-.5.2-.7.3-1.9.2-3.8.4-5.6,1-1.8.5-3.4,1.4-4.5,2.9-1.4,1.8-1.3,3.7.2,5.4,1.2,1.3,2.6,2.3,4.1,3.3,2.1,1.4,4.2,2.9,5.9,4.9,2.7,3.1,3.4,6.6,2.2,10.6-1.8,5.5-4.7,10.2-9.1,14-.3.2-.6.5-.5.9.2,2-1.1,2.8-2.6,3.4-3.3,1.2-6.2,3.2-9.3,4.6,1.4,2.3,1.8,4.6,1.8,7.3,0,5.6-2,10.3-5.7,14.3-3.6,3.9-8.1,5.9-13.3,3.8-.8-.3-1.6-.7-2.4-1-3.8-1.6-6-4.4-6.6-8.6-.7.7-1.5.8-2.3.6-.5-.1-.8,0-1.2.4-1.7,1.3-3.3,2.6-5,3.8-.4.3-.9.6-1.3.8-.5.2-1.2,0-1.2-.4-.2-1.2-1.2-2.1-.9-3.4.2-1.2.3-2.4.5-3.6,0-.8.4-1.5,1.2-1.8,1.1.2,1.2,1.1,1.1,1.9-.1.9-.2,1.7.6,2.3.3.2.3.7.4,1.2.9-.4,1.5-1.1,2.2-1.6.9-.6.8-.8,0-1.3-1-.7-2-1.2-3-1.9-.4-.2-.8-.5-1.1-.9h0Z"/>
      <path class="st13" d="M93.4,66.3c1.6.3,3.4.8,5.1,1.1,3.5.7,7,1.2,10.5,1.9,2.4.5,2.4.6,1.4,2.8-.5,1.2-1.1,2.3-1.8,3.3-.5.7-1.2,1-1.9.5-4.3-2.7-9-4.8-13.2-7.7-.3-.2-.5-.4-.7-.6-.2-.2-.3-.6-.1-.9.2-.3.4-.5.9-.5h0Z"/>
      <path class="st53" d="M10.2,16.8c0,0,0-.3.2-.5.8-1,1.1-2.1,1.6-3.2.2-.4.5-.9,1-.9.6,0,.7.5.9,1,2.7,6.1,6,12,9.5,17.7.2.4.5.7.8,1.1.1.2.5.4.2.7-.2.2-.5.2-.8,0-.6-.2-.9-.7-1.3-1.2-3.3-3.8-6.5-7.6-9.8-11.5-.6-.7-1.2-1.3-1.8-1.9-.3-.3-.6-.7-.6-1.3h0Z"/>
      <path class="st76" d="M91.8,70.3c0,0,.2,0,.2,0,2.3,1,4.7,1.7,6.9,3,.6.4.7,1-.2,1.3-3.1,1.2-6.1,2.7-9.1,4.1-.8.4-1.5,0-1.2-1,.7-2.2,1.4-4.5,2.2-6.7.2-.6.7-.7,1.2-.7h0Z"/>
      <path class="st53" d="M26.7,31.1c-1.1-1.7-1.7-3.4-2.3-5-1.2-3.1-2.2-6.3-3.4-9.4-.3-.9-.2-1.4.7-1.8.8-.4,1.5-1,2.3-1.5.4-.2.8-.5.9.3.5,5.6,1.5,11.3,1.9,16.9,0,0,0,.2,0,.5h0Z"/>
      <path class="st49" d="M5.1,73.3c-1.2,0-2-.5-2.4-1.7-.1-.4-.2-.8-.3-1.2-.4-2.2.3-2.9,2.5-2.4,1.8.5,3.7,1,5.5,1.6.7.2,1.4.6,1.3,1.5,0,.8-.7,1.2-1.4,1.3-1.7.3-3.5.5-5.2.8h0Z"/>
      <path class="st7" d="M62,13.1c.6.2,1.6.4,2.4.8.9.4,1,1.3.4,2-1,1.5-2.1,3-3.2,4.4-.3.4-.7.9-1.3.6-.6-.3-.6-.8-.5-1.3.1-1.7.3-3.3.4-5,0-.9.5-1.5,1.8-1.5h0Z"/>
      <path class="st17" d="M42.1,84.4c2,.9,3.7,2.2,5.6,3.4-1.4,1.1-2.7,2-4.1,3.1,0-1,.3-1.8-.8-2.3-.6-.2-.2-.9-.1-1.4,0-.9.4-1.9-.8-2.5,0,0,0-.2.1-.3h0Z"/>
      <path class="st41" d="M12.8,74.3c0,.9-.1,1.8-1.1,2.2-.7.3-2.7-.1-3.2-.7-.5-.6-.5-1.3.1-1.8.5-.4,1.1-.8,1.7-1.1.5-.3,1.1-.8,1.7-.4.6.4.6,1.1.7,1.8Z"/>
      <path class="st39" d="M58.8,20.3c0,.5-.3.7-1,.6-.7-.2-2.1-2-2-2.7.1-.7.6-.9,1.2-.7.6.2,1.8,2.1,1.7,2.8Z"/>
      <path class="st45" d="M91,20.1c-1.6.8-3.2,1.6-4.5,2.9-3,3.1-3,6.9,0,10.1,1.5,1.5,3.3,2.6,5,3.8,1.8,1.2,3.5,2.6,4.9,4.4,1.6,2,2.1,4.3,1.5,6.8-1.2,5-4,9.1-7.3,13-.4-.3-.2-.6-.2-.9,0-3.8,0-7.6,0-11.4,0-.3,0-.6,0-.8.6-2-.5-3-2.1-3.8-2.5-1.2-4.7-2.9-7.2-4-.5-.2-.4-.5-.4-.9-.2-2.8-1.4-4.9-3.9-6.1-1.2-.6-2.3-1.2-3.5-1.9-2.1-1.2-2.6-3.6-1.1-5.5.5-.6,1-1.2,1.6-1.6,5.2-3.4,11-4.3,17-4.2h0Z"/>
      <path class="st30" d="M51.4,76.2v-5.1c0-.8.5-1.2,1.1-1.6,8.2-4.9,16.5-9.8,24.7-14.7,3.3-2,6.8-3.6,10.3-5.1.2,0,.4-.1.6-.2.2,2.9,0,5.7,0,8.4,0,1.5,0,3,0,4.4,0,1-.5,1.8-.3,2.8,0,.4-.5.5-.9.7-3,1.7-6.1,3.4-9.1,5-.3.2-.6.6-1.1.3-.5-.3-.6-.8-.5-1.4.2-1.2.2-2.3.1-3.5,0-2.2-1.5-3.2-3.5-2.4-1.3.5-2.5,1.1-3.7,1.7-1.3.6-2.6,1.2-4.1,1.5-2.5.5-4.5,2-6.2,3.8-2,2.2-4.7,3.3-7.3,5.3h0Z"/>
      <path class="st9" d="M42.1,38.9c-.2.2-.2.5-.7.6-3.5.6-6.3,2.8-9,4.9-1,.7-.7,1.7.5,2,.4,0,.7.2,1.1.5,6.6,4.7,13.3,9.1,20.3,13.2,1.3.7,2.5,1.6,4.1,0-.3,1.2-.5,2-.7,2.8-.1.5-.4.5-.8.4-.8-.3-1.7-.5-2.5-.8-2.1-.8-2.1-.8-3.4.9-.4,0-.5-.3-.8-.5-.4-.2-.7-.1-.6.3.2,1.4-.7,1.3-1.7,1.2-.3,0-.5,0-.8,0,1,.5,3-.1,2.8,2.1-.5,2.2-.5,2.2-2.5,1-9.9-5.9-19.7-11.9-29.6-17.8-.9-.5-.8-.8,0-1.3,7.9-4.7,15.9-9,24-13.4.2-.1.4-.2.7-.3,0,.8-.2,1.4-.2,2.1.1.3.1.6.1.9,0,.4,0,.7-.3,1h0Z"/>
      <path class="st45" d="M27.2,72.5c-3.2-1.8-6.5-3.7-9.8-5.5-.6-.4-.6-.9-.6-1.5-.2-3.3-.2-6.6,0-9.9,0-1.5,0-3,0-4.8,2.5,1.5,4.6,2.8,6.8,4,7.9,4.8,15.9,9.6,23.8,14.5,1.4.8,2,1.9,1.9,3.4-.2,4-.3,8,.1,12.1,0,.8-.3.8-.8.5-.4-.2-.8-.3-1.2-.6-3-2.2-6.2-3.9-9.3-5.8,0-.2,0-.3.3-.4.4-.1.8-.2,1.2,0,1.8.3,3.1-.6,4.3-1.7.9-.8,1.2-1.9,1-3-.8-3.6-2.8-6.4-6.1-8.2-1.2-.7-2.5-.7-3.6.3,0,0-.1,0-.2.1-2,1-3.4,2.4-3.2,4.9-.1.2-.3.4-.6.4-.7,0-1.4.2-2-.4-.3-.2-.6-.6-1-.3-.4.2-.1.7-.1,1,0,.1,0,.2,0,.4-.1.4-.3.8-.8.5h0Z"/>
      <path class="st50" d="M74.2,45c.5-.9.5-1.8.5-2.6,0-.6,0-1.2.2-1.8.1-.6.4-.9,1-.9.9,0,1.8,0,2.5-.5.5-.3.6,0,.6.4-.1,1.5.3,2.9.3,4.4,0,.7-.2,1.2-.7,1.5-1.1.8-2.2,1.5-3.2,2.3-.5.3-.6.2-.7-.3,0-.2,0-.4-.2-.5-.3,0-.4.2-.5.4-.5,2.8-2.6,2.3-4.4,2.3-.7,0-1.4-.3-1.6-1-.3-.8.4-1,.8-1.4.2-.2.5-.4.8-.5,1.9-1.1,1.9-3.5,0-4.7-2.6-1.5-5.3-2.9-7.9-4.5-1.2-.7-2.5-.9-3.9-.8-.8,0-1.2-.2-1.1-1,0-1.8,0-3.5,0-5.3,0-.3-.1-.6.2-.7.3-.1.4.2.6.3,1.4,1.4,3.1,2.3,4.8,3.1,3.5,1.8,7.1,3.6,10.6,5.4.9.4,1,1,1,1.8,0,1.5-.1,3,.4,4.5h0Z"/>
      <path class="st25" d="M67.6,77.1c.3.7.6,1.2,1.1,1.7,1.1.9,2.3.7,2.8-.6.5-1.1.8-2.2,1.2-3.2,0-.2.2-.5,0-.7-1.5-1,0-.9.4-1,1.8-.5,3.9,1,4.6,3.1,2,5.8,0,10.7-3.5,15.2-.6.8-1.3,1.6-2.2,2.2-1.8,1.3-4,1.2-5.6-.3-2.7-2.5-3.2-5.6-2.6-9,.5-2.7,1.2-5.2,3.3-7.2.1-.1.2-.2.4-.3h0Z"/>
      <path class="st50" d="M75.4,38.6c-.7,0-1.4-.2-1.9-.6-3-2.2-6.5-3.6-9.7-5.4-1.9-1-3.8-2-5.5-3.3-.7-.5-1.2-1.1-1.1-2,.2-.9.9-1.2,1.8-1.6,1.9-.7,3.3.4,4.8,1.2,4.9,2.7,9.5,5.9,14.3,8.8.5.3.8.7.7,1.3,0,.5-.4.8-.9.9-.8.2-1.5.3-2.3.5h0Z"/>
      <path class="st45" d="M63.6,48.6c-.5.4-1.2.6-1.6,1.2-.4.4-.9.5-1.4.7-.1,0-.2,0-.3,0-1.4-.5-2.8-1-3.9-2.1-.4-.3-.9-.6-1.5-.8-.9-.3-1.8-.5-2.1-1.5,0-.7-.4-1.3-.1-2,1.4-2.3,3.2-2.9,5.6-1.9,1.2.5,2.3,1.4,3.5,2.1.6.5,1.2.9,1.7,1.4.6.9.8,1.9.1,2.8h0Z"/>
      <path class="st30" d="M43.3,47.7c0,.2,0,.4,0,.6,0,.1,0,.2-.2.3-.8.5-.3.7.2,1v.6c0,.5-.4.6-.8.7-2.6-1.7-5.2-3.4-7.8-5-.9-.6-.7-.9,0-1.4,1.8-1,3.5-2,5.3-3,.7-.4,1.4-.4,2,0,.4,0,.9,0,1.1.5,0,.1,0,.3,0,.4,0,.2,0,.3-.2.4-.9.5-.4.8.2,1.1v.5c0,.2,0,.3-.2.4-.8.5-.4.9.2,1.2,0,.2,0,.3,0,.4,0,.2,0,.3-.2.4-.8.5-.2.8.2,1h0Z"/>
      <path class="st8" d="M50,41.2c0,.1.1.2.2.3-.2.5-1.1.4-1.2,1.1.3.4.8,0,1.1.4v.5c-.2.7-1,.9-1.5,1.3-.9.1-1.5.6-1.6,1.6-.1,1.1.5,1.7,1.4,2.1.5.6,1.3-.2,1.9.2,0,.2,0,.4,0,.5,0,.6-.8.5-1,1,.3.4.8,0,1.1.3-.3.5,0,.8.5.9-.7.5-1.5.6-2.3.8-.3-.2-.3-.5-.3-.8-.2-1.1-.4-1.2-1.3-.6-.3.2-.5.4-.7,0,0-4.5,0-9,0-13.5,0-.4-.4-1,.5-1,.3.7.5,1.4,1.5,1.3.3,0,.5.1.6.4.2.8.8.7,1.5.7.6.2.2.5.2.9,0,.1-.2.2-.2.2-.4.2-1,.3-1,.9,0,.5.8,0,1.1.4h0Z"/>
      <path class="st10" d="M52.8,46.1c.5.7,1.5.9,2.1,1.5,0,.8,0,1.6,0,2.4s0,1.5-.5,2.1c-.4.5-.5,1.2,0,1.8-.1.6-.2,1.1.7.7.4-.2.8-.5,1.3,0,0,.5-.6.6-.6,1.1,1.1.4,2,1.2,3.3.8,0,0,.2,0,.3.1,0,.5-.5.8-.3,1.3-2.2,1.3-4.3,1.1-5.9-.8-.6-.7-.2-1.8-.3-2.7-.1-2.6,0-5.2-.1-7.8,0-.2,0-.4.1-.6h0Z"/>
      <path class="st61" d="M14.6,63.9c-4.2-2.7-4.4-10.4-.4-15.4,0,.7.2,1.1.3,1.6.2.7.1,1.3-.5,2-1.7,1.8-1.5,5.5.3,7.3.2.2.3.3.3.6v4Z"/>
      <path class="st6" d="M9.8,62c0,.7-.4.9-.9,1.1-.5.2-.6-.3-.7-.6-.2-.6-.4-1.3-.6-1.9,0-.2,0-.7-.4-.6-.4,0-.4.4-.4.7,0,.2,0,.4,0,.6,0,.3.1.8-.4.9-.4,0-.7-.1-.9-.4-.7-.9-1.4-1.6-2.6-1.8-.3,0-.4-.3-.5-.6,0-.6-.2-1.2-.2-1.9,0-.5,0-1,.7-1s.7.4.7.9c0,.6,0,1.2.3,1.7.2.5.6.5.8,0,.4-.6,3-1.8,3.7-1.7.3,0,.5.2.6.5.2,1.4.5,2.7.7,4.1h0Z"/>
      <path class="st46" d="M56.9,38.9c1.2-.6,2.2-.6,3.2,0,2.4,1.5,4.9,2.9,7.3,4.3.6.3,1.4.7,1.1,1.5-.3.8-1.2,1.1-1.8,1.7-.2.1-.4,0-.5-.2-1.8-3-4.8-4.5-7.7-6.2-.5-.3-.9-.6-1.6-1h0Z"/>
      <path class="st46" d="M55.2,29.3c0,.8-.2,1.5-1.1,1.9-1.4.8-2.8,1.7-4.1,2.7-.8.6-1.5.9-2.4.3-.5-.4-1.5-.3-1.6-.9,0-.6,1-.7,1.5-1,2.1-1.2,4.1-2.7,6.3-3.6,1-.4,1.4-.2,1.4.6h0Z"/>
      <path class="st34" d="M58.1,77.4c-.1.6,0,.9.7.6.9-.3,1.5.5,2,1.1.6.9.8.5,1.1-.1.4-.8.9-1.5,1.3-2.3.1-.2.3-.4.6-.3.2.2,0,.4,0,.6-1,1.3-1.3,3-2.8,4.1-1.4,1-1.9,1.1-3-.2-.3-.4-.8-.8-1.2-1.2-.3-.3-1-.3-.7-1,.3-.8.5-1.9,1.3-2.3.7-.3.8.4.7,1h0Z"/>
      <path class="st34" d="M5.6,47.5c-.1.6,0,.9.7.6.9-.3,1.5.5,1.9,1.1.6.9.8.5,1.1-.1.4-.8.9-1.5,1.3-2.3.1-.2.3-.4.6-.3.2.2.1.4,0,.6-.9,1.3-1.3,3-2.8,4.1-1.4,1-1.9,1.1-2.9-.2-.3-.4-.8-.8-1.2-1.2-.3-.3-1-.3-.7-1,.3-.8.5-1.9,1.3-2.3.7-.3.8.4.7,1h0Z"/>
      <path class="st10" d="M61.7,44.5c-1.2-.7-2.3-1.4-3.5-2-1.4-.7-2.8-.9-4,.4-.4.5-1,.8-1.5,1.2-.2-1.9.3-3.9-.5-6,3.7,1.7,6.8,3.8,9.8,6.2,0,.2,0,.3-.3.3h0Z"/>
      <path class="st17" d="M52.2,26.7c-2.4,1.4-4.6,2.6-7.1,4.1.7-2,1.2-3.7,2.1-5.3.2-.4.4-.4.8-.2,1.2.6,2.7.8,4.2,1.4Z"/>
      <path class="st61" d="M42.3,32.4c-2.4,1.4-4.5,2.6-7,4,.7-2,1.2-3.6,2.1-5.2.2-.3.3-.4.7-.2,1.2.6,2.6.8,4.2,1.4h0Z"/>
      <path class="st40" d="M78.8,51.5c.7-1.7,1.2-3.1,1.8-4.4.3-.8.8-1.2,1.8-.7,1,.5,2.2.7,3.6,1.1-2.4,1.3-4.6,2.6-7.1,4h0Z"/>
      <path class="st26" d="M59.8,88.4c0,.5,0,.9-.3,1.2-.2.2-.3.5-.4.8,0,.5.4,1.2-.3,1.5-.7.2-1-.5-1.3-.9-.3-.5-.9-.7-1.3-1-.4-.2-1.1,0-1.2-.6-.2-.8-.2-1.7-.3-2.6,0-.4.4-.6.8-.5.4,0,.6.3.6.8,0,.6,0,1.3.3,1.9.2.5.7.6.8,0,.3-1.4,1.7-.8,2.4-1.3.3-.2.2.5.3.7h0Z"/>
      <path class="st61" d="M22.2,43.5c-2.2,1.5-4.1,2.8-6.3,4.3.3-2.1,1-3.8,2-5.3.1-.2.3-.4.6-.2,1.1.6,2.3.8,3.7,1.3h0Z"/>
      <path class="st40" d="M68.7,57.5c.5-1.7,1.1-3.2,1.8-4.5.3-.6.7-.8,1.4-.5,1,.5,2.2.7,3.5,1.2-2.3,1.3-4.3,2.5-6.7,3.9Z"/>
      <path class="st61" d="M32.6,37.9c-2.1,1.4-4.4,2.3-6.6,3.4.5-1.6,1.1-3.1,1.8-4.5.2-.3.4-.5.8-.3,1.2.6,2.6.8,4.1,1.4h0Z"/>
      <path class="st24" d="M63.6,48.6c.1-1,.2-2-.4-2.9,0-.2,0-.3.2-.2,1.4,1.2,2,2.6,1.8,4.4-.2,1.3-.2,2.7-.3,4,0,.5,0,.9-.5,1.1-.3.1-.6.5-1,.2-.3-.2-.2-.6-.1-.9.1-1.9.2-3.8.3-5.7h0Z"/>
      <path class="st0" d="M65.5,59.6c-2.2,1.3-4.1,2.4-6.3,3.7.5-1.7,1-3,1.7-4.2.2-.4.7-.7,1.2-.6,1,.3,2.1.7,3.4,1.1Z"/>
      <path class="st37" d="M56.3,48.3c1.4.5,2.5,1.5,4,1.9,0,.2,0,.4-.1.6-.6,1.3-.5,1.6.8,2.1.2.1.5.2.7.5,0,.5,0,.9-.8.5-1.4-.7-2.7-1.4-4.1-2.1-.4-.2-.4-.5-.4-.9,0-.9,0-1.7,0-2.6h0Z"/>
      <path class="st59" d="M64.5,57.1c.2-.5.6-.5.9-.6.7-.3,1.2-.8,1.2-1.8,0-1.1,0-2.2,0-3.3,0-.5.2-.7.6-.4,0,0,.1,0,.2.1,1.1.6,1.4,1.4.9,2.6-.5,1.1-.8,2.2-1.1,3.3-.1.7-.4,1-1.1.6-.5-.2-1.1-.3-1.7-.5h0Z"/>
      <path class="st79" d="M31,71.1c.2,0,.5,0,.6-.3.3,0,.4.2.5.5.5,1.8,1.6,3.4,2.8,4.9.2.3.5.5.4.9-.1,0-.2,0-.3,0-2.7-1.4-5.2-3-7.7-4.5.5,0,.6-.4.6-.8.4,0,.6.3.8.6.3.2.5.5.9.5,1.4.3,1.8-.2,1.5-1.8h0Z"/>
      <path class="st26" d="M56.8,82.2c-.2.6-.4,1.2-.4,1.8,0,.6,0,1.1-.9,1.1-.8,0-.8-.6-.8-1.2,0-.7.1-1.3.3-2,.1-.4,0-1.1.7-1.1.6,0,1.3.3,1.6.8s.7,1.4,1.6,1.6c0,0,0,0,.1,0,.3.4.2.8,0,1.1-.4.8.5,2-.8,2.5-.6.2-.9,0-.9-.7,0-1,0-1.9,0-2.9,0-.5,0-1-.6-1.2Z"/>
      <path class="st26" d="M4.4,52.3c-.2.7-.4,1.3-.4,2,0,.5-.2.9-.8.9-.7,0-.9-.4-.9-1,0-.7.2-1.3.3-2,0-.5,0-1.3.8-1.3.6,0,1.3.3,1.6,1,.2.4.4.7.7,1.1.3.4,1.1,0,1.1.7,0,.9-.1,1.8-.3,2.7,0,.5-.6.7-1,.6-.5,0-.5-.5-.5-.9v-2.8c0-.5,0-.9-.6-1.2h0Z"/>
      <path class="st52" d="M19.3,74.2c-.3-.8-.5-1.5-1.4-1.5-.5,0-.4-.4-.4-.7,0-.9.1-1.8.1-2.8,1.4.6,2.4,1.6,3.5,2.3.3.2.2.4,0,.6-.6.7-1.2,1.4-1.9,2.1h0Z"/>
      <path class="st0" d="M80.7,18.9c-1.8.5-3.3,1-5.1,1.8.7-1.7,1.3-3.3,2.2-4.5,1,.9,1.9,1.8,3,2.7Z"/>
      <path class="st21" d="M46,50.9c.2,0,.3.2.5,0,.3-.5.7-.7,1.3-.5.6.2.6.7.6,1.3,0,.3,0,.5,0,.8.6.4,1.2-.1,1.8.2,0,.5.5.4.7.7-.7.5-1.7.6-2.4,1.2-.8-.4-1.5-.9-2.2-1.3-.8-.5-.3-1.5-.4-2.3h0Z"/>
      <path class="st64" d="M50.4,35.5c1.5-.9,2.9-1.7,4.3-2.5.4,1.5-.5,2.7-.5,4.1,0,.4-.4.1-.6,0-1-.5-2-1-3.2-1.6Z"/>
      <path class="st38" d="M56.1,65.3c-1.7,1.1-3.2,2.2-5.1,3.4.5-1.7,1-2.9,1.7-4.1.2-.4.5-.4.9-.3.8.3,1.5.6,2.5,1h0Z"/>
      <path class="st38" d="M67.6,22.3c1.5.2,2.9.3,4.5.5-1.2,1.2-2.2,2.3-2.8,3.9-.7-1.5-1.2-2.8-1.7-4.4Z"/>
      <path class="st66" d="M48.3,48.8c-1.6-.5-2.2-2.1-1.3-3.5.4-.6,1-.6,1.6-.5.2,0,.3,0,.5,0,.6.4.6,1-.1,1.8.4.4.9,0,1.3.2,0,.2,0,.4.3.6-.5.8-1.6.8-2.2,1.4h0Z"/>
      <path class="st47" d="M59,56.4c-.8.2-1.8,1.3-2.4-.3,0,0-.1,0-.2,0-.5.2-1.1.3-1.2-.3-.2-.6.6-.8,1-1.2,0,0,0-.1.2-.1.7-.2,1.5-1.2,1.8.4,0,0,.2,0,.3,0,.4,0,.8-.2,1,.2.3.6-.3.9-.6,1.3h0Z"/>
      <path class="st43" d="M49.8,66.7c-.2-1.2-.9-1.6-2.1-1.6-.3,0-.7,0-1-.2-.2,0-.4-.2-.4-.4,0-.3.3-.4.5-.4.6,0,1.2,0,1.8,0,.3,0,.8,0,.7-.5,0-.5-.5-1.2.4-1.3.7-.1,1,.5,1.3,1,0,1.2-.7,2.2-1.1,3.3h0Z"/>
      <path class="st63" d="M85.4,18c1.3-.8,2.4-1.6,3.7-2.2.4-.2.7,0,.8.4.1.6.3,1.1.5,1.8h-5Z"/>
      <path class="st48" d="M78,48.6c-.2,1.4-.8,2.5-.7,4-.9-.9-2-1-3.2-1.5,1.3-.8,2.6-1.6,3.9-2.5Z"/>
      <path class="st16" d="M61.7,53.4c-.1,0-.2,0-.3,0-2.2-.5-2.5-1.4-1-3.1h0c.5-.1,1-.2,1.3.3,0,1,0,1.9,0,2.9h0Z"/>
      <path class="st69" d="M12.6,42.9c0,.4-1.3,1.8-1.7,1.8-.3,0-.6-.2-.8-.5-.2-.3-.2-.6,0-.9.3-.4.7-.8,1.1-1.1.3-.2.6-.7,1-.4.2.2.2.7.4,1.1h0Z"/>
      <path class="st69" d="M65,72.7c0,.4-1.2,1.9-1.6,1.9-.3,0-.6-.2-.8-.4-.2-.3-.2-.6,0-.9.4-.4.8-.8,1.2-1.2.3-.2.6-.7.9-.4.2.2.2.7.3,1h0Z"/>
      <path class="st69" d="M9.3,52.9c-.2.8-.3,1.6-.3,2.4,0,.8-.7.7-1.1.7-.5,0-.2-.5-.2-.8.2-.8.2-1.7.6-2.5.1-.3.3-.7.8-.6.4,0,.2.5.2.9h0Z"/>
      <path class="st74" d="M9,44.7c.5.3,1.1.8,1.1,1.3,0,.7-.7,1.4-1.5,1.5-.5.1-.8-.3-.8-.8,0-.9.5-1.5,1.1-2Z"/>
      <path class="st74" d="M60.3,76.3c.1-.6.4-1.4,1.2-1.5.5-.1.9.7,1.1,1.2.2.4-1.1,1.6-1.5,1.6-.7,0-.8-.5-.7-1.2h0Z"/>
      <path class="st69" d="M58.9,75.5c0,0-.2,0-.2,0-.3-.2-.6-.4-.5-.8.2-.8.8-1.4,1.4-1.9.2-.2.5-.1.8,0,0,0,.2.2.2.3.2.4-1.3,2.4-1.7,2.4h0Z"/>
      <path class="st69" d="M8.3,43.5c-.6.8-1.1,1.5-1.6,2.1-.2.2-.4,0-.6-.2-.2-.2-.4-.4-.3-.7.4-.7.8-1.4,1.5-1.8.5-.3.7.2,1,.6h0Z"/>
      <path class="st69" d="M16.1,39.7c0,.4-2,2.1-2.4,2.1-.3,0-.5-.1-.6-.4-.1-.3-.1-.6,0-.8.7-.5,1.4-1.1,2.3-1.2.2,0,.6,0,.6.3h0Z"/>
      <path class="st69" d="M68.6,70c-.3.2-.7.6-1.1.9-.3.2-.6.4-.9.6s-.6.3-.8,0c-.3-.3-.3-.7,0-1,.7-.5,1.3-1,2.2-1.2.3,0,.6,0,.7.6Z"/>
      <path class="st20" d="M56.4,54.4c0,0-.1,0-.2.1-.5-.1-.8.2-1.2.3-.4.1-.9.6-1.3,0-.3-.5.4-.7.6-1,.4-.2.7-.3,1.1-.5.4-.2.8-.5,1.2,0,.3.4-.2.7-.2,1.1h0Z"/>
      <path class="st3" d="M50.2,46.8c-.6.2-1.4.8-1.7,0-.4-.8.8-.9,1.2-1.3,0-.5-.7-.2-.9-.6.4-.4.8-.4,1.2,0,0,.2-.1.4.1.5.3,0,.8-.2.9.4,0,.5-.5.6-.8.9h0Z"/>
      <path class="st65" d="M50,41.2c-.5,0-1.3.5-1.6-.2-.2-.7.6-.9,1.2-1.2.2,0,.4,0,.6-.1.4,0,.9,0,.9.5,0,.7-.5.9-1,1Z"/>
      <path class="st2" d="M42.1,37.8c0-.3,0-.5.1-.8.4-.2.8-.4,1.3-.5.4-.1.9-.3,1.2.2.2.5-.1.8-.5,1.1-.7.7-1.4.8-2.1,0Z"/>
      <path class="st27" d="M50,38.8c-.1.2-.3.4-.6.4-.3,0-.7,0-.8-.2-.2-1.4-2.9-.5-2.3-2.6,1.1,1,2.6,1.3,3.6,2.5Z"/>
      <path class="st78" d="M48.3,48.8c.3-1.1,1.4-1,2.2-1.4.3,0,.6,0,.6.4,0,.6-.5.8-.9,1-.6,0-1.3.9-1.9,0h0Z"/>
      <path class="st70" d="M43.3,45.9c-.5,0-1.1.2-1.1-.5,0-.8.8-.7,1.2-1.1.5,0,1.2-.5,1.5.2.2.7-.6.9-1.1,1.1-.1,0-.3.2-.4.2h0Z"/>
      <path class="st4" d="M44.7,38.3c.3,1.4-.9,1.2-1.6,1.5-.5.2-1,.1-1-.6.7-1,1.4-1.3,2.6-.9Z"/>
      <path class="st65" d="M50,43c-.2,0-.4,0-.6.1-.4.2-.7.1-.9-.3-.2-.5.2-.6.5-.8.3-.3.8-.4,1.2-.5.3,0,.8-.1.8.4,0,.7-.6.8-1,1.1h0Z"/>
      <path class="st11" d="M50.2,50.7c-.5,0-1.3.7-1.5,0-.2-.7.6-.8,1.1-1,.1,0,.3-.2.4-.2.4-.1.9-.2,1,.3.2.7-.5.8-1,1h0Z"/>
      <path class="st12" d="M43.3,47.7c-.4,0-1,.3-1.1-.2-.1-.7.7-.8,1.1-1.1.2,0,.3,0,.4-.1.4-.1.8-.2,1,.2.2.5-.3.7-.7.9-.3.1-.6.3-.8.4h0Z"/>
      <path class="st58" d="M43.3,43.8c-.4-.1-1,.5-1.2-.2-.2-.8.8-.8,1.2-1.2.2,0,.3,0,.5,0,.3,0,.8-.2.9.2.1.4-.2.6-.5.8-.3.2-.5.3-.8.5h0Z"/>
      <path class="st51" d="M43.3,41.9c-.4,0-.9,0-1.1-.5.3-.6.9-.9,1.5-1.1.4-.2.8-.2,1,.2.2.4-.2.6-.4.9-.3.2-.6.4-.9.5h0Z"/>
      <path class="st15" d="M50,45c-.4,0-.8,0-1.2,0,0,0-.2-.1-.2-.2.2-.7,1-.9,1.5-1.2.4,0,.8,0,.8.5,0,.6-.5.7-.9,1Z"/>
      <path class="st71" d="M43.4,49.6c-.4-.1-1,.5-1.1-.2-.2-.8.7-.8,1.1-1.1h1.2c0,.8-.8.9-1.2,1.3Z"/>
      <path class="st32" d="M50.2,52.6c-.4,0-.8.2-1.1.3s-.7,0-.7-.5c.6-.7,1.4-.8,2.2-.8.5.6-.4.6-.5,1Z"/>
      <path class="st72" d="M51.4,37.9c-1.4-.7-2.8-1.4-4.1-2.3,0-.1.1-.2.2-.3l4.1,2.3c0,.1-.1.2-.2.3Z"/>
      <path class="st56" d="M48.6,54.5c.5-1,1.4-1.2,2.4-1.2.1.6-.4.7-.8,1-.1.1-.3.2-.4.2-.4.1-.8.2-1.2,0h0Z"/>
      <path class="st14" d="M46,34.7c-.7-.1-1.2,1.2-2,.4-.2-.1-.3-.6,0-.8.7-.5,1.4,0,2.1.3h0Z"/>
      <path class="st28" d="M42.5,50.9c.3-.2.6-.5.9-.7.3,0,.5-.2.8-.2.1,0,.3,0,.4.2,0,0,0,.3,0,.4-.6.5-1.2,1.1-2,.3Z"/>
      <path class="st23" d="M44.7,38.3c-1-.2-1.8.3-2.6.9,0-.1,0-.2,0-.3,0-.4,0-.7,0-1.1.7.5,1.4,0,2.1,0,.2.2.3.4.4.5Z"/>
      <path class="st36" d="M34.9,77c.1,0,.3,0,.4,0,1.3,0,2.2.9,3.1,1.7,0,0-.2.2-.3.3-1.1-.5-2.2-1.1-3.2-1.9h0Z"/>
      <path class="st77" d="M59,57.9c-1.1-.7.1-.9.3-1.3,0,0,.2,0,.3-.1.3,0,.3,0,.3.3-.3.4-.2,1-.9,1.2h0Z"/>
      <path class="st57" d="M49.8,54.5c0-.2.2-.2.4-.2,0,.3-.4.6.2.7.3,0,.7,0,.6.5,0,0,0,.2-.1.2-.4.1-.6-.2-.8-.3-.3-.2-.2-.5-.3-.8h0Z"/>
      <path class="st35" d="M63.4,45.4c0,0-.1.2-.2.2-.5-.4-1-.8-1.5-1.1,0,0,.2-.2.3-.3.6.3,1,.7,1.4,1.2h0Z"/>
      <path class="st5" d="M61.7,50.5c-.4,0-.9-.2-1.3-.3.5-.3,1-.5,1.5-.5,0,.3,0,.5-.2.7h0Z"/>
      <path class="st33" d="M59.8,56.7c0,0-.2-.2-.3-.3.5-.3.8-.8,1.6-.6-.5.3-.9.6-1.3.9h0Z"/>
      <path class="st75" d="M41.9,60.5c-.9.5-1.7.2-2.5,0-1.2-.4-2.3-1.2-3.4-1.9-.4-.3-.7-.6,0-1,1.5-.8,2.9-1.6,4.4-2.4.4-.2.9-.2,1.2,0,1,.6,1.9,1.1,2.8,1.7.4.3.8.7.7,1.3-.2.7-.8.8-1.3.8-.6,0-1.1,0-1.1.8,0,.4-.2.7-.7.7h0Z"/>
      <path class="st75" d="M28.9,50.9c-1.2-.6-1.5.2-1.7,1.2,0,.4-.3.7-.7.6-.5,0-.9-.3-1-.9,0-.2.1-.5.1-.7,0-.5.7-1,0-1.6-.7-.5-1.3-.5-2,0-.5.4-1.1.7-1.8.4-.3,0-.5-.3-.6-.5,0-.3.2-.4.4-.5,1.4-.8,2.8-1.6,4.3-2.4.4-.2.9-.2,1.3,0,1,.6,2.1,1.3,3.1,2,.4.3.9.7.7,1.4-.2.7-.7.9-1.4.9-.2,0-.4,0-.7.1h0Z"/>
      <path class="st54" d="M41.9,60.5c.2-.2.5-.5.7-.7,0,.7.5.3.8.2,1.6-.4,3.1.1,4.4,1,.5.3,1,.8.8,1.6-.1.7-.7.9-1.3,1.1-1.9.5-3.5-.3-4.9-1.4-.6-.5-.2-1.2-.5-1.8h0Z"/>
      <path class="st42" d="M29.9,51.2c1.5.1,2.7.5,3.7,1.4,1,.9.7,2-.5,2.4-1.5.5-4.1-.2-5.2-1.5-.6-.8-.4-1.7.5-2,.5-.2,1.1-.2,1.5-.3Z"/>
      <path class="st62" d="M32.9,56.5c-.4,0-1,0-1.1-.5-.1-.6.5-.4.8-.5,2.6-.7,5.2-1.3,7.8-2,.3,0,.6,0,.9,0,.4,0,.8,0,.8.5,0,.4-.4.4-.7.5-2.7.7-5.5,1.4-8.2,2.1-.2,0-.3,0-.5,0h0Z"/>
      <path class="st22" d="M38.3,78.6c-1.1-.4-2-1.2-3.1-1.7-1.7-1.8-3-3.9-3.7-6.2-.3-2,.5-3.2,2.2-4.5,3.3-2.3,4.7-1.7,7.3.6,2,1.8,3.5,4,4,6.6.3,1.6-.2,2.8-1.6,3.9-1.6,1.3-3.3,1.4-5.2,1.2h0Z"/>
      <path class="st22" d="M30.3,64.5c.6,2.6-1.5,3.8-3.2,4.9-1.6,1-3.3.5-4.9-.5-2.8-1.7-4.4-4.2-4.8-7.4-.2-1.6,0-2.9,1.6-3.8.5-.3,1-.6,1.4-1,1.4-1.2,2.8-1.1,4.3-.3,1.5.8,2.9,1.8,4.1,3.1,1.2,1.3,1.7,2.9,1.6,4.8h0Z"/>
      <path class="st19" d="M31,71.1c.5.5.9,1,.3,1.7-.5.6-2,.7-2.6.1-.4-.3-.6-.8-1-1.2,0-.5-.5-1.2.2-1.6.6-.3,1,.1,1.4.6.5.6,1.1.3,1.7.4h0Z"/>
      <path class="st73" d="M75.9,86.1c-.4,1.6-1.4,3-2.6,4.2-.4.4-.8,1.3-1.6.9-.8-.4-.2-1.2,0-1.8,0-.6.2-1.2.4-1.9.3-1.5,1.3-2.4,2.8-2.6.8,0,1.1.3,1.1,1.2h0Z"/>
      <path class="st29" d="M77.1,80.3c0,.4,0,.8-.1,1.2-.3.8-.7,1.2-1.6.7-2-1.1-2-1.1-1.5-3.2.2-.7.3-1.5.4-2.2.2-1,.8-1.2,1.5-.4,1,1.1,1.3,2.5,1.3,4h0Z"/>
      <path class="st73" d="M64.4,86.2c.2-1.9.7-3.7,1.5-5.5.4-.9,1-.3,1.3.2.7,1,.9,2.2.4,3.4-.3.9-.8,1.7-1.3,2.5-.3.4-.5,1.1-1.3.8-.7-.2-.7-.8-.6-1.4h0Z"/>
      <path class="st18" d="M69.6,91.3c0,1.3-.5,2-1.5,2s-2.5-1.4-2.6-2.6c0-.7,1.8-2.4,2.7-2.4.9,0,1.4,1,1.4,2.9h0Z"/>
      <path class="st1" d="M72.1,82.9c0,.9-.9,2.5-1.3,2.5-.4,0-1.4-1.5-1.4-2.1.1-1,.9-.8,1.6-.8.5,0,1.1-.2,1.1.4Z"/>
      <path class="st26" d="M57.7,85.1c0-.6-.1-1.4.5-1.5.7,0,.7.7.7,1.2,0,.6.1,1.4-.7,1.4-.7,0-.5-.8-.5-1.1h0Z"/>
      <path class="st26" d="M5.2,55c.1-.4-.2-1.2.5-1.2.8,0,.8.8.7,1.4,0,.5,0,1.3-.7,1.3-.8,0-.4-.9-.5-1.4h0Z"/>
      <path class="st55" d="M39.8,59.5c-.6,0-1.2-.5-1.8-.9-.2,0-.4-.3-.1-.5.5-.3.9-.8,1.6-.6.4.1.7.4,1,.6.3.2.6.5.4.9-.2.3-.5.4-1,.4Z"/>
      <path class="st31" d="M42.4,58c-.7,0-1.3-.4-1.9-.9-.2-.1-.3-.3,0-.5.4-.2.7-.6,1.2-.4.4.2.8.4,1.1.7.2.1.5.3.5.6,0,.4-.5.3-.8.4h0Z"/>
      <path class="st67" d="M25.7,48.4c1-1.2,1.9-.6,2.8,0,.3.2.7.4.5.8-.2.5-.7.5-1.1.3-.8-.2-1.5-.7-2.2-1.2Z"/>
      <path class="st80" d="M44.8,60.9c.8.1,1.8.2,2,1.1.1.6-.7.6-1.2.6-.8,0-1.7-.2-1.8-1.1-.1-.5.6-.6,1.1-.7h0Z"/>
      <path class="st44" d="M30.7,54c-.4,0-1-.3-1.4-.9-.2-.2,0-.4.1-.6.6-.5,1.3-.4,1.9,0,.5.2,1.1.4.9,1.1-.2.5-.7.5-1.5.5h0Z"/>
      <path class="st60" d="M40,74.2c0,1.7-1.4,2.7-2.7,1.9-1.9-1.2-2.9-3.1-3.5-5.2-.2-.6,0-1.3.7-1.7.6-.4,1.1-.2,1.7.1,2,1.2,3.5,2.7,3.9,4.9h0Z"/>
      <path class="st68" d="M25.7,65.6c0,1.7-.8,2.3-2.2,2-2.2-.5-4.3-4-3.8-6.2.3-1.2.9-1.5,2.1-1,2.3,1.1,3.5,3,3.8,5.2h0Z"/>
    </g>
  </g>
</svg>