<svg width="376" height="383" viewBox="0 0 376 383" fill="none" xmlns="http://www.w3.org/2000/svg">
<path d="M16.6618 105.731L121.261 109.083L151.851 9L214.447 92.8688L311.767 54.3843L285.223 155.615L375.99 207.708L280.295 250.072L296.159 353.516L203.372 305.112L132.388 382.011L112.38 279.288L8 271.736L75.8371 192.047L16.6618 105.731Z" fill="#26363B"/>
<path d="M8.6618 96.7307L113.261 100.083L143.851 0L206.447 83.8688L303.767 45.3843L277.223 146.615L367.99 198.708L272.295 241.072L288.159 344.516L195.372 296.112L124.388 373.011L104.38 270.288L0 262.736L67.8371 183.047L8.6618 96.7307Z" fill="#FFCD44"/>
</svg>
