<svg width="1440" height="626" viewBox="0 0 1440 626" fill="none" xmlns="http://www.w3.org/2000/svg">
<g clip-path="url(#clip0_2431_18556)">
<path fill-rule="evenodd" clip-rule="evenodd" d="M-365.062 196.729C-255.426 260.028 -41.2473 384.119 30.2451 425.548C45.1074 434.16 63.2903 434.089 78.1664 425.5L257.401 322.019C257.404 322.017 257.408 322.015 257.411 322.013L275.389 311.634L85.001 201.713C63.6677 189.396 63.6677 158.604 85.001 146.287L280.818 33.2322C291.485 27.0738 291.485 11.6778 280.818 5.51935L124.001 -85.0191C109.652 -93.3034 104.736 -111.651 113.02 -126C121.305 -140.349 139.652 -145.265 154.001 -136.981L340.818 -29.1217C355.669 -20.5473 373.967 -20.5473 388.818 -29.1217L624.999 -165.481C636.198 -171.946 649.832 -170.371 659.218 -162.546L876.714 -36.9749L1140.86 -189.481C1151.93 -195.872 1165.38 -194.406 1174.75 -186.814L1379.01 -68.8851C1388.91 -63.1689 1401.11 -63.1689 1411.01 -68.8851L1658.86 -211.981C1673.21 -220.265 1691.56 -215.349 1699.84 -201C1708.13 -186.651 1703.21 -168.303 1688.86 -160.019L1410.9 0.460052C1408.64 1.86948 1406.21 2.96423 1403.67 3.72614C1400.83 4.58865 1397.91 5.00671 1395.01 5.0051C1392.12 5.00671 1389.2 4.58914 1386.35 3.72662C1383.82 2.96472 1381.39 1.86948 1379.12 0.460052L1171.5 -119.412C1161.6 -125.128 1149.4 -125.128 1139.5 -119.412L897.116 20.5278C887.719 28.7991 873.734 30.587 862.292 23.9809L647.567 -99.9906C642.616 -102.849 636.517 -102.849 631.567 -99.9906L157.001 174L344.962 282.519C346.787 283.573 348.459 284.789 349.971 286.139C354.298 288.68 358.047 292.343 360.735 297C369.02 311.349 364.104 329.697 349.755 337.981L287.421 373.969C287.414 373.973 287.407 373.977 287.401 373.981L-134.116 617.344C-144.783 623.502 -144.783 638.898 -134.116 645.057L-4.18359 720.073C10.6677 728.648 28.9652 728.648 43.8165 720.073L551.401 427.019C565.75 418.735 584.097 423.651 592.382 438C600.666 452.349 595.75 470.697 581.401 478.981L103.816 754.714C93.1497 760.873 93.1497 776.269 103.816 782.427L340.401 919.019C354.75 927.304 359.666 945.651 351.382 960C343.097 974.349 324.75 979.265 310.401 970.981L-194.116 679.698C-208.968 671.123 -227.265 671.123 -242.116 679.698L-252.999 685.981L-282.999 634.019L-29.3259 487.561C-18.6592 481.403 -18.6592 466.007 -29.3259 459.848L-425.062 231.37C-778.948 435.687 36.922 -35.3562 -365.062 196.729ZM1117.99 102.995C1117.99 102.995 1128.26 104.284 1133 107.019C1136.96 109.304 1290.58 198 1341.1 227.164C1351 232.88 1363.11 232.831 1373.01 227.115L1561.97 118.019C1576.32 109.735 1594.67 114.651 1602.95 129C1611.24 143.349 1606.32 161.697 1591.97 169.981L1372.9 296.46C1370.64 297.868 1368.21 298.962 1365.68 299.724C1362.83 300.588 1359.91 301.007 1357.01 301.005C1354.11 301.007 1351.2 300.588 1348.35 299.724C1345.82 298.963 1343.38 297.868 1341.12 296.46L1125.99 172.251C1121.04 169.393 1114.94 169.393 1109.99 172.251L913.001 285.981C898.652 294.265 880.305 289.349 872.02 275C863.736 260.651 868.652 242.304 883.001 234.019L1102.97 107.019C1107.71 104.284 1117.99 102.995 1117.99 102.995ZM962.02 362C970.305 347.651 988.652 342.735 1003 351.019L1295.95 520.152C1310.8 528.727 1329.1 528.727 1343.95 520.152L1532.97 411.019C1547.32 402.735 1565.67 407.651 1573.95 422C1582.24 436.349 1577.32 454.697 1562.97 462.981L1403.95 554.793C1393.28 560.952 1393.28 576.348 1403.95 582.506L1475.85 624.019C1490.2 632.304 1495.12 650.651 1486.83 665C1478.55 679.349 1460.2 684.265 1445.85 675.981L973.001 402.981C958.652 394.697 953.736 376.349 962.02 362ZM802.986 559.995C808.09 559.988 813.263 561.284 818.001 564.019L1290.85 837.019C1300.55 842.62 1305.94 852.821 1305.85 863.277C1306.88 874.561 1301.43 885.943 1290.97 891.981L1071 1018.98C1056.65 1027.27 1038.3 1022.35 1030.02 1008C1021.74 993.651 1026.65 975.304 1041 967.019L1206.51 871.463C1211.84 868.384 1211.84 860.686 1206.51 857.607L810.986 629.251C806.036 626.393 799.937 626.393 794.986 629.251L598.001 742.981C583.652 751.265 565.304 746.349 557.02 732C548.736 717.651 553.652 699.304 568.001 691.019L787.971 564.019C792.709 561.284 797.883 559.988 802.986 559.995Z" fill="white" fill-opacity="0.4"/>
<path fill-rule="evenodd" clip-rule="evenodd" d="M1218.84 -478C1227.13 -463.651 1222.21 -445.303 1207.86 -437.019L931.839 -277.658C926.681 -273.944 920.464 -271.97 914.147 -271.995C907.83 -271.97 901.613 -273.944 896.454 -277.658L662.001 -413.019C660.119 -414.106 658.4 -415.365 656.851 -416.766C657.89 -405.468 652.442 -394.064 641.972 -388.019L422.001 -261.019C407.652 -252.735 389.305 -257.651 381.02 -272C372.736 -286.349 377.652 -304.696 392.001 -312.981L611.972 -439.981C623.549 -446.665 637.729 -444.755 647.127 -436.232C646.568 -442.207 647.791 -448.407 651.02 -454C659.305 -468.349 677.652 -473.265 692.001 -464.981L914.147 -336.725L1177.86 -488.981C1192.21 -497.265 1210.56 -492.349 1218.84 -478ZM-719.98 -287C-711.695 -301.349 -693.348 -306.265 -678.999 -297.981L-138.599 14.0193C-129.317 19.3784 -123.599 29.2822 -123.599 40.0001C-123.599 50.7181 -129.317 60.6219 -138.599 65.9809L-678.999 377.981C-693.348 386.265 -711.695 381.349 -719.98 367C-728.264 352.651 -723.348 334.304 -708.999 326.019L-225.599 46.9283C-220.266 43.8491 -220.266 36.1512 -225.599 33.072L-708.999 -246.019C-723.348 -254.303 -728.264 -272.651 -719.98 -287Z" fill="white" fill-opacity="0.4"/>
</g>
<defs>
<clipPath id="clip0_2431_18556">
<rect width="626" height="1440" fill="white" transform="matrix(0 1 -1 0 1440 0)"/>
</clipPath>
</defs>
</svg>
